<?xml version="1.0" encoding="utf-8" standalone="no"?>
<!DOCTYPE svg PUBLIC "-//W3C//DTD SVG 1.1//EN"
  "http://www.w3.org/Graphics/SVG/1.1/DTD/svg11.dtd">
<svg xmlns:xlink="http://www.w3.org/1999/xlink" width="1440pt" height="720pt" viewBox="0 0 1440 720" xmlns="http://www.w3.org/2000/svg" version="1.1">
 <metadata>
  <rdf:RDF xmlns:dc="http://purl.org/dc/elements/1.1/" xmlns:cc="http://creativecommons.org/ns#" xmlns:rdf="http://www.w3.org/1999/02/22-rdf-syntax-ns#">
   <cc:Work>
    <dc:type rdf:resource="http://purl.org/dc/dcmitype/StillImage"/>
    <dc:date>2023-12-08T18:12:59.159158</dc:date>
    <dc:format>image/svg+xml</dc:format>
    <dc:creator>
     <cc:Agent>
      <dc:title>Matplotlib v3.8.1, https://matplotlib.org/</dc:title>
     </cc:Agent>
    </dc:creator>
   </cc:Work>
  </rdf:RDF>
 </metadata>
 <defs>
  <style type="text/css">*{stroke-linejoin: round; stroke-linecap: butt}</style>
 </defs>
 <g id="figure_1">
  <g id="patch_1">
   <path d="M 0 720 
L 1440 720 
L 1440 0 
L 0 0 
z
" style="fill: #ffffff"/>
  </g>
  <g id="axes_1">
   <g id="patch_2">
    <path d="M 180 640.8 
L 1296 640.8 
L 1296 86.4 
L 180 86.4 
z
" style="fill: #ffffff"/>
   </g>
   <g id="matplotlib.axis_1">
    <g id="xtick_1">
     <g id="line2d_1">
      <defs>
       <path id="mc9bb0bca9e" d="M 0 0 
L 0 3.5 
" style="stroke: #000000; stroke-width: 0.8"/>
      </defs>
      <g>
       <use xlink:href="#mc9bb0bca9e" x="197.458484" y="640.8" style="stroke: #000000; stroke-width: 0.8"/>
      </g>
     </g>
     <g id="text_1">
      <!-- 2008 -->
      <g transform="translate(183.364962 694.537549) rotate(-45) scale(0.2 -0.2)">
       <defs>
        <path id="DejaVuSans-32" d="M 1228 531 
L 3431 531 
L 3431 0 
L 469 0 
L 469 531 
Q 828 903 1448 1529 
Q 2069 2156 2228 2338 
Q 2531 2678 2651 2914 
Q 2772 3150 2772 3378 
Q 2772 3750 2511 3984 
Q 2250 4219 1831 4219 
Q 1534 4219 1204 4116 
Q 875 4013 500 3803 
L 500 4441 
Q 881 4594 1212 4672 
Q 1544 4750 1819 4750 
Q 2544 4750 2975 4387 
Q 3406 4025 3406 3419 
Q 3406 3131 3298 2873 
Q 3191 2616 2906 2266 
Q 2828 2175 2409 1742 
Q 1991 1309 1228 531 
z
" transform="scale(0.015625)"/>
        <path id="DejaVuSans-30" d="M 2034 4250 
Q 1547 4250 1301 3770 
Q 1056 3291 1056 2328 
Q 1056 1369 1301 889 
Q 1547 409 2034 409 
Q 2525 409 2770 889 
Q 3016 1369 3016 2328 
Q 3016 3291 2770 3770 
Q 2525 4250 2034 4250 
z
M 2034 4750 
Q 2819 4750 3233 4129 
Q 3647 3509 3647 2328 
Q 3647 1150 3233 529 
Q 2819 -91 2034 -91 
Q 1250 -91 836 529 
Q 422 1150 422 2328 
Q 422 3509 836 4129 
Q 1250 4750 2034 4750 
z
" transform="scale(0.015625)"/>
        <path id="DejaVuSans-38" d="M 2034 2216 
Q 1584 2216 1326 1975 
Q 1069 1734 1069 1313 
Q 1069 891 1326 650 
Q 1584 409 2034 409 
Q 2484 409 2743 651 
Q 3003 894 3003 1313 
Q 3003 1734 2745 1975 
Q 2488 2216 2034 2216 
z
M 1403 2484 
Q 997 2584 770 2862 
Q 544 3141 544 3541 
Q 544 4100 942 4425 
Q 1341 4750 2034 4750 
Q 2731 4750 3128 4425 
Q 3525 4100 3525 3541 
Q 3525 3141 3298 2862 
Q 3072 2584 2669 2484 
Q 3125 2378 3379 2068 
Q 3634 1759 3634 1313 
Q 3634 634 3220 271 
Q 2806 -91 2034 -91 
Q 1263 -91 848 271 
Q 434 634 434 1313 
Q 434 1759 690 2068 
Q 947 2378 1403 2484 
z
M 1172 3481 
Q 1172 3119 1398 2916 
Q 1625 2713 2034 2713 
Q 2441 2713 2670 2916 
Q 2900 3119 2900 3481 
Q 2900 3844 2670 4047 
Q 2441 4250 2034 4250 
Q 1625 4250 1398 4047 
Q 1172 3844 1172 3481 
z
" transform="scale(0.015625)"/>
       </defs>
       <use xlink:href="#DejaVuSans-32"/>
       <use xlink:href="#DejaVuSans-30" x="63.623047"/>
       <use xlink:href="#DejaVuSans-30" x="127.246094"/>
       <use xlink:href="#DejaVuSans-38" x="190.869141"/>
      </g>
     </g>
    </g>
    <g id="xtick_2">
     <g id="line2d_2">
      <g>
       <use xlink:href="#mc9bb0bca9e" x="267.292419" y="640.8" style="stroke: #000000; stroke-width: 0.8"/>
      </g>
     </g>
     <g id="text_2">
      <!-- 2009 -->
      <g transform="translate(253.198897 694.537549) rotate(-45) scale(0.2 -0.2)">
       <defs>
        <path id="DejaVuSans-39" d="M 703 97 
L 703 672 
Q 941 559 1184 500 
Q 1428 441 1663 441 
Q 2288 441 2617 861 
Q 2947 1281 2994 2138 
Q 2813 1869 2534 1725 
Q 2256 1581 1919 1581 
Q 1219 1581 811 2004 
Q 403 2428 403 3163 
Q 403 3881 828 4315 
Q 1253 4750 1959 4750 
Q 2769 4750 3195 4129 
Q 3622 3509 3622 2328 
Q 3622 1225 3098 567 
Q 2575 -91 1691 -91 
Q 1453 -91 1209 -44 
Q 966 3 703 97 
z
M 1959 2075 
Q 2384 2075 2632 2365 
Q 2881 2656 2881 3163 
Q 2881 3666 2632 3958 
Q 2384 4250 1959 4250 
Q 1534 4250 1286 3958 
Q 1038 3666 1038 3163 
Q 1038 2656 1286 2365 
Q 1534 2075 1959 2075 
z
" transform="scale(0.015625)"/>
       </defs>
       <use xlink:href="#DejaVuSans-32"/>
       <use xlink:href="#DejaVuSans-30" x="63.623047"/>
       <use xlink:href="#DejaVuSans-30" x="127.246094"/>
       <use xlink:href="#DejaVuSans-39" x="190.869141"/>
      </g>
     </g>
    </g>
    <g id="xtick_3">
     <g id="line2d_3">
      <g>
       <use xlink:href="#mc9bb0bca9e" x="337.126354" y="640.8" style="stroke: #000000; stroke-width: 0.8"/>
      </g>
     </g>
     <g id="text_3">
      <!-- 2010 -->
      <g transform="translate(323.032832 694.537549) rotate(-45) scale(0.2 -0.2)">
       <defs>
        <path id="DejaVuSans-31" d="M 794 531 
L 1825 531 
L 1825 4091 
L 703 3866 
L 703 4441 
L 1819 4666 
L 2450 4666 
L 2450 531 
L 3481 531 
L 3481 0 
L 794 0 
L 794 531 
z
" transform="scale(0.015625)"/>
       </defs>
       <use xlink:href="#DejaVuSans-32"/>
       <use xlink:href="#DejaVuSans-30" x="63.623047"/>
       <use xlink:href="#DejaVuSans-31" x="127.246094"/>
       <use xlink:href="#DejaVuSans-30" x="190.869141"/>
      </g>
     </g>
    </g>
    <g id="xtick_4">
     <g id="line2d_4">
      <g>
       <use xlink:href="#mc9bb0bca9e" x="406.960289" y="640.8" style="stroke: #000000; stroke-width: 0.8"/>
      </g>
     </g>
     <g id="text_4">
      <!-- 2011 -->
      <g transform="translate(392.866767 694.537549) rotate(-45) scale(0.2 -0.2)">
       <use xlink:href="#DejaVuSans-32"/>
       <use xlink:href="#DejaVuSans-30" x="63.623047"/>
       <use xlink:href="#DejaVuSans-31" x="127.246094"/>
       <use xlink:href="#DejaVuSans-31" x="190.869141"/>
      </g>
     </g>
    </g>
    <g id="xtick_5">
     <g id="line2d_5">
      <g>
       <use xlink:href="#mc9bb0bca9e" x="476.794224" y="640.8" style="stroke: #000000; stroke-width: 0.8"/>
      </g>
     </g>
     <g id="text_5">
      <!-- 2012 -->
      <g transform="translate(462.700702 694.537549) rotate(-45) scale(0.2 -0.2)">
       <use xlink:href="#DejaVuSans-32"/>
       <use xlink:href="#DejaVuSans-30" x="63.623047"/>
       <use xlink:href="#DejaVuSans-31" x="127.246094"/>
       <use xlink:href="#DejaVuSans-32" x="190.869141"/>
      </g>
     </g>
    </g>
    <g id="xtick_6">
     <g id="line2d_6">
      <g>
       <use xlink:href="#mc9bb0bca9e" x="547.971119" y="640.8" style="stroke: #000000; stroke-width: 0.8"/>
      </g>
     </g>
     <g id="text_6">
      <!-- 2013 -->
      <g transform="translate(533.877597 694.537549) rotate(-45) scale(0.2 -0.2)">
       <defs>
        <path id="DejaVuSans-33" d="M 2597 2516 
Q 3050 2419 3304 2112 
Q 3559 1806 3559 1356 
Q 3559 666 3084 287 
Q 2609 -91 1734 -91 
Q 1441 -91 1130 -33 
Q 819 25 488 141 
L 488 750 
Q 750 597 1062 519 
Q 1375 441 1716 441 
Q 2309 441 2620 675 
Q 2931 909 2931 1356 
Q 2931 1769 2642 2001 
Q 2353 2234 1838 2234 
L 1294 2234 
L 1294 2753 
L 1863 2753 
Q 2328 2753 2575 2939 
Q 2822 3125 2822 3475 
Q 2822 3834 2567 4026 
Q 2313 4219 1838 4219 
Q 1578 4219 1281 4162 
Q 984 4106 628 3988 
L 628 4550 
Q 988 4650 1302 4700 
Q 1616 4750 1894 4750 
Q 2613 4750 3031 4423 
Q 3450 4097 3450 3541 
Q 3450 3153 3228 2886 
Q 3006 2619 2597 2516 
z
" transform="scale(0.015625)"/>
       </defs>
       <use xlink:href="#DejaVuSans-32"/>
       <use xlink:href="#DejaVuSans-30" x="63.623047"/>
       <use xlink:href="#DejaVuSans-31" x="127.246094"/>
       <use xlink:href="#DejaVuSans-33" x="190.869141"/>
      </g>
     </g>
    </g>
    <g id="xtick_7">
     <g id="line2d_7">
      <g>
       <use xlink:href="#mc9bb0bca9e" x="617.805054" y="640.8" style="stroke: #000000; stroke-width: 0.8"/>
      </g>
     </g>
     <g id="text_7">
      <!-- 2014 -->
      <g transform="translate(603.711532 694.537549) rotate(-45) scale(0.2 -0.2)">
       <defs>
        <path id="DejaVuSans-34" d="M 2419 4116 
L 825 1625 
L 2419 1625 
L 2419 4116 
z
M 2253 4666 
L 3047 4666 
L 3047 1625 
L 3713 1625 
L 3713 1100 
L 3047 1100 
L 3047 0 
L 2419 0 
L 2419 1100 
L 313 1100 
L 313 1709 
L 2253 4666 
z
" transform="scale(0.015625)"/>
       </defs>
       <use xlink:href="#DejaVuSans-32"/>
       <use xlink:href="#DejaVuSans-30" x="63.623047"/>
       <use xlink:href="#DejaVuSans-31" x="127.246094"/>
       <use xlink:href="#DejaVuSans-34" x="190.869141"/>
      </g>
     </g>
    </g>
    <g id="xtick_8">
     <g id="line2d_8">
      <g>
       <use xlink:href="#mc9bb0bca9e" x="687.638989" y="640.8" style="stroke: #000000; stroke-width: 0.8"/>
      </g>
     </g>
     <g id="text_8">
      <!-- 2015 -->
      <g transform="translate(673.545467 694.537549) rotate(-45) scale(0.2 -0.2)">
       <defs>
        <path id="DejaVuSans-35" d="M 691 4666 
L 3169 4666 
L 3169 4134 
L 1269 4134 
L 1269 2991 
Q 1406 3038 1543 3061 
Q 1681 3084 1819 3084 
Q 2600 3084 3056 2656 
Q 3513 2228 3513 1497 
Q 3513 744 3044 326 
Q 2575 -91 1722 -91 
Q 1428 -91 1123 -41 
Q 819 9 494 109 
L 494 744 
Q 775 591 1075 516 
Q 1375 441 1709 441 
Q 2250 441 2565 725 
Q 2881 1009 2881 1497 
Q 2881 1984 2565 2268 
Q 2250 2553 1709 2553 
Q 1456 2553 1204 2497 
Q 953 2441 691 2322 
L 691 4666 
z
" transform="scale(0.015625)"/>
       </defs>
       <use xlink:href="#DejaVuSans-32"/>
       <use xlink:href="#DejaVuSans-30" x="63.623047"/>
       <use xlink:href="#DejaVuSans-31" x="127.246094"/>
       <use xlink:href="#DejaVuSans-35" x="190.869141"/>
      </g>
     </g>
    </g>
    <g id="xtick_9">
     <g id="line2d_9">
      <g>
       <use xlink:href="#mc9bb0bca9e" x="757.472924" y="640.8" style="stroke: #000000; stroke-width: 0.8"/>
      </g>
     </g>
     <g id="text_9">
      <!-- 2016 -->
      <g transform="translate(743.379402 694.537549) rotate(-45) scale(0.2 -0.2)">
       <defs>
        <path id="DejaVuSans-36" d="M 2113 2584 
Q 1688 2584 1439 2293 
Q 1191 2003 1191 1497 
Q 1191 994 1439 701 
Q 1688 409 2113 409 
Q 2538 409 2786 701 
Q 3034 994 3034 1497 
Q 3034 2003 2786 2293 
Q 2538 2584 2113 2584 
z
M 3366 4563 
L 3366 3988 
Q 3128 4100 2886 4159 
Q 2644 4219 2406 4219 
Q 1781 4219 1451 3797 
Q 1122 3375 1075 2522 
Q 1259 2794 1537 2939 
Q 1816 3084 2150 3084 
Q 2853 3084 3261 2657 
Q 3669 2231 3669 1497 
Q 3669 778 3244 343 
Q 2819 -91 2113 -91 
Q 1303 -91 875 529 
Q 447 1150 447 2328 
Q 447 3434 972 4092 
Q 1497 4750 2381 4750 
Q 2619 4750 2861 4703 
Q 3103 4656 3366 4563 
z
" transform="scale(0.015625)"/>
       </defs>
       <use xlink:href="#DejaVuSans-32"/>
       <use xlink:href="#DejaVuSans-30" x="63.623047"/>
       <use xlink:href="#DejaVuSans-31" x="127.246094"/>
       <use xlink:href="#DejaVuSans-36" x="190.869141"/>
      </g>
     </g>
    </g>
    <g id="xtick_10">
     <g id="line2d_10">
      <g>
       <use xlink:href="#mc9bb0bca9e" x="827.306859" y="640.8" style="stroke: #000000; stroke-width: 0.8"/>
      </g>
     </g>
     <g id="text_10">
      <!-- 2017 -->
      <g transform="translate(813.213337 694.537549) rotate(-45) scale(0.2 -0.2)">
       <defs>
        <path id="DejaVuSans-37" d="M 525 4666 
L 3525 4666 
L 3525 4397 
L 1831 0 
L 1172 0 
L 2766 4134 
L 525 4134 
L 525 4666 
z
" transform="scale(0.015625)"/>
       </defs>
       <use xlink:href="#DejaVuSans-32"/>
       <use xlink:href="#DejaVuSans-30" x="63.623047"/>
       <use xlink:href="#DejaVuSans-31" x="127.246094"/>
       <use xlink:href="#DejaVuSans-37" x="190.869141"/>
      </g>
     </g>
    </g>
    <g id="xtick_11">
     <g id="line2d_11">
      <g>
       <use xlink:href="#mc9bb0bca9e" x="898.483755" y="640.8" style="stroke: #000000; stroke-width: 0.8"/>
      </g>
     </g>
     <g id="text_11">
      <!-- 2018 -->
      <g transform="translate(884.390232 694.537549) rotate(-45) scale(0.2 -0.2)">
       <use xlink:href="#DejaVuSans-32"/>
       <use xlink:href="#DejaVuSans-30" x="63.623047"/>
       <use xlink:href="#DejaVuSans-31" x="127.246094"/>
       <use xlink:href="#DejaVuSans-38" x="190.869141"/>
      </g>
     </g>
    </g>
    <g id="xtick_12">
     <g id="line2d_12">
      <g>
       <use xlink:href="#mc9bb0bca9e" x="968.31769" y="640.8" style="stroke: #000000; stroke-width: 0.8"/>
      </g>
     </g>
     <g id="text_12">
      <!-- 2019 -->
      <g transform="translate(954.224167 694.537549) rotate(-45) scale(0.2 -0.2)">
       <use xlink:href="#DejaVuSans-32"/>
       <use xlink:href="#DejaVuSans-30" x="63.623047"/>
       <use xlink:href="#DejaVuSans-31" x="127.246094"/>
       <use xlink:href="#DejaVuSans-39" x="190.869141"/>
      </g>
     </g>
    </g>
    <g id="xtick_13">
     <g id="line2d_13">
      <g>
       <use xlink:href="#mc9bb0bca9e" x="1038.151625" y="640.8" style="stroke: #000000; stroke-width: 0.8"/>
      </g>
     </g>
     <g id="text_13">
      <!-- 2020 -->
      <g transform="translate(1024.058103 694.537549) rotate(-45) scale(0.2 -0.2)">
       <use xlink:href="#DejaVuSans-32"/>
       <use xlink:href="#DejaVuSans-30" x="63.623047"/>
       <use xlink:href="#DejaVuSans-32" x="127.246094"/>
       <use xlink:href="#DejaVuSans-30" x="190.869141"/>
      </g>
     </g>
    </g>
    <g id="xtick_14">
     <g id="line2d_14">
      <g>
       <use xlink:href="#mc9bb0bca9e" x="1107.98556" y="640.8" style="stroke: #000000; stroke-width: 0.8"/>
      </g>
     </g>
     <g id="text_14">
      <!-- 2021 -->
      <g transform="translate(1093.892038 694.537549) rotate(-45) scale(0.2 -0.2)">
       <use xlink:href="#DejaVuSans-32"/>
       <use xlink:href="#DejaVuSans-30" x="63.623047"/>
       <use xlink:href="#DejaVuSans-32" x="127.246094"/>
       <use xlink:href="#DejaVuSans-31" x="190.869141"/>
      </g>
     </g>
    </g>
    <g id="xtick_15">
     <g id="line2d_15">
      <g>
       <use xlink:href="#mc9bb0bca9e" x="1177.819495" y="640.8" style="stroke: #000000; stroke-width: 0.8"/>
      </g>
     </g>
     <g id="text_15">
      <!-- 2022 -->
      <g transform="translate(1163.725973 694.537549) rotate(-45) scale(0.2 -0.2)">
       <use xlink:href="#DejaVuSans-32"/>
       <use xlink:href="#DejaVuSans-30" x="63.623047"/>
       <use xlink:href="#DejaVuSans-32" x="127.246094"/>
       <use xlink:href="#DejaVuSans-32" x="190.869141"/>
      </g>
     </g>
    </g>
    <g id="xtick_16">
     <g id="line2d_16">
      <g>
       <use xlink:href="#mc9bb0bca9e" x="1247.65343" y="640.8" style="stroke: #000000; stroke-width: 0.8"/>
      </g>
     </g>
     <g id="text_16">
      <!-- 2023 -->
      <g transform="translate(1233.559908 694.537549) rotate(-45) scale(0.2 -0.2)">
       <use xlink:href="#DejaVuSans-32"/>
       <use xlink:href="#DejaVuSans-30" x="63.623047"/>
       <use xlink:href="#DejaVuSans-32" x="127.246094"/>
       <use xlink:href="#DejaVuSans-33" x="190.869141"/>
      </g>
     </g>
    </g>
   </g>
   <g id="matplotlib.axis_2">
    <g id="ytick_1">
     <g id="line2d_17">
      <defs>
       <path id="mb239cb914f" d="M 0 0 
L -3.5 0 
" style="stroke: #000000; stroke-width: 0.8"/>
      </defs>
      <g>
       <use xlink:href="#mb239cb914f" x="180" y="615.6" style="stroke: #000000; stroke-width: 0.8"/>
      </g>
     </g>
     <g id="text_17">
      <!-- 0.0 -->
      <g transform="translate(141.19375 623.198437) scale(0.2 -0.2)">
       <defs>
        <path id="DejaVuSans-2e" d="M 684 794 
L 1344 794 
L 1344 0 
L 684 0 
L 684 794 
z
" transform="scale(0.015625)"/>
       </defs>
       <use xlink:href="#DejaVuSans-30"/>
       <use xlink:href="#DejaVuSans-2e" x="63.623047"/>
       <use xlink:href="#DejaVuSans-30" x="95.410156"/>
      </g>
     </g>
    </g>
    <g id="ytick_2">
     <g id="line2d_18">
      <g>
       <use xlink:href="#mb239cb914f" x="180" y="545.718212" style="stroke: #000000; stroke-width: 0.8"/>
      </g>
     </g>
     <g id="text_18">
      <!-- 2.5 -->
      <g transform="translate(141.19375 553.31665) scale(0.2 -0.2)">
       <use xlink:href="#DejaVuSans-32"/>
       <use xlink:href="#DejaVuSans-2e" x="63.623047"/>
       <use xlink:href="#DejaVuSans-35" x="95.410156"/>
      </g>
     </g>
    </g>
    <g id="ytick_3">
     <g id="line2d_19">
      <g>
       <use xlink:href="#mb239cb914f" x="180" y="475.836424" style="stroke: #000000; stroke-width: 0.8"/>
      </g>
     </g>
     <g id="text_19">
      <!-- 5.0 -->
      <g transform="translate(141.19375 483.434862) scale(0.2 -0.2)">
       <use xlink:href="#DejaVuSans-35"/>
       <use xlink:href="#DejaVuSans-2e" x="63.623047"/>
       <use xlink:href="#DejaVuSans-30" x="95.410156"/>
      </g>
     </g>
    </g>
    <g id="ytick_4">
     <g id="line2d_20">
      <g>
       <use xlink:href="#mb239cb914f" x="180" y="405.954636" style="stroke: #000000; stroke-width: 0.8"/>
      </g>
     </g>
     <g id="text_20">
      <!-- 7.5 -->
      <g transform="translate(141.19375 413.553074) scale(0.2 -0.2)">
       <use xlink:href="#DejaVuSans-37"/>
       <use xlink:href="#DejaVuSans-2e" x="63.623047"/>
       <use xlink:href="#DejaVuSans-35" x="95.410156"/>
      </g>
     </g>
    </g>
    <g id="ytick_5">
     <g id="line2d_21">
      <g>
       <use xlink:href="#mb239cb914f" x="180" y="336.072848" style="stroke: #000000; stroke-width: 0.8"/>
      </g>
     </g>
     <g id="text_21">
      <!-- 10.0 -->
      <g transform="translate(128.46875 343.671286) scale(0.2 -0.2)">
       <use xlink:href="#DejaVuSans-31"/>
       <use xlink:href="#DejaVuSans-30" x="63.623047"/>
       <use xlink:href="#DejaVuSans-2e" x="127.246094"/>
       <use xlink:href="#DejaVuSans-30" x="159.033203"/>
      </g>
     </g>
    </g>
    <g id="ytick_6">
     <g id="line2d_22">
      <g>
       <use xlink:href="#mb239cb914f" x="180" y="266.19106" style="stroke: #000000; stroke-width: 0.8"/>
      </g>
     </g>
     <g id="text_22">
      <!-- 12.5 -->
      <g transform="translate(128.46875 273.789498) scale(0.2 -0.2)">
       <use xlink:href="#DejaVuSans-31"/>
       <use xlink:href="#DejaVuSans-32" x="63.623047"/>
       <use xlink:href="#DejaVuSans-2e" x="127.246094"/>
       <use xlink:href="#DejaVuSans-35" x="159.033203"/>
      </g>
     </g>
    </g>
    <g id="ytick_7">
     <g id="line2d_23">
      <g>
       <use xlink:href="#mb239cb914f" x="180" y="196.309272" style="stroke: #000000; stroke-width: 0.8"/>
      </g>
     </g>
     <g id="text_23">
      <!-- 15.0 -->
      <g transform="translate(128.46875 203.90771) scale(0.2 -0.2)">
       <use xlink:href="#DejaVuSans-31"/>
       <use xlink:href="#DejaVuSans-35" x="63.623047"/>
       <use xlink:href="#DejaVuSans-2e" x="127.246094"/>
       <use xlink:href="#DejaVuSans-30" x="159.033203"/>
      </g>
     </g>
    </g>
    <g id="ytick_8">
     <g id="line2d_24">
      <g>
       <use xlink:href="#mb239cb914f" x="180" y="126.427484" style="stroke: #000000; stroke-width: 0.8"/>
      </g>
     </g>
     <g id="text_24">
      <!-- 17.5 -->
      <g transform="translate(128.46875 134.025922) scale(0.2 -0.2)">
       <use xlink:href="#DejaVuSans-31"/>
       <use xlink:href="#DejaVuSans-37" x="63.623047"/>
       <use xlink:href="#DejaVuSans-2e" x="127.246094"/>
       <use xlink:href="#DejaVuSans-35" x="159.033203"/>
      </g>
     </g>
    </g>
    <g id="text_25">
     <!-- % -->
     <g transform="translate(98.967187 359.440625) scale(0.2 -0.2)">
      <defs>
       <path id="DejaVuSans-25" d="M 4653 2053 
Q 4381 2053 4226 1822 
Q 4072 1591 4072 1178 
Q 4072 772 4226 539 
Q 4381 306 4653 306 
Q 4919 306 5073 539 
Q 5228 772 5228 1178 
Q 5228 1588 5073 1820 
Q 4919 2053 4653 2053 
z
M 4653 2450 
Q 5147 2450 5437 2106 
Q 5728 1763 5728 1178 
Q 5728 594 5436 251 
Q 5144 -91 4653 -91 
Q 4153 -91 3862 251 
Q 3572 594 3572 1178 
Q 3572 1766 3864 2108 
Q 4156 2450 4653 2450 
z
M 1428 4353 
Q 1159 4353 1004 4120 
Q 850 3888 850 3481 
Q 850 3069 1003 2837 
Q 1156 2606 1428 2606 
Q 1700 2606 1854 2837 
Q 2009 3069 2009 3481 
Q 2009 3884 1853 4118 
Q 1697 4353 1428 4353 
z
M 4250 4750 
L 4750 4750 
L 1831 -91 
L 1331 -91 
L 4250 4750 
z
M 1428 4750 
Q 1922 4750 2215 4408 
Q 2509 4066 2509 3481 
Q 2509 2891 2217 2550 
Q 1925 2209 1428 2209 
Q 931 2209 642 2551 
Q 353 2894 353 3481 
Q 353 4063 643 4406 
Q 934 4750 1428 4750 
z
" transform="scale(0.015625)"/>
      </defs>
      <use xlink:href="#DejaVuSans-25"/>
     </g>
    </g>
   </g>
   <g id="line2d_25">
    <path d="M 188.057762 371.261472 
L 189.400722 362.616963 
L 190.743682 375.295397 
L 192.086643 398.255472 
L 193.429603 407.256284 
L 194.772563 425.990215 
L 196.115523 427.592012 
L 198.801444 454.829775 
L 200.144404 469.045613 
L 201.487365 478.114656 
L 202.830325 496.309574 
L 204.173285 510.183727 
L 205.516245 513.87362 
L 206.859206 507.379252 
L 208.202166 484.130069 
L 209.545126 496.573616 
L 212.231047 512.547274 
L 213.574007 509.488829 
L 214.916968 503.456413 
L 216.259928 495.85506 
L 217.602888 486.886079 
L 218.945848 470.822822 
L 220.288809 433.941827 
L 221.631769 417.567421 
L 222.974729 408.538922 
L 224.31769 413.426882 
L 225.66065 404.024663 
L 227.00361 390.451971 
L 229.689531 399.97227 
L 231.032491 408.556976 
L 232.375451 419.394654 
L 233.718412 423.773269 
L 235.061372 436.728571 
L 236.404332 471.98402 
L 237.747292 494.078786 
L 239.090253 513.336855 
L 240.433213 530.676195 
L 241.776173 546.096806 
L 243.119134 559.598689 
L 244.462094 571.181844 
L 245.805054 575.002651 
L 247.148014 571.061109 
L 248.490975 574.611821 
L 249.833935 560.595513 
L 251.176895 559.871094 
L 252.519856 540.138654 
L 253.862816 510.663048 
L 255.205776 502.762544 
L 256.548736 489.904893 
L 257.891697 463.850241 
L 259.234657 441.416077 
L 260.577617 422.602402 
L 261.920578 413.252834 
L 263.263538 413.367374 
L 264.606498 393.867504 
L 265.949458 405.239059 
L 267.292419 398.599675 
L 268.635379 410.633485 
L 269.978339 432.075636 
L 271.3213 425.114448 
L 272.66426 426.136906 
L 274.00722 443.382862 
L 275.350181 448.146914 
L 276.693141 454.998168 
L 278.036101 467.603856 
L 279.379061 470.354718 
L 280.722022 477.074672 
L 282.064982 478.778974 
L 284.750903 453.44156 
L 286.093863 442.482002 
L 287.436823 458.19537 
L 290.122744 468.196505 
L 291.465704 484.521342 
L 292.808664 497.789223 
L 294.151625 500.8879 
L 295.494585 509.426634 
L 296.837545 523.405425 
L 298.180505 526.382452 
L 299.523466 545.78514 
L 300.866426 562.716424 
L 302.209386 575.606986 
L 303.552347 568.776545 
L 304.895307 568.650245 
L 306.238267 565.07893 
L 307.581227 558.0626 
L 308.924188 547.601254 
L 310.267148 533.977414 
L 311.610108 517.191079 
L 312.953069 497.24225 
L 314.296029 474.130926 
L 315.638989 457.451213 
L 316.981949 447.20311 
L 318.32491 398.892796 
L 321.01083 392.763756 
L 322.353791 383.17835 
L 323.696751 380.85918 
L 325.039711 385.192181 
L 326.382671 381.713558 
L 327.725632 367.552656 
L 329.068592 363.420743 
L 331.754513 375.649778 
L 333.097473 382.416621 
L 334.440433 432.545164 
L 335.783394 431.26539 
L 337.126354 425.972733 
L 338.469314 436.355246 
L 339.812274 438.368353 
L 341.155235 432.626118 
L 342.498195 429.315179 
L 343.841155 442.144169 
L 345.184116 450.40182 
L 346.527076 445.029237 
L 347.870036 441.171253 
L 349.212996 438.827868 
L 350.555957 428.510061 
L 351.898917 427.394668 
L 353.241877 434.538909 
L 354.584838 414.800353 
L 355.927798 411.436057 
L 357.270758 405.822261 
L 358.613718 422.12069 
L 359.956679 426.073379 
L 361.299639 444.331234 
L 362.642599 469.677245 
L 363.98556 488.241877 
L 365.32852 499.297194 
L 366.67148 513.70829 
L 368.01444 525.879466 
L 369.357401 534.246484 
L 370.700361 561.141985 
L 372.043321 573.447242 
L 373.386282 589.786014 
L 374.729242 593.436228 
L 376.072202 607.817873 
L 377.415162 606.280042 
L 378.758123 605.098638 
L 380.101083 599.986398 
L 381.444043 591.671257 
L 382.787004 580.344147 
L 384.129964 566.00507 
L 385.472924 543.708163 
L 386.815884 523.924973 
L 388.158845 506.655499 
L 389.501805 453.809938 
L 390.844765 451.012176 
L 392.187726 438.805019 
L 393.530686 440.212855 
L 394.873646 434.47026 
L 396.216606 429.761151 
L 397.559567 430.926947 
L 398.902527 432.824951 
L 400.245487 435.455163 
L 401.588448 443.763445 
L 402.931408 447.27825 
L 404.274368 454.704275 
L 405.617329 482.926537 
L 406.960289 480.161577 
L 408.303249 481.205182 
L 409.646209 466.232184 
L 410.98917 456.008009 
L 412.33213 447.06334 
L 413.67509 435.165233 
L 415.018051 425.456385 
L 416.361011 404.787896 
L 417.703971 417.286839 
L 419.046931 426.406961 
L 420.389892 436.833565 
L 421.732852 457.383529 
L 423.075812 454.216426 
L 424.418773 455.826273 
L 425.761733 446.682438 
L 427.104693 464.558546 
L 428.447653 479.637449 
L 431.133574 517.603974 
L 432.476534 550.363195 
L 433.819495 552.425678 
L 435.162455 560.337677 
L 436.505415 560.709191 
L 437.848375 565.928129 
L 439.191336 575.994491 
L 440.534296 587.075668 
L 441.877256 611.503068 
L 443.220217 611.503068 
L 444.563177 615.190184 
L 445.906137 615.463395 
L 447.249097 615.6 
L 452.620939 615.6 
L 453.963899 609.964372 
L 455.306859 588.665525 
L 456.649819 574.96893 
L 457.99278 568.874588 
L 459.33574 560.394608 
L 460.6787 549.528991 
L 462.021661 531.364384 
L 463.364621 518.347983 
L 464.707581 489.511555 
L 466.050542 481.954981 
L 468.736462 456.741401 
L 470.079422 450.209515 
L 471.422383 459.739777 
L 472.765343 462.066716 
L 474.108303 460.834254 
L 475.451264 457.020215 
L 476.794224 446.290787 
L 478.137184 463.007309 
L 479.480144 467.206481 
L 480.823105 479.856535 
L 482.166065 464.932796 
L 483.509025 466.112073 
L 484.851986 478.223113 
L 486.194946 486.677946 
L 487.537906 490.977203 
L 488.880866 490.701976 
L 490.223827 482.208343 
L 491.566787 485.057051 
L 492.909747 495.461836 
L 494.252708 493.047509 
L 495.595668 489.673916 
L 496.938628 482.050174 
L 498.281588 490.604149 
L 499.624549 496.40521 
L 500.967509 482.802216 
L 502.310469 485.280573 
L 503.65343 491.551437 
L 504.99639 502.033717 
L 506.33935 516.727413 
L 507.68231 525.081843 
L 509.025271 535.217085 
L 510.368231 538.06034 
L 511.711191 549.267867 
L 513.054152 572.130548 
L 514.397112 585.145314 
L 515.740072 589.9364 
L 517.083032 601.990086 
L 518.425993 600.090699 
L 519.768953 600.403462 
L 521.111913 600.004086 
L 522.454874 598.892572 
L 523.797834 597.06892 
L 525.140794 575.323513 
L 526.483755 561.373323 
L 527.826715 555.218349 
L 529.169675 547.20658 
L 530.512635 543.71552 
L 531.855596 537.686826 
L 533.198556 529.949275 
L 534.541516 519.002863 
L 535.884477 519.888563 
L 537.227437 505.283311 
L 538.570397 497.545394 
L 539.913357 482.536241 
L 541.256318 479.465467 
L 542.599278 460.6161 
L 543.942238 465.417787 
L 545.285199 461.06792 
L 546.628159 458.835312 
L 547.971119 458.257662 
L 549.314079 453.234822 
L 550.65704 445.266794 
L 552 425.733131 
L 553.34296 423.439334 
L 554.685921 416.027113 
L 556.028881 425.395312 
L 557.371841 446.257831 
L 558.714801 478.61467 
L 560.057762 470.254526 
L 561.400722 476.557904 
L 562.743682 466.128511 
L 564.086643 449.063755 
L 565.429603 463.828859 
L 566.772563 470.36213 
L 568.115523 489.230211 
L 569.458484 497.371026 
L 570.801444 508.288883 
L 572.144404 481.141235 
L 573.487365 468.012968 
L 574.830325 468.904083 
L 576.173285 478.643374 
L 577.516245 484.304957 
L 578.859206 499.638805 
L 580.202166 522.068156 
L 581.545126 519.56402 
L 582.888087 532.18809 
L 584.231047 529.576186 
L 585.574007 536.232237 
L 586.916968 538.651937 
L 588.259928 569.91756 
L 589.602888 583.23032 
L 590.945848 577.617191 
L 592.288809 571.031033 
L 593.631769 563.471848 
L 594.974729 548.382584 
L 596.31769 536.939419 
L 597.66065 529.142355 
L 599.00361 513.445963 
L 600.34657 509.377604 
L 601.689531 511.205532 
L 603.032491 494.086261 
L 604.375451 468.627735 
L 605.718412 466.256703 
L 607.061372 468.773307 
L 609.747292 482.146156 
L 611.090253 495.124747 
L 612.433213 503.307621 
L 613.776173 506.694778 
L 615.119134 505.129033 
L 616.462094 498.24019 
L 617.805054 488.709578 
L 619.148014 501.816793 
L 620.490975 526.95389 
L 621.833935 510.744057 
L 623.176895 502.638761 
L 624.519856 503.267521 
L 627.205776 507.991352 
L 628.548736 503.520325 
L 629.891697 483.951584 
L 631.234657 490.187301 
L 632.577617 503.070311 
L 633.920578 505.831361 
L 635.263538 498.541984 
L 636.606498 483.419277 
L 637.949458 500.952984 
L 639.292419 502.108145 
L 640.635379 482.727835 
L 641.978339 466.557201 
L 643.3213 453.606098 
L 644.66426 450.877717 
L 646.00722 466.580079 
L 647.350181 471.513625 
L 648.693141 465.678355 
L 650.036101 468.893938 
L 651.379061 480.652734 
L 652.722022 498.737645 
L 654.064982 504.608988 
L 655.407942 515.22641 
L 656.750903 534.746835 
L 658.093863 550.332781 
L 659.436823 563.537303 
L 660.779783 575.334879 
L 662.122744 585.72551 
L 663.465704 594.709195 
L 664.808664 555.253949 
L 666.151625 526.397268 
L 667.494585 508.139154 
L 668.837545 484.020302 
L 670.180505 477.346049 
L 671.523466 457.925392 
L 672.866426 448.420121 
L 674.209386 436.469744 
L 675.552347 414.026405 
L 676.895307 406.670346 
L 678.238267 400.297648 
L 679.581227 388.682419 
L 680.924188 418.856645 
L 682.267148 431.78283 
L 683.610108 427.460972 
L 684.953069 443.522099 
L 686.296029 398.475802 
L 687.638989 410.607774 
L 688.981949 402.214633 
L 690.32491 386.241558 
L 691.66787 405.072596 
L 693.01083 405.755637 
L 694.353791 402.394601 
L 695.696751 404.351422 
L 697.039711 401.718023 
L 698.382671 405.511408 
L 699.725632 415.731577 
L 701.068592 421.988683 
L 702.411552 458.423462 
L 703.754513 456.729259 
L 705.097473 468.450959 
L 706.440433 461.428253 
L 707.783394 455.603898 
L 709.126354 463.056498 
L 710.469314 471.951055 
L 711.812274 479.151525 
L 713.155235 494.565985 
L 714.498195 507.177431 
L 715.841155 516.985862 
L 717.184116 515.316208 
L 718.527076 526.212804 
L 719.870036 531.684354 
L 721.212996 535.22756 
L 722.555957 569.002734 
L 723.898917 578.73093 
L 725.241877 578.73093 
L 726.584838 552.783648 
L 727.927798 530.201498 
L 729.270758 510.984481 
L 730.613718 495.132596 
L 731.956679 482.645843 
L 733.299639 471.417418 
L 734.642599 461.447322 
L 735.98556 454.379369 
L 737.32852 450.21356 
L 738.67148 448.486655 
L 740.01444 435.045656 
L 741.357401 426.936635 
L 742.700361 434.654431 
L 744.043321 412.2118 
L 745.386282 359.608742 
L 746.729242 371.653262 
L 748.072202 362.497476 
L 749.415162 378.992911 
L 750.758123 387.134659 
L 752.101083 385.278905 
L 753.444043 373.425649 
L 754.787004 366.024258 
L 756.129964 367.917958 
L 757.472924 364.5362 
L 758.815884 371.53763 
L 760.158845 408.281055 
L 761.501805 474.766475 
L 762.844765 468.480177 
L 764.187726 481.049181 
L 765.530686 465.621958 
L 766.873646 459.809948 
L 768.216606 463.613152 
L 769.559567 465.943923 
L 770.902527 476.454408 
L 772.245487 463.918387 
L 773.588448 443.748217 
L 774.931408 442.872443 
L 776.274368 430.736507 
L 777.617329 423.03012 
L 778.960289 426.581188 
L 781.646209 455.374676 
L 782.98917 466.610445 
L 784.33213 474.53672 
L 785.67509 490.241148 
L 787.018051 490.085451 
L 788.361011 514.605627 
L 789.703971 545.913792 
L 791.046931 558.982004 
L 792.389892 581.680841 
L 793.732852 598.320594 
L 795.075812 609.779064 
L 796.418773 606.776612 
L 797.761733 599.713356 
L 801.790614 565.773342 
L 804.476534 542.200277 
L 805.819495 518.732753 
L 807.162455 500.0948 
L 808.505415 486.286418 
L 809.848375 470.364368 
L 811.191336 452.328651 
L 812.534296 444.331895 
L 813.877256 433.863797 
L 815.220217 437.584469 
L 816.563177 434.008803 
L 817.906137 439.019615 
L 819.249097 407.258238 
L 820.592058 390.212567 
L 821.935018 399.279678 
L 823.277978 418.043648 
L 824.620939 413.097954 
L 825.963899 416.972912 
L 827.306859 423.444005 
L 828.649819 423.574061 
L 829.99278 433.167055 
L 831.33574 435.562874 
L 832.6787 437.53407 
L 834.021661 434.736684 
L 835.364621 472.529384 
L 836.707581 499.742848 
L 838.050542 506.997113 
L 839.393502 495.324718 
L 840.736462 503.381758 
L 842.079422 505.581157 
L 843.422383 509.248076 
L 844.765343 515.170818 
L 846.108303 509.680856 
L 847.451264 503.462424 
L 848.794224 500.318694 
L 850.137184 494.140309 
L 851.480144 492.287583 
L 852.823105 494.441942 
L 854.166065 498.007565 
L 855.509025 501.951914 
L 856.851986 501.025415 
L 858.194946 495.228067 
L 859.537906 483.459228 
L 860.880866 465.77594 
L 862.223827 452.553061 
L 864.909747 414.473681 
L 866.252708 391.225538 
L 867.595668 356.001613 
L 868.938628 308.801906 
L 870.281588 273.20365 
L 871.624549 249.206845 
L 872.967509 236.81149 
L 874.310469 236.017585 
L 875.65343 232.838726 
L 876.99639 237.074664 
L 878.33935 248.725399 
L 879.68231 242.271103 
L 882.368231 291.351263 
L 883.711191 319.087259 
L 885.054152 355.921539 
L 886.397112 374.398857 
L 887.740072 400.404689 
L 889.083032 408.404643 
L 890.425993 407.98653 
L 891.768953 413.136753 
L 893.111913 414.055563 
L 894.454874 418.106557 
L 895.797834 431.049784 
L 897.140794 423.798088 
L 898.483755 434.555445 
L 899.826715 447.521653 
L 901.169675 456.4311 
L 902.512635 466.12611 
L 903.855596 454.338155 
L 905.198556 446.60163 
L 906.541516 448.830562 
L 907.884477 455.851961 
L 909.227437 467.665827 
L 910.570397 464.636929 
L 911.913357 483.815662 
L 913.256318 494.18997 
L 914.599278 482.742158 
L 915.942238 455.336172 
L 917.285199 448.262074 
L 918.628159 445.485804 
L 919.971119 455.499139 
L 921.314079 479.430992 
L 922.65704 490.707998 
L 924 494.503149 
L 925.34296 490.816443 
L 926.685921 491.919514 
L 928.028881 480.521745 
L 929.371841 467.986187 
L 930.714801 459.0312 
L 932.057762 461.48686 
L 933.400722 439.063101 
L 934.743682 418.805457 
L 936.086643 388.605202 
L 940.115523 261.852406 
L 942.801444 164.621587 
L 944.144404 111.6 
L 945.487365 113.174056 
L 946.830325 120.683929 
L 948.173285 134.12962 
L 949.516245 144.061392 
L 952.202166 189.63375 
L 953.545126 219.955394 
L 954.888087 229.308847 
L 956.231047 257.735195 
L 958.916968 352.485847 
L 960.259928 404.263875 
L 961.602888 402.748287 
L 962.945848 396.598907 
L 964.288809 391.19029 
L 965.631769 367.977426 
L 966.974729 360.15625 
L 968.31769 341.68274 
L 969.66065 328.060583 
L 971.00361 348.731438 
L 972.34657 352.572205 
L 973.689531 346.068963 
L 975.032491 347.681014 
L 976.375451 353.36635 
L 977.718412 354.580221 
L 979.061372 350.831765 
L 980.404332 361.562264 
L 981.747292 392.833495 
L 983.090253 394.143193 
L 984.433213 409.051887 
L 985.776173 387.036324 
L 987.119134 362.899897 
L 988.462094 350.662072 
L 989.805054 344.123914 
L 991.148014 343.285421 
L 992.490975 348.275577 
L 993.833935 367.639128 
L 995.176895 394.102296 
L 996.519856 402.849246 
L 997.862816 415.812943 
L 999.205776 432.993388 
L 1000.548736 452.542495 
L 1001.891697 499.130353 
L 1003.234657 537.953569 
L 1004.577617 569.012141 
L 1005.920578 592.306071 
L 1007.263538 607.835357 
L 1008.606498 615.6 
L 1009.949458 615.6 
L 1011.292419 607.283768 
L 1012.635379 590.651305 
L 1013.978339 565.702611 
L 1015.3213 552.085356 
L 1016.66426 542.406246 
L 1018.00722 536.66528 
L 1019.350181 494.367067 
L 1020.693141 464.75614 
L 1022.036101 440.586707 
L 1023.379061 406.423425 
L 1024.722022 398.388624 
L 1026.064982 356.800155 
L 1027.407942 343.657117 
L 1028.750903 354.109807 
L 1030.093863 367.414311 
L 1031.436823 363.922957 
L 1032.779783 351.02904 
L 1034.122744 328.930441 
L 1035.465704 345.962807 
L 1036.808664 348.214449 
L 1038.151625 369.014692 
L 1039.494585 396.686696 
L 1040.837545 395.108129 
L 1042.180505 419.844348 
L 1043.523466 419.770277 
L 1044.866426 399.735618 
L 1046.209386 411.379808 
L 1047.552347 428.488417 
L 1048.895307 451.061444 
L 1050.238267 478.90101 
L 1051.581227 504.166856 
L 1052.924188 511.992452 
L 1054.267148 507.292335 
L 1055.610108 499.109893 
L 1056.953069 492.645328 
L 1058.296029 507.4564 
L 1059.638989 525.059456 
L 1060.981949 541.077845 
L 1062.32491 529.210969 
L 1063.66787 518.346941 
L 1065.01083 509.597541 
L 1066.353791 502.098055 
L 1067.696751 495.848483 
L 1069.039711 510.382515 
L 1070.382671 514.702079 
L 1071.725632 526.87597 
L 1073.068592 541.703989 
L 1074.411552 543.745167 
L 1077.097473 551.511566 
L 1078.440433 550.658585 
L 1079.783394 542.442828 
L 1081.126354 541.652335 
L 1082.469314 549.151821 
L 1083.812274 541.08711 
L 1085.155235 517.458201 
L 1086.498195 498.765647 
L 1087.841155 485.009448 
L 1089.184116 485.194484 
L 1091.870036 443.266491 
L 1093.212996 430.567238 
L 1094.555957 421.862392 
L 1095.898917 433.036339 
L 1097.241877 425.591911 
L 1098.584838 419.636383 
L 1099.927798 416.100993 
L 1101.270758 431.498809 
L 1102.613718 445.329279 
L 1103.956679 457.592403 
L 1105.299639 442.37272 
L 1106.642599 448.677471 
L 1107.98556 459.500962 
L 1109.32852 441.415846 
L 1110.67148 439.835292 
L 1112.01444 438.874912 
L 1113.357401 426.103931 
L 1114.700361 407.420926 
L 1116.043321 424.050644 
L 1117.386282 428.462097 
L 1118.729242 423.367356 
L 1120.072202 408.766421 
L 1121.415162 416.019388 
L 1122.758123 411.814137 
L 1124.101083 396.38342 
L 1125.444043 406.547017 
L 1126.787004 420.556494 
L 1128.129964 426.288925 
L 1129.472924 436.551415 
L 1130.815884 450.341192 
L 1132.158845 446.136768 
L 1133.501805 454.956065 
L 1134.844765 468.662633 
L 1136.187726 487.225661 
L 1137.530686 496.195631 
L 1138.873646 514.660967 
L 1141.559567 567.242304 
L 1142.902527 576.053212 
L 1144.245487 578.971314 
L 1145.588448 598.21763 
L 1146.931408 608.789078 
L 1148.274368 599.303042 
L 1149.617329 569.759522 
L 1150.960289 543.637878 
L 1152.303249 520.968922 
L 1153.646209 501.752654 
L 1154.98917 485.989074 
L 1156.33213 462.674577 
L 1157.67509 442.159249 
L 1159.018051 424.44309 
L 1160.361011 413.229375 
L 1161.703971 408.518104 
L 1163.046931 392.563612 
L 1164.389892 392.168104 
L 1165.732852 407.487385 
L 1167.075812 433.609029 
L 1168.418773 444.661793 
L 1169.761733 439.57517 
L 1171.104693 439.133457 
L 1172.447653 454.340259 
L 1173.790614 474.845489 
L 1175.133574 473.334913 
L 1176.476534 451.965797 
L 1177.819495 398.491439 
L 1179.162455 385.313584 
L 1180.505415 374.560783 
L 1181.848375 366.077232 
L 1183.191336 351.503355 
L 1184.534296 332.059857 
L 1185.877256 308.817244 
L 1187.220217 310.757694 
L 1188.563177 303.276542 
L 1189.906137 291.343274 
L 1191.249097 297.342218 
L 1192.592058 315.41283 
L 1193.935018 343.417609 
L 1195.277978 360.663126 
L 1196.620939 373.625369 
L 1197.963899 384.000353 
L 1199.306859 369.996798 
L 1200.649819 381.503794 
L 1201.99278 428.306607 
L 1203.33574 438.939939 
L 1204.6787 448.008453 
L 1206.021661 450.542666 
L 1207.364621 451.472486 
L 1208.707581 450.797912 
L 1210.050542 462.90315 
L 1211.393502 453.825547 
L 1212.736462 442.760653 
L 1214.079422 428.012453 
L 1215.422383 426.589246 
L 1216.765343 413.252483 
L 1218.108303 362.963918 
L 1219.451264 297.422374 
L 1220.794224 300.665381 
L 1222.137184 310.228593 
L 1223.480144 270.271697 
L 1224.823105 263.164454 
L 1226.166065 262.728464 
L 1227.509025 268.963725 
L 1228.851986 281.870239 
L 1230.194946 301.448005 
L 1231.537906 327.697024 
L 1232.880866 360.617294 
L 1234.223827 411.710175 
L 1235.566787 480.975666 
L 1236.909747 484.37624 
L 1238.252708 483.493894 
L 1239.595668 486.04219 
L 1240.938628 467.688067 
L 1242.281588 454.609926 
L 1243.624549 446.807767 
L 1244.967509 442.587579 
L 1246.310469 411.267603 
L 1251.68231 307.429428 
L 1253.025271 293.482279 
L 1254.368231 272.092521 
L 1257.054152 311.617901 
L 1258.397112 333.869353 
L 1259.740072 345.936642 
L 1261.083032 349.513777 
L 1262.425993 370.833072 
L 1263.768953 373.619961 
L 1265.111913 366.775712 
L 1267.797834 384.022382 
L 1269.140794 384.647003 
L 1270.483755 389.314796 
L 1271.826715 402.66667 
L 1273.169675 406.413464 
L 1274.512635 399.471323 
L 1275.855596 394.044871 
L 1277.198556 390.134107 
L 1278.541516 392.188478 
L 1279.884477 403.837379 
L 1281.227437 419.599928 
L 1282.570397 422.340008 
L 1283.913357 428.382035 
L 1285.256318 428.050648 
L 1289.285199 440.979214 
L 1289.285199 440.979214 
" clip-path="url(#p48d8ee262f)" style="fill: none; stroke: #add8e6; stroke-linecap: square"/>
   </g>
   <g id="line2d_26">
    <path d="M 214.916968 459.081266 
L 216.259928 458.9746 
L 220.288809 469.902388 
L 221.631769 475.450028 
L 222.974729 477.193435 
L 224.31769 482.253894 
L 225.66065 483.17758 
L 227.00361 482.102536 
L 228.34657 482.357859 
L 229.689531 483.474507 
L 232.375451 477.159011 
L 235.061372 469.794351 
L 236.404332 471.312639 
L 237.747292 468.037095 
L 239.090253 472.035061 
L 241.776173 472.978436 
L 243.119134 473.571003 
L 244.462094 470.127042 
L 245.805054 467.280814 
L 247.148014 465.03232 
L 248.490975 461.99131 
L 249.833935 461.519884 
L 251.176895 465.980609 
L 252.519856 465.262124 
L 253.862816 461.699745 
L 255.205776 464.242377 
L 256.548736 462.445262 
L 257.891697 461.436547 
L 259.234657 461.254144 
L 261.920578 465.564121 
L 263.263538 472.937246 
L 267.292419 486.163921 
L 268.635379 489.585656 
L 269.978339 492.381312 
L 271.3213 494.550888 
L 272.66426 496.094386 
L 274.00722 497.011804 
L 275.350181 497.303143 
L 276.693141 496.968404 
L 278.036101 496.007585 
L 279.379061 494.420687 
L 282.064982 490.023277 
L 283.407942 486.925741 
L 284.750903 482.915104 
L 286.093863 477.991364 
L 287.436823 472.154522 
L 288.779783 468.967131 
L 290.122744 468.429189 
L 291.465704 456.752599 
L 292.808664 458.917704 
L 294.151625 457.444353 
L 295.494585 458.199078 
L 296.837545 462.252971 
L 298.180505 462.891654 
L 299.523466 461.95851 
L 300.866426 460.692584 
L 302.209386 459.992441 
L 303.552347 459.85808 
L 304.895307 460.289502 
L 306.238267 461.286707 
L 307.581227 465.678213 
L 308.924188 464.923781 
L 310.267148 463.761213 
L 311.610108 464.134869 
L 312.953069 463.705137 
L 314.296029 464.625117 
L 315.638989 462.691958 
L 316.981949 460.406732 
L 318.32491 460.512804 
L 319.66787 457.557558 
L 321.01083 454.189671 
L 322.353791 454.01128 
L 323.696751 454.470995 
L 325.039711 453.065864 
L 326.382671 456.486271 
L 327.725632 455.217668 
L 329.068592 456.540688 
L 330.411552 452.539014 
L 331.754513 453.169697 
L 333.097473 450.68601 
L 334.440433 451.238163 
L 335.783394 451.070178 
L 337.126354 451.271358 
L 338.469314 451.673717 
L 339.812274 452.233195 
L 341.155235 452.94979 
L 342.498195 453.823504 
L 343.841155 454.854336 
L 345.184116 456.042286 
L 347.870036 458.889539 
L 350.555957 462.365265 
L 353.241877 466.5042 
L 355.927798 471.410556 
L 357.270758 474.151516 
L 358.613718 473.728954 
L 359.956679 472.559381 
L 361.299639 480.910601 
L 362.642599 470.795228 
L 363.98556 472.331482 
L 365.32852 473.385767 
L 366.67148 476.062267 
L 368.01444 475.71067 
L 369.357401 477.592106 
L 370.700361 483.486287 
L 372.043321 487.426912 
L 373.386282 489.41398 
L 374.729242 489.447493 
L 376.072202 487.527449 
L 377.415162 486.024243 
L 378.758123 482.717031 
L 380.101083 484.8366 
L 382.787004 482.492382 
L 384.129964 481.106491 
L 385.472924 481.687836 
L 386.815884 481.875763 
L 388.158845 481.670273 
L 389.501805 480.127517 
L 390.844765 483.935705 
L 392.187726 484.661086 
L 393.530686 487.945051 
L 394.873646 489.637537 
L 396.216606 489.377566 
L 397.559567 493.203272 
L 398.902527 490.626162 
L 400.245487 494.661018 
L 401.588448 494.960934 
L 402.931408 498.56922 
L 404.274368 498.579366 
L 405.617329 498.747351 
L 409.646209 498.791413 
L 412.33213 499.011721 
L 415.018051 499.408276 
L 417.703971 499.981078 
L 420.389892 500.730126 
L 421.732852 501.170742 
L 423.075812 502.35049 
L 424.418773 504.269369 
L 425.761733 506.927379 
L 427.104693 509.023991 
L 428.447653 509.386497 
L 429.790614 510.967343 
L 431.133574 513.766528 
L 432.476534 524.269108 
L 433.819495 522.715727 
L 435.162455 521.693425 
L 436.505415 518.761309 
L 437.848375 513.87258 
L 439.191336 514.39522 
L 440.534296 513.126499 
L 441.877256 512.44656 
L 443.220217 512.428841 
L 444.563177 513.073343 
L 445.906137 514.380065 
L 447.249097 515.181138 
L 448.592058 518.290727 
L 449.935018 514.899391 
L 451.277978 517.493916 
L 452.620939 518.986147 
L 453.963899 519.376086 
L 455.306859 518.518941 
L 456.649819 520.268078 
L 457.99278 524.623497 
L 459.33574 531.326545 
L 460.6787 530.078811 
L 462.021661 529.217377 
L 463.364621 525.652241 
L 464.707581 524.676924 
L 466.050542 524.417563 
L 467.393502 526.083432 
L 468.736462 528.907257 
L 470.079422 523.412615 
L 471.422383 521.049718 
L 472.765343 519.805044 
L 474.108303 516.592322 
L 480.823105 515.250858 
L 487.537906 514.116286 
L 488.880866 513.914199 
L 490.223827 513.451573 
L 491.566787 512.728409 
L 492.909747 512.524016 
L 494.252708 512.16356 
L 495.595668 511.647039 
L 496.938628 512.274984 
L 499.624549 511.634754 
L 500.967509 511.393848 
L 502.310469 511.283258 
L 503.65343 512.774716 
L 504.99639 515.373224 
L 506.33935 516.128794 
L 507.68231 519.534095 
L 509.025271 521.27792 
L 510.368231 520.46559 
L 511.711191 521.063345 
L 513.054152 519.734998 
L 514.397112 516.480549 
L 515.740072 511.299997 
L 517.083032 512.451586 
L 518.425993 512.217343 
L 519.768953 515.669606 
L 523.797834 511.551847 
L 525.140794 512.231843 
L 526.483755 510.618035 
L 527.826715 506.710422 
L 529.169675 505.592852 
L 530.512635 506.160694 
L 531.855596 508.510619 
L 533.198556 509.693013 
L 534.541516 510.256002 
L 535.884477 508.900377 
L 537.227437 504.127054 
L 538.570397 506.940321 
L 539.913357 508.854606 
L 541.256318 511.91478 
L 542.599278 510.840916 
L 543.942238 512.591961 
L 545.285199 504.63762 
L 546.628159 500.728739 
L 549.314079 500.904389 
L 552 500.690005 
L 554.685921 500.085587 
L 557.371841 499.091136 
L 558.714801 498.447647 
L 560.057762 497.975465 
L 561.400722 497.674588 
L 562.743682 496.765707 
L 564.086643 495.699112 
L 565.429603 494.474803 
L 566.772563 493.092781 
L 568.115523 494.472867 
L 569.458484 494.797957 
L 570.801444 494.06805 
L 572.144404 491.846204 
L 573.487365 491.167001 
L 574.830325 492.336579 
L 576.173285 489.699385 
L 577.516245 486.049559 
L 578.859206 484.389124 
L 580.202166 487.273726 
L 581.545126 489.398487 
L 582.888087 493.002761 
L 584.231047 498.086548 
L 585.574007 504.649847 
L 586.916968 503.59351 
L 588.259928 502.014153 
L 589.602888 500.260435 
L 590.945848 499.363945 
L 592.288809 500.910609 
L 593.631769 504.900427 
L 594.974729 504.00703 
L 596.31769 505.550517 
L 597.66065 509.530889 
L 599.00361 511.505232 
L 600.34657 512.332745 
L 601.689531 510.397305 
L 603.032491 506.754369 
L 604.375451 505.159399 
L 607.061372 512.464162 
L 608.404332 508.92133 
L 609.747292 507.913615 
L 611.090253 506.712285 
L 612.433213 506.643698 
L 613.776173 503.632186 
L 615.119134 508.139686 
L 616.462094 509.008082 
L 617.805054 506.237375 
L 619.148014 503.970532 
L 620.490975 502.207553 
L 621.833935 500.948438 
L 623.176895 500.193188 
L 624.519856 499.941803 
L 625.862816 500.194281 
L 628.548736 501.7962 
L 631.234657 503.620121 
L 632.577617 504.46354 
L 633.920578 505.710688 
L 635.263538 507.361565 
L 636.606498 509.416172 
L 637.949458 502.534138 
L 639.292419 497.760384 
L 640.635379 495.09491 
L 641.978339 493.403744 
L 643.3213 493.558727 
L 644.66426 489.500783 
L 646.00722 492.192668 
L 647.350181 496.199047 
L 648.693141 492.410394 
L 650.036101 491.379235 
L 651.379061 489.996093 
L 652.722022 487.847617 
L 654.064982 484.933807 
L 655.407942 481.254663 
L 656.750903 476.810186 
L 658.093863 479.186759 
L 659.436823 470.536176 
L 660.779783 471.477289 
L 662.122744 469.207554 
L 663.465704 463.72697 
L 664.808664 468.024672 
L 666.151625 469.021591 
L 668.837545 464.488863 
L 670.180505 460.409193 
L 671.523466 458.637221 
L 674.209386 463.448617 
L 675.552347 460.233057 
L 676.895307 460.146035 
L 678.238267 462.263472 
L 679.581227 458.652119 
L 680.924188 457.559498 
L 682.267148 460.009673 
L 683.610108 464.230778 
L 684.953069 467.395246 
L 686.296029 469.861474 
L 687.638989 471.629462 
L 688.981949 472.699211 
L 690.32491 473.556905 
L 691.66787 474.202545 
L 693.01083 474.636131 
L 694.353791 474.857662 
L 695.696751 474.867139 
L 697.039711 474.664562 
L 698.382671 474.664562 
L 699.725632 468.393119 
L 701.068592 462.749565 
L 703.754513 453.121243 
L 705.097473 448.911595 
L 706.440433 445.104957 
L 707.783394 452.554862 
L 709.126354 458.016615 
L 710.469314 461.490217 
L 711.812274 466.667067 
L 713.155235 464.902933 
L 714.498195 467.51331 
L 715.841155 465.216422 
L 717.184116 457.151578 
L 718.527076 445.175977 
L 719.870036 445.040377 
L 721.212996 440.188479 
L 722.555957 442.868916 
L 723.898917 445.234404 
L 725.241877 447.28494 
L 726.584838 449.020527 
L 727.927798 448.782949 
L 729.270758 457.851122 
L 730.613718 456.881409 
L 731.956679 458.137113 
L 733.299639 462.237616 
L 734.642599 461.25918 
L 735.98556 459.515272 
L 737.32852 458.339536 
L 738.67148 457.008271 
L 740.01444 458.640233 
L 741.357401 460.693035 
L 742.700361 460.607991 
L 744.043321 461.351963 
L 745.386282 459.119182 
L 746.729242 453.885783 
L 748.072202 452.234379 
L 749.415162 455.154905 
L 750.758123 453.742155 
L 752.101083 451.097892 
L 753.444043 451.157618 
L 754.787004 451.521306 
L 756.129964 452.188954 
L 757.472924 453.160564 
L 758.815884 454.436134 
L 760.158845 455.529481 
L 761.501805 456.440603 
L 762.844765 457.1695 
L 764.187726 457.716173 
L 765.530686 458.080622 
L 766.873646 458.262846 
L 768.216606 458.262846 
L 769.559567 463.617533 
L 770.902527 467.562504 
L 772.245487 470.097757 
L 773.588448 472.116724 
L 774.931408 473.619403 
L 776.274368 474.605795 
L 777.617329 475.0759 
L 780.303249 469.227229 
L 781.646209 466.803644 
L 782.98917 466.413319 
L 784.33213 464.122543 
L 785.67509 465.850794 
L 787.018051 472.559118 
L 788.361011 488.092156 
L 789.703971 486.506464 
L 791.046931 491.278359 
L 792.389892 481.128563 
L 793.732852 475.786187 
L 795.075812 475.251229 
L 796.418773 479.52369 
L 797.761733 477.666805 
L 801.790614 477.859202 
L 803.133574 478.302041 
L 804.476534 479.045171 
L 805.819495 479.365055 
L 807.162455 480.590859 
L 809.848375 485.001471 
L 811.191336 485.262912 
L 812.534296 486.303873 
L 813.877256 483.880809 
L 815.220217 487.348178 
L 816.563177 492.832004 
L 817.906137 494.543442 
L 819.249097 496.519968 
L 820.592058 497.606472 
L 821.935018 496.381402 
L 823.277978 492.893374 
L 824.620939 491.240948 
L 825.963899 491.424124 
L 827.306859 490.679261 
L 828.649819 489.006358 
L 829.99278 486.405416 
L 831.33574 482.876433 
L 832.6787 478.419412 
L 834.021661 473.034351 
L 835.364621 466.72125 
L 836.707581 459.480109 
L 842.079422 426.857804 
L 843.422383 420.508728 
L 844.765343 415.952551 
L 846.108303 413.189271 
L 847.451264 412.218889 
L 848.794224 412.443867 
L 850.137184 412.337396 
L 851.480144 411.899476 
L 852.823105 406.843202 
L 854.166065 408.41538 
L 855.509025 407.847596 
L 856.851986 408.512883 
L 858.194946 408.012512 
L 859.537906 406.752587 
L 860.880866 407.041414 
L 862.223827 413.453826 
L 863.566787 416.320573 
L 864.909747 415.641654 
L 866.252708 411.417069 
L 867.595668 413.055308 
L 868.938628 410.091711 
L 870.281588 408.497092 
L 871.624549 410.381761 
L 872.967509 411.825483 
L 874.310469 412.828257 
L 875.65343 413.35075 
L 876.99639 411.564831 
L 878.33935 407.470498 
L 879.68231 404.571584 
L 881.025271 403.838926 
L 882.368231 405.034248 
L 883.711191 404.114193 
L 885.054152 405.068904 
L 886.397112 405.022144 
L 887.740072 402.898224 
L 889.083032 399.284402 
L 890.425993 400.089714 
L 891.768953 400.697006 
L 894.454874 404.503593 
L 897.140794 403.030215 
L 899.826715 402.012832 
L 902.512635 401.451442 
L 903.855596 401.341746 
L 905.198556 401.346047 
L 906.541516 401.464348 
L 907.884477 401.696647 
L 910.570397 402.50324 
L 911.913357 403.077535 
L 913.256318 400.410697 
L 914.599278 394.502726 
L 915.942238 385.353623 
L 917.285199 372.963387 
L 918.628159 373.836518 
L 919.971119 374.482345 
L 921.314079 374.900868 
L 922.65704 378.800568 
L 924 378.928409 
L 925.34296 378.569672 
L 926.685921 379.626656 
L 928.028881 373.859222 
L 929.371841 373.488314 
L 930.714801 372.474097 
L 932.057762 372.449285 
L 933.400722 372.104313 
L 934.743682 371.43918 
L 936.086643 370.453886 
L 937.429603 368.689421 
L 938.772563 364.245409 
L 940.115523 364.241831 
L 941.458484 357.13751 
L 942.801444 352.058717 
L 944.144404 349.005453 
L 945.487365 347.283566 
L 946.830325 347.488899 
L 948.173285 349.621451 
L 949.516245 350.07411 
L 950.859206 348.068779 
L 952.202166 343.49218 
L 953.545126 344.90296 
L 954.888087 343.249524 
L 956.231047 341.154113 
L 957.574007 340.132062 
L 958.916968 336.297214 
L 960.259928 329.306489 
L 962.945848 321.786924 
L 964.288809 318.203243 
L 965.631769 317.20509 
L 966.974729 318.792466 
L 968.31769 321.17353 
L 969.66065 324.348283 
L 971.00361 328.316723 
L 972.34657 333.078852 
L 973.689531 338.634669 
L 975.032491 344.984174 
L 976.375451 352.127367 
L 977.718412 360.064248 
L 979.061372 368.794817 
L 981.747292 388.637019 
L 984.433213 411.768464 
L 987.119134 433.109634 
L 988.462094 434.366075 
L 989.805054 435.955204 
L 991.148014 437.877018 
L 992.490975 432.967138 
L 993.833935 428.595916 
L 995.176895 426.707038 
L 996.519856 421.350158 
L 997.862816 427.655429 
L 999.205776 423.287671 
L 1000.548736 420.7015 
L 1001.891697 423.037593 
L 1003.234657 424.605888 
L 1004.577617 425.406384 
L 1005.920578 425.43908 
L 1007.263538 423.509361 
L 1008.606498 427.886841 
L 1009.949458 425.840116 
L 1011.292419 433.014411 
L 1012.635379 437.186953 
L 1013.978339 438.357743 
L 1015.3213 438.812012 
L 1016.66426 437.709495 
L 1018.00722 435.050194 
L 1019.350181 437.993609 
L 1020.693141 442.462121 
L 1022.036101 448.569006 
L 1023.379061 450.587533 
L 1024.722022 453.579155 
L 1026.064982 453.036099 
L 1027.407942 455.685283 
L 1028.750903 463.050085 
L 1030.093863 468.298996 
L 1031.436823 474.995318 
L 1032.779783 479.463851 
L 1034.122744 480.6946 
L 1035.465704 479.747931 
L 1036.808664 477.240847 
L 1038.151625 475.221755 
L 1039.494585 473.491104 
L 1040.837545 472.048895 
L 1042.180505 470.895128 
L 1043.523466 470.029803 
L 1044.866426 469.452919 
L 1046.209386 469.164478 
L 1048.895307 469.164478 
L 1050.238267 467.696802 
L 1051.581227 464.76145 
L 1052.924188 460.358423 
L 1054.267148 460.076039 
L 1055.610108 463.9143 
L 1056.953069 466.368395 
L 1058.296029 462.904246 
L 1059.638989 459.958895 
L 1060.981949 457.532343 
L 1062.32491 467.047728 
L 1063.66787 469.113956 
L 1065.01083 469.782889 
L 1066.353791 473.268451 
L 1067.696751 470.178474 
L 1069.039711 477.951388 
L 1070.382671 478.984069 
L 1071.725632 479.035818 
L 1073.068592 477.603783 
L 1074.411552 478.498674 
L 1075.754513 481.720489 
L 1077.097473 487.223565 
L 1078.440433 489.296169 
L 1079.783394 492.29773 
L 1081.126354 490.664336 
L 1082.469314 483.590563 
L 1083.812274 480.500127 
L 1085.155235 482.343057 
L 1086.498195 480.445681 
L 1087.841155 480.80935 
L 1089.184116 480.527822 
L 1090.527076 478.4926 
L 1091.870036 475.329546 
L 1093.212996 471.03866 
L 1094.555957 468.954446 
L 1095.898917 469.179657 
L 1097.241877 465.069971 
L 1098.584838 462.229899 
L 1099.927798 463.864242 
L 1101.270758 463.612101 
L 1102.613718 460.020749 
L 1103.956679 459.870123 
L 1105.299639 461.356853 
L 1106.642599 463.863936 
L 1107.98556 465.883029 
L 1109.32852 467.606569 
L 1110.67148 469.034557 
L 1112.01444 470.166992 
L 1113.357401 471.003876 
L 1114.700361 471.545207 
L 1116.043321 471.790986 
L 1118.729242 471.684329 
L 1120.072202 473.08801 
L 1121.415162 472.582497 
L 1122.758123 470.167789 
L 1124.101083 466.341231 
L 1125.444043 461.102823 
L 1126.787004 459.957374 
L 1128.129964 462.904886 
L 1129.472924 462.675167 
L 1130.815884 461.6567 
L 1132.158845 457.771433 
L 1133.501805 459.900943 
L 1134.844765 463.66547 
L 1136.187726 464.317942 
L 1137.530686 465.729969 
L 1138.873646 464.271876 
L 1140.216606 468.191335 
L 1141.559567 466.877917 
L 1142.902527 465.374492 
L 1144.245487 464.666728 
L 1145.588448 464.754624 
L 1146.931408 465.638181 
L 1148.274368 464.916555 
L 1149.617329 460.659787 
L 1150.960289 449.586349 
L 1152.303249 451.371266 
L 1153.646209 450.66662 
L 1154.98917 447.472412 
L 1156.33213 450.975818 
L 1157.67509 449.486902 
L 1159.018051 438.782169 
L 1160.361011 437.504173 
L 1161.703971 437.041359 
L 1163.046931 438.540532 
L 1164.389892 437.529516 
L 1165.732852 438.413332 
L 1167.075812 437.36347 
L 1168.418773 440.782676 
L 1169.761733 439.836361 
L 1173.790614 433.601348 
L 1175.133574 434.667517 
L 1176.476534 433.808144 
L 1177.819495 432.27501 
L 1179.162455 430.075225 
L 1180.505415 427.20879 
L 1181.848375 423.675704 
L 1183.191336 419.475966 
L 1184.534296 414.609578 
L 1185.877256 409.07654 
L 1187.220217 402.87685 
L 1188.563177 396.01051 
L 1189.906137 388.477519 
L 1191.249097 380.127719 
L 1192.592058 370.96111 
L 1195.277978 381.442842 
L 1196.620939 373.790108 
L 1197.963899 372.254637 
L 1199.306859 373.334556 
L 1200.649819 374.641381 
L 1201.99278 376.175113 
L 1203.33574 377.081149 
L 1204.6787 377.359491 
L 1207.364621 384.637427 
L 1208.707581 387.919944 
L 1210.050542 387.919944 
L 1211.393502 390.404096 
L 1214.079422 378.844163 
L 1216.765343 368.171137 
L 1218.108303 369.079574 
L 1219.451264 367.689258 
L 1220.794224 374.359854 
L 1222.137184 375.689099 
L 1223.480144 375.697759 
L 1224.823105 374.385835 
L 1226.166065 374.530465 
L 1227.509025 376.56548 
L 1228.851986 380.490881 
L 1230.194946 379.042672 
L 1231.537906 380.456666 
L 1234.223827 381.119165 
L 1235.566787 380.478545 
L 1236.909747 381.329628 
L 1238.252708 377.099695 
L 1239.595668 376.17298 
L 1240.938628 374.390919 
L 1242.281588 377.911281 
L 1243.624549 378.368019 
L 1244.967509 374.573973 
L 1246.310469 371.536563 
L 1247.65343 369.25579 
L 1248.99639 367.731654 
L 1250.33935 366.964154 
L 1251.68231 366.953291 
L 1253.025271 367.699065 
L 1254.368231 369.201476 
L 1255.711191 371.460523 
L 1257.054152 374.476207 
L 1258.397112 378.248528 
L 1259.740072 382.777485 
L 1261.083032 391.582997 
L 1262.425993 404.665064 
L 1262.425993 404.665064 
" clip-path="url(#p48d8ee262f)" style="fill: none; stroke: #008000; stroke-width: 5; stroke-linecap: square"/>
   </g>
   <g id="line2d_27">
    <path d="M 1236.909747 640.8 
L 1236.909747 86.4 
" clip-path="url(#p48d8ee262f)" style="fill: none; stroke-dasharray: 6.4,1.6,1,1.6; stroke-dashoffset: 0; stroke: #ff0000; stroke-opacity: 0.9"/>
   </g>
   <g id="line2d_28">
    <path d="M 997.862816 640.8 
L 997.862816 86.4 
" clip-path="url(#p48d8ee262f)" style="fill: none; stroke-dasharray: 6.4,1.6,1,1.6; stroke-dashoffset: 0; stroke: #ff0000; stroke-opacity: 0.9"/>
   </g>
   <g id="line2d_29">
    <path d="M 719.870036 640.8 
L 719.870036 86.4 
" clip-path="url(#p48d8ee262f)" style="fill: none; stroke-dasharray: 6.4,1.6,1,1.6; stroke-dashoffset: 0; stroke: #ff0000; stroke-opacity: 0.9"/>
   </g>
   <g id="line2d_30">
    <path d="M 456.649819 640.8 
L 456.649819 86.4 
" clip-path="url(#p48d8ee262f)" style="fill: none; stroke-dasharray: 6.4,1.6,1,1.6; stroke-dashoffset: 0; stroke: #ff0000; stroke-opacity: 0.9"/>
   </g>
   <g id="patch_3">
    <path d="M 180 640.8 
L 180 86.4 
" style="fill: none; stroke: #000000; stroke-width: 0.8; stroke-linejoin: miter; stroke-linecap: square"/>
   </g>
   <g id="patch_4">
    <path d="M 1296 640.8 
L 1296 86.4 
" style="fill: none; stroke: #000000; stroke-width: 0.8; stroke-linejoin: miter; stroke-linecap: square"/>
   </g>
   <g id="patch_5">
    <path d="M 180 640.8 
L 1296 640.8 
" style="fill: none; stroke: #000000; stroke-width: 0.8; stroke-linejoin: miter; stroke-linecap: square"/>
   </g>
   <g id="patch_6">
    <path d="M 180 86.4 
L 1296 86.4 
" style="fill: none; stroke: #000000; stroke-width: 0.8; stroke-linejoin: miter; stroke-linecap: square"/>
   </g>
   <g id="text_26">
    <!-- 2022-11-01 -->
    <g style="fill: #ff0000; opacity: 0.9" transform="translate(1178.794122 84.320312) scale(0.1 -0.1)">
     <defs>
      <path id="DejaVuSans-2d" d="M 313 2009 
L 1997 2009 
L 1997 1497 
L 313 1497 
L 313 2009 
z
" transform="scale(0.015625)"/>
     </defs>
     <use xlink:href="#DejaVuSans-32"/>
     <use xlink:href="#DejaVuSans-30" x="63.623047"/>
     <use xlink:href="#DejaVuSans-32" x="127.246094"/>
     <use xlink:href="#DejaVuSans-32" x="190.869141"/>
     <use xlink:href="#DejaVuSans-2d" x="254.492188"/>
     <use xlink:href="#DejaVuSans-31" x="290.576172"/>
     <use xlink:href="#DejaVuSans-31" x="354.199219"/>
     <use xlink:href="#DejaVuSans-2d" x="417.822266"/>
     <use xlink:href="#DejaVuSans-30" x="453.90625"/>
     <use xlink:href="#DejaVuSans-31" x="517.529297"/>
    </g>
   </g>
   <g id="text_27">
    <!-- 2019-06-05 -->
    <g style="fill: #ff0000; opacity: 0.9" transform="translate(939.747191 84.320312) scale(0.1 -0.1)">
     <use xlink:href="#DejaVuSans-32"/>
     <use xlink:href="#DejaVuSans-30" x="63.623047"/>
     <use xlink:href="#DejaVuSans-31" x="127.246094"/>
     <use xlink:href="#DejaVuSans-39" x="190.869141"/>
     <use xlink:href="#DejaVuSans-2d" x="254.492188"/>
     <use xlink:href="#DejaVuSans-30" x="290.576172"/>
     <use xlink:href="#DejaVuSans-36" x="354.199219"/>
     <use xlink:href="#DejaVuSans-2d" x="417.822266"/>
     <use xlink:href="#DejaVuSans-30" x="453.90625"/>
     <use xlink:href="#DejaVuSans-35" x="517.529297"/>
    </g>
   </g>
   <g id="text_28">
    <!-- 2015-06-18 -->
    <g style="fill: #ff0000; opacity: 0.9" transform="translate(661.754411 84.320312) scale(0.1 -0.1)">
     <use xlink:href="#DejaVuSans-32"/>
     <use xlink:href="#DejaVuSans-30" x="63.623047"/>
     <use xlink:href="#DejaVuSans-31" x="127.246094"/>
     <use xlink:href="#DejaVuSans-35" x="190.869141"/>
     <use xlink:href="#DejaVuSans-2d" x="254.492188"/>
     <use xlink:href="#DejaVuSans-30" x="290.576172"/>
     <use xlink:href="#DejaVuSans-36" x="354.199219"/>
     <use xlink:href="#DejaVuSans-2d" x="417.822266"/>
     <use xlink:href="#DejaVuSans-31" x="453.90625"/>
     <use xlink:href="#DejaVuSans-38" x="517.529297"/>
    </g>
   </g>
   <g id="text_29">
    <!-- 2011-09-15 -->
    <g style="fill: #ff0000; opacity: 0.9" transform="translate(398.534194 84.320312) scale(0.1 -0.1)">
     <use xlink:href="#DejaVuSans-32"/>
     <use xlink:href="#DejaVuSans-30" x="63.623047"/>
     <use xlink:href="#DejaVuSans-31" x="127.246094"/>
     <use xlink:href="#DejaVuSans-31" x="190.869141"/>
     <use xlink:href="#DejaVuSans-2d" x="254.492188"/>
     <use xlink:href="#DejaVuSans-30" x="290.576172"/>
     <use xlink:href="#DejaVuSans-39" x="354.199219"/>
     <use xlink:href="#DejaVuSans-2d" x="417.822266"/>
     <use xlink:href="#DejaVuSans-31" x="453.90625"/>
     <use xlink:href="#DejaVuSans-35" x="517.529297"/>
    </g>
   </g>
   <g id="legend_1">
    <g id="patch_7">
     <path d="M 189.1 154.044688 
L 392.405781 154.044688 
Q 395.005781 154.044688 395.005781 151.444687 
L 395.005781 95.5 
Q 395.005781 92.9 392.405781 92.9 
L 189.1 92.9 
Q 186.5 92.9 186.5 95.5 
L 186.5 151.444687 
Q 186.5 154.044688 189.1 154.044688 
z
" style="fill: #ffffff; opacity: 0.8; stroke: #cccccc; stroke-linejoin: miter"/>
    </g>
    <g id="line2d_31">
     <path d="M 191.7 103.427969 
L 204.7 103.427969 
L 217.7 103.427969 
" style="fill: none; stroke: #add8e6; stroke-linecap: square"/>
    </g>
    <g id="text_30">
     <!-- 12-Week Rolling Average -->
     <g transform="translate(228.1 107.977969) scale(0.13 -0.13)">
      <defs>
       <path id="DejaVuSans-57" d="M 213 4666 
L 850 4666 
L 1831 722 
L 2809 4666 
L 3519 4666 
L 4500 722 
L 5478 4666 
L 6119 4666 
L 4947 0 
L 4153 0 
L 3169 4050 
L 2175 0 
L 1381 0 
L 213 4666 
z
" transform="scale(0.015625)"/>
       <path id="DejaVuSans-65" d="M 3597 1894 
L 3597 1613 
L 953 1613 
Q 991 1019 1311 708 
Q 1631 397 2203 397 
Q 2534 397 2845 478 
Q 3156 559 3463 722 
L 3463 178 
Q 3153 47 2828 -22 
Q 2503 -91 2169 -91 
Q 1331 -91 842 396 
Q 353 884 353 1716 
Q 353 2575 817 3079 
Q 1281 3584 2069 3584 
Q 2775 3584 3186 3129 
Q 3597 2675 3597 1894 
z
M 3022 2063 
Q 3016 2534 2758 2815 
Q 2500 3097 2075 3097 
Q 1594 3097 1305 2825 
Q 1016 2553 972 2059 
L 3022 2063 
z
" transform="scale(0.015625)"/>
       <path id="DejaVuSans-6b" d="M 581 4863 
L 1159 4863 
L 1159 1991 
L 2875 3500 
L 3609 3500 
L 1753 1863 
L 3688 0 
L 2938 0 
L 1159 1709 
L 1159 0 
L 581 0 
L 581 4863 
z
" transform="scale(0.015625)"/>
       <path id="DejaVuSans-20" transform="scale(0.015625)"/>
       <path id="DejaVuSans-52" d="M 2841 2188 
Q 3044 2119 3236 1894 
Q 3428 1669 3622 1275 
L 4263 0 
L 3584 0 
L 2988 1197 
Q 2756 1666 2539 1819 
Q 2322 1972 1947 1972 
L 1259 1972 
L 1259 0 
L 628 0 
L 628 4666 
L 2053 4666 
Q 2853 4666 3247 4331 
Q 3641 3997 3641 3322 
Q 3641 2881 3436 2590 
Q 3231 2300 2841 2188 
z
M 1259 4147 
L 1259 2491 
L 2053 2491 
Q 2509 2491 2742 2702 
Q 2975 2913 2975 3322 
Q 2975 3731 2742 3939 
Q 2509 4147 2053 4147 
L 1259 4147 
z
" transform="scale(0.015625)"/>
       <path id="DejaVuSans-6f" d="M 1959 3097 
Q 1497 3097 1228 2736 
Q 959 2375 959 1747 
Q 959 1119 1226 758 
Q 1494 397 1959 397 
Q 2419 397 2687 759 
Q 2956 1122 2956 1747 
Q 2956 2369 2687 2733 
Q 2419 3097 1959 3097 
z
M 1959 3584 
Q 2709 3584 3137 3096 
Q 3566 2609 3566 1747 
Q 3566 888 3137 398 
Q 2709 -91 1959 -91 
Q 1206 -91 779 398 
Q 353 888 353 1747 
Q 353 2609 779 3096 
Q 1206 3584 1959 3584 
z
" transform="scale(0.015625)"/>
       <path id="DejaVuSans-6c" d="M 603 4863 
L 1178 4863 
L 1178 0 
L 603 0 
L 603 4863 
z
" transform="scale(0.015625)"/>
       <path id="DejaVuSans-69" d="M 603 3500 
L 1178 3500 
L 1178 0 
L 603 0 
L 603 3500 
z
M 603 4863 
L 1178 4863 
L 1178 4134 
L 603 4134 
L 603 4863 
z
" transform="scale(0.015625)"/>
       <path id="DejaVuSans-6e" d="M 3513 2113 
L 3513 0 
L 2938 0 
L 2938 2094 
Q 2938 2591 2744 2837 
Q 2550 3084 2163 3084 
Q 1697 3084 1428 2787 
Q 1159 2491 1159 1978 
L 1159 0 
L 581 0 
L 581 3500 
L 1159 3500 
L 1159 2956 
Q 1366 3272 1645 3428 
Q 1925 3584 2291 3584 
Q 2894 3584 3203 3211 
Q 3513 2838 3513 2113 
z
" transform="scale(0.015625)"/>
       <path id="DejaVuSans-67" d="M 2906 1791 
Q 2906 2416 2648 2759 
Q 2391 3103 1925 3103 
Q 1463 3103 1205 2759 
Q 947 2416 947 1791 
Q 947 1169 1205 825 
Q 1463 481 1925 481 
Q 2391 481 2648 825 
Q 2906 1169 2906 1791 
z
M 3481 434 
Q 3481 -459 3084 -895 
Q 2688 -1331 1869 -1331 
Q 1566 -1331 1297 -1286 
Q 1028 -1241 775 -1147 
L 775 -588 
Q 1028 -725 1275 -790 
Q 1522 -856 1778 -856 
Q 2344 -856 2625 -561 
Q 2906 -266 2906 331 
L 2906 616 
Q 2728 306 2450 153 
Q 2172 0 1784 0 
Q 1141 0 747 490 
Q 353 981 353 1791 
Q 353 2603 747 3093 
Q 1141 3584 1784 3584 
Q 2172 3584 2450 3431 
Q 2728 3278 2906 2969 
L 2906 3500 
L 3481 3500 
L 3481 434 
z
" transform="scale(0.015625)"/>
       <path id="DejaVuSans-41" d="M 2188 4044 
L 1331 1722 
L 3047 1722 
L 2188 4044 
z
M 1831 4666 
L 2547 4666 
L 4325 0 
L 3669 0 
L 3244 1197 
L 1141 1197 
L 716 0 
L 50 0 
L 1831 4666 
z
" transform="scale(0.015625)"/>
       <path id="DejaVuSans-76" d="M 191 3500 
L 800 3500 
L 1894 563 
L 2988 3500 
L 3597 3500 
L 2284 0 
L 1503 0 
L 191 3500 
z
" transform="scale(0.015625)"/>
       <path id="DejaVuSans-72" d="M 2631 2963 
Q 2534 3019 2420 3045 
Q 2306 3072 2169 3072 
Q 1681 3072 1420 2755 
Q 1159 2438 1159 1844 
L 1159 0 
L 581 0 
L 581 3500 
L 1159 3500 
L 1159 2956 
Q 1341 3275 1631 3429 
Q 1922 3584 2338 3584 
Q 2397 3584 2469 3576 
Q 2541 3569 2628 3553 
L 2631 2963 
z
" transform="scale(0.015625)"/>
       <path id="DejaVuSans-61" d="M 2194 1759 
Q 1497 1759 1228 1600 
Q 959 1441 959 1056 
Q 959 750 1161 570 
Q 1363 391 1709 391 
Q 2188 391 2477 730 
Q 2766 1069 2766 1631 
L 2766 1759 
L 2194 1759 
z
M 3341 1997 
L 3341 0 
L 2766 0 
L 2766 531 
Q 2569 213 2275 61 
Q 1981 -91 1556 -91 
Q 1019 -91 701 211 
Q 384 513 384 1019 
Q 384 1609 779 1909 
Q 1175 2209 1959 2209 
L 2766 2209 
L 2766 2266 
Q 2766 2663 2505 2880 
Q 2244 3097 1772 3097 
Q 1472 3097 1187 3025 
Q 903 2953 641 2809 
L 641 3341 
Q 956 3463 1253 3523 
Q 1550 3584 1831 3584 
Q 2591 3584 2966 3190 
Q 3341 2797 3341 1997 
z
" transform="scale(0.015625)"/>
      </defs>
      <use xlink:href="#DejaVuSans-31"/>
      <use xlink:href="#DejaVuSans-32" x="63.623047"/>
      <use xlink:href="#DejaVuSans-2d" x="127.246094"/>
      <use xlink:href="#DejaVuSans-57" x="159.330078"/>
      <use xlink:href="#DejaVuSans-65" x="252.332031"/>
      <use xlink:href="#DejaVuSans-65" x="313.855469"/>
      <use xlink:href="#DejaVuSans-6b" x="375.378906"/>
      <use xlink:href="#DejaVuSans-20" x="433.289062"/>
      <use xlink:href="#DejaVuSans-52" x="465.076172"/>
      <use xlink:href="#DejaVuSans-6f" x="530.058594"/>
      <use xlink:href="#DejaVuSans-6c" x="591.240234"/>
      <use xlink:href="#DejaVuSans-6c" x="619.023438"/>
      <use xlink:href="#DejaVuSans-69" x="646.806641"/>
      <use xlink:href="#DejaVuSans-6e" x="674.589844"/>
      <use xlink:href="#DejaVuSans-67" x="737.96875"/>
      <use xlink:href="#DejaVuSans-20" x="801.445312"/>
      <use xlink:href="#DejaVuSans-41" x="833.232422"/>
      <use xlink:href="#DejaVuSans-76" x="895.765625"/>
      <use xlink:href="#DejaVuSans-65" x="954.945312"/>
      <use xlink:href="#DejaVuSans-72" x="1016.46875"/>
      <use xlink:href="#DejaVuSans-61" x="1057.582031"/>
      <use xlink:href="#DejaVuSans-67" x="1118.861328"/>
      <use xlink:href="#DejaVuSans-65" x="1182.337891"/>
     </g>
    </g>
    <g id="line2d_32">
     <path d="M 191.7 122.509531 
L 204.7 122.509531 
L 217.7 122.509531 
" style="fill: none; stroke: #008000; stroke-width: 5; stroke-linecap: square"/>
    </g>
    <g id="text_31">
     <!-- 52-Week Rolling Average -->
     <g transform="translate(228.1 127.059531) scale(0.13 -0.13)">
      <use xlink:href="#DejaVuSans-35"/>
      <use xlink:href="#DejaVuSans-32" x="63.623047"/>
      <use xlink:href="#DejaVuSans-2d" x="127.246094"/>
      <use xlink:href="#DejaVuSans-57" x="159.330078"/>
      <use xlink:href="#DejaVuSans-65" x="252.332031"/>
      <use xlink:href="#DejaVuSans-65" x="313.855469"/>
      <use xlink:href="#DejaVuSans-6b" x="375.378906"/>
      <use xlink:href="#DejaVuSans-20" x="433.289062"/>
      <use xlink:href="#DejaVuSans-52" x="465.076172"/>
      <use xlink:href="#DejaVuSans-6f" x="530.058594"/>
      <use xlink:href="#DejaVuSans-6c" x="591.240234"/>
      <use xlink:href="#DejaVuSans-6c" x="619.023438"/>
      <use xlink:href="#DejaVuSans-69" x="646.806641"/>
      <use xlink:href="#DejaVuSans-6e" x="674.589844"/>
      <use xlink:href="#DejaVuSans-67" x="737.96875"/>
      <use xlink:href="#DejaVuSans-20" x="801.445312"/>
      <use xlink:href="#DejaVuSans-41" x="833.232422"/>
      <use xlink:href="#DejaVuSans-76" x="895.765625"/>
      <use xlink:href="#DejaVuSans-65" x="954.945312"/>
      <use xlink:href="#DejaVuSans-72" x="1016.46875"/>
      <use xlink:href="#DejaVuSans-61" x="1057.582031"/>
      <use xlink:href="#DejaVuSans-67" x="1118.861328"/>
      <use xlink:href="#DejaVuSans-65" x="1182.337891"/>
     </g>
    </g>
    <g id="line2d_33">
     <path d="M 191.7 141.591094 
L 204.7 141.591094 
L 217.7 141.591094 
" style="fill: none; stroke-dasharray: 6.4,1.6,1,1.6; stroke-dashoffset: 0; stroke: #ff0000; stroke-opacity: 0.9"/>
    </g>
    <g id="text_32">
     <!-- General Election -->
     <g transform="translate(228.1 146.141094) scale(0.13 -0.13)">
      <defs>
       <path id="DejaVuSans-47" d="M 3809 666 
L 3809 1919 
L 2778 1919 
L 2778 2438 
L 4434 2438 
L 4434 434 
Q 4069 175 3628 42 
Q 3188 -91 2688 -91 
Q 1594 -91 976 548 
Q 359 1188 359 2328 
Q 359 3472 976 4111 
Q 1594 4750 2688 4750 
Q 3144 4750 3555 4637 
Q 3966 4525 4313 4306 
L 4313 3634 
Q 3963 3931 3569 4081 
Q 3175 4231 2741 4231 
Q 1884 4231 1454 3753 
Q 1025 3275 1025 2328 
Q 1025 1384 1454 906 
Q 1884 428 2741 428 
Q 3075 428 3337 486 
Q 3600 544 3809 666 
z
" transform="scale(0.015625)"/>
       <path id="DejaVuSans-45" d="M 628 4666 
L 3578 4666 
L 3578 4134 
L 1259 4134 
L 1259 2753 
L 3481 2753 
L 3481 2222 
L 1259 2222 
L 1259 531 
L 3634 531 
L 3634 0 
L 628 0 
L 628 4666 
z
" transform="scale(0.015625)"/>
       <path id="DejaVuSans-63" d="M 3122 3366 
L 3122 2828 
Q 2878 2963 2633 3030 
Q 2388 3097 2138 3097 
Q 1578 3097 1268 2742 
Q 959 2388 959 1747 
Q 959 1106 1268 751 
Q 1578 397 2138 397 
Q 2388 397 2633 464 
Q 2878 531 3122 666 
L 3122 134 
Q 2881 22 2623 -34 
Q 2366 -91 2075 -91 
Q 1284 -91 818 406 
Q 353 903 353 1747 
Q 353 2603 823 3093 
Q 1294 3584 2113 3584 
Q 2378 3584 2631 3529 
Q 2884 3475 3122 3366 
z
" transform="scale(0.015625)"/>
       <path id="DejaVuSans-74" d="M 1172 4494 
L 1172 3500 
L 2356 3500 
L 2356 3053 
L 1172 3053 
L 1172 1153 
Q 1172 725 1289 603 
Q 1406 481 1766 481 
L 2356 481 
L 2356 0 
L 1766 0 
Q 1100 0 847 248 
Q 594 497 594 1153 
L 594 3053 
L 172 3053 
L 172 3500 
L 594 3500 
L 594 4494 
L 1172 4494 
z
" transform="scale(0.015625)"/>
      </defs>
      <use xlink:href="#DejaVuSans-47"/>
      <use xlink:href="#DejaVuSans-65" x="77.490234"/>
      <use xlink:href="#DejaVuSans-6e" x="139.013672"/>
      <use xlink:href="#DejaVuSans-65" x="202.392578"/>
      <use xlink:href="#DejaVuSans-72" x="263.916016"/>
      <use xlink:href="#DejaVuSans-61" x="305.029297"/>
      <use xlink:href="#DejaVuSans-6c" x="366.308594"/>
      <use xlink:href="#DejaVuSans-20" x="394.091797"/>
      <use xlink:href="#DejaVuSans-45" x="425.878906"/>
      <use xlink:href="#DejaVuSans-6c" x="489.0625"/>
      <use xlink:href="#DejaVuSans-65" x="516.845703"/>
      <use xlink:href="#DejaVuSans-63" x="578.369141"/>
      <use xlink:href="#DejaVuSans-74" x="633.349609"/>
      <use xlink:href="#DejaVuSans-69" x="672.558594"/>
      <use xlink:href="#DejaVuSans-6f" x="700.341797"/>
      <use xlink:href="#DejaVuSans-6e" x="761.523438"/>
     </g>
    </g>
   </g>
  </g>
 </g>
 <defs>
  <clipPath id="p48d8ee262f">
   <rect x="180" y="86.4" width="1116" height="554.4"/>
  </clipPath>
 </defs>
</svg>
