<?xml version="1.0" encoding="utf-8" standalone="no"?>
<!DOCTYPE svg PUBLIC "-//W3C//DTD SVG 1.1//EN"
  "http://www.w3.org/Graphics/SVG/1.1/DTD/svg11.dtd">
<svg xmlns:xlink="http://www.w3.org/1999/xlink" width="1440pt" height="720pt" viewBox="0 0 1440 720" xmlns="http://www.w3.org/2000/svg" version="1.1">
 <metadata>
  <rdf:RDF xmlns:dc="http://purl.org/dc/elements/1.1/" xmlns:cc="http://creativecommons.org/ns#" xmlns:rdf="http://www.w3.org/1999/02/22-rdf-syntax-ns#">
   <cc:Work>
    <dc:type rdf:resource="http://purl.org/dc/dcmitype/StillImage"/>
    <dc:date>2023-12-08T18:16:02.308699</dc:date>
    <dc:format>image/svg+xml</dc:format>
    <dc:creator>
     <cc:Agent>
      <dc:title>Matplotlib v3.8.1, https://matplotlib.org/</dc:title>
     </cc:Agent>
    </dc:creator>
   </cc:Work>
  </rdf:RDF>
 </metadata>
 <defs>
  <style type="text/css">*{stroke-linejoin: round; stroke-linecap: butt}</style>
 </defs>
 <g id="figure_1">
  <g id="patch_1">
   <path d="M 0 720 
L 1440 720 
L 1440 0 
L 0 0 
z
" style="fill: #ffffff"/>
  </g>
  <g id="axes_1">
   <g id="patch_2">
    <path d="M 91.89 651.861068 
L 1429.2 651.861068 
L 1429.2 20.88 
L 91.89 20.88 
z
" style="fill: #ffffff"/>
   </g>
   <g id="matplotlib.axis_1">
    <g id="xtick_1">
     <g id="line2d_1">
      <defs>
       <path id="mf28d1de275" d="M 0 0 
L 0 3.5 
" style="stroke: #000000; stroke-width: 0.8"/>
      </defs>
      <g>
       <use xlink:href="#mf28d1de275" x="112.810614" y="651.861068" style="stroke: #000000; stroke-width: 0.8"/>
      </g>
     </g>
     <g id="text_1">
      <!-- 2008 -->
      <g transform="translate(98.717092 705.598617) rotate(-45) scale(0.2 -0.2)">
       <defs>
        <path id="DejaVuSans-32" d="M 1228 531 
L 3431 531 
L 3431 0 
L 469 0 
L 469 531 
Q 828 903 1448 1529 
Q 2069 2156 2228 2338 
Q 2531 2678 2651 2914 
Q 2772 3150 2772 3378 
Q 2772 3750 2511 3984 
Q 2250 4219 1831 4219 
Q 1534 4219 1204 4116 
Q 875 4013 500 3803 
L 500 4441 
Q 881 4594 1212 4672 
Q 1544 4750 1819 4750 
Q 2544 4750 2975 4387 
Q 3406 4025 3406 3419 
Q 3406 3131 3298 2873 
Q 3191 2616 2906 2266 
Q 2828 2175 2409 1742 
Q 1991 1309 1228 531 
z
" transform="scale(0.015625)"/>
        <path id="DejaVuSans-30" d="M 2034 4250 
Q 1547 4250 1301 3770 
Q 1056 3291 1056 2328 
Q 1056 1369 1301 889 
Q 1547 409 2034 409 
Q 2525 409 2770 889 
Q 3016 1369 3016 2328 
Q 3016 3291 2770 3770 
Q 2525 4250 2034 4250 
z
M 2034 4750 
Q 2819 4750 3233 4129 
Q 3647 3509 3647 2328 
Q 3647 1150 3233 529 
Q 2819 -91 2034 -91 
Q 1250 -91 836 529 
Q 422 1150 422 2328 
Q 422 3509 836 4129 
Q 1250 4750 2034 4750 
z
" transform="scale(0.015625)"/>
        <path id="DejaVuSans-38" d="M 2034 2216 
Q 1584 2216 1326 1975 
Q 1069 1734 1069 1313 
Q 1069 891 1326 650 
Q 1584 409 2034 409 
Q 2484 409 2743 651 
Q 3003 894 3003 1313 
Q 3003 1734 2745 1975 
Q 2488 2216 2034 2216 
z
M 1403 2484 
Q 997 2584 770 2862 
Q 544 3141 544 3541 
Q 544 4100 942 4425 
Q 1341 4750 2034 4750 
Q 2731 4750 3128 4425 
Q 3525 4100 3525 3541 
Q 3525 3141 3298 2862 
Q 3072 2584 2669 2484 
Q 3125 2378 3379 2068 
Q 3634 1759 3634 1313 
Q 3634 634 3220 271 
Q 2806 -91 2034 -91 
Q 1263 -91 848 271 
Q 434 634 434 1313 
Q 434 1759 690 2068 
Q 947 2378 1403 2484 
z
M 1172 3481 
Q 1172 3119 1398 2916 
Q 1625 2713 2034 2713 
Q 2441 2713 2670 2916 
Q 2900 3119 2900 3481 
Q 2900 3844 2670 4047 
Q 2441 4250 2034 4250 
Q 1625 4250 1398 4047 
Q 1172 3844 1172 3481 
z
" transform="scale(0.015625)"/>
       </defs>
       <use xlink:href="#DejaVuSans-32"/>
       <use xlink:href="#DejaVuSans-30" x="63.623047"/>
       <use xlink:href="#DejaVuSans-30" x="127.246094"/>
       <use xlink:href="#DejaVuSans-38" x="190.869141"/>
      </g>
     </g>
    </g>
    <g id="xtick_2">
     <g id="line2d_2">
      <g>
       <use xlink:href="#mf28d1de275" x="196.493069" y="651.861068" style="stroke: #000000; stroke-width: 0.8"/>
      </g>
     </g>
     <g id="text_2">
      <!-- 2009 -->
      <g transform="translate(182.399547 705.598617) rotate(-45) scale(0.2 -0.2)">
       <defs>
        <path id="DejaVuSans-39" d="M 703 97 
L 703 672 
Q 941 559 1184 500 
Q 1428 441 1663 441 
Q 2288 441 2617 861 
Q 2947 1281 2994 2138 
Q 2813 1869 2534 1725 
Q 2256 1581 1919 1581 
Q 1219 1581 811 2004 
Q 403 2428 403 3163 
Q 403 3881 828 4315 
Q 1253 4750 1959 4750 
Q 2769 4750 3195 4129 
Q 3622 3509 3622 2328 
Q 3622 1225 3098 567 
Q 2575 -91 1691 -91 
Q 1453 -91 1209 -44 
Q 966 3 703 97 
z
M 1959 2075 
Q 2384 2075 2632 2365 
Q 2881 2656 2881 3163 
Q 2881 3666 2632 3958 
Q 2384 4250 1959 4250 
Q 1534 4250 1286 3958 
Q 1038 3666 1038 3163 
Q 1038 2656 1286 2365 
Q 1534 2075 1959 2075 
z
" transform="scale(0.015625)"/>
       </defs>
       <use xlink:href="#DejaVuSans-32"/>
       <use xlink:href="#DejaVuSans-30" x="63.623047"/>
       <use xlink:href="#DejaVuSans-30" x="127.246094"/>
       <use xlink:href="#DejaVuSans-39" x="190.869141"/>
      </g>
     </g>
    </g>
    <g id="xtick_3">
     <g id="line2d_3">
      <g>
       <use xlink:href="#mf28d1de275" x="280.175523" y="651.861068" style="stroke: #000000; stroke-width: 0.8"/>
      </g>
     </g>
     <g id="text_3">
      <!-- 2010 -->
      <g transform="translate(266.082001 705.598617) rotate(-45) scale(0.2 -0.2)">
       <defs>
        <path id="DejaVuSans-31" d="M 794 531 
L 1825 531 
L 1825 4091 
L 703 3866 
L 703 4441 
L 1819 4666 
L 2450 4666 
L 2450 531 
L 3481 531 
L 3481 0 
L 794 0 
L 794 531 
z
" transform="scale(0.015625)"/>
       </defs>
       <use xlink:href="#DejaVuSans-32"/>
       <use xlink:href="#DejaVuSans-30" x="63.623047"/>
       <use xlink:href="#DejaVuSans-31" x="127.246094"/>
       <use xlink:href="#DejaVuSans-30" x="190.869141"/>
      </g>
     </g>
    </g>
    <g id="xtick_4">
     <g id="line2d_4">
      <g>
       <use xlink:href="#mf28d1de275" x="363.857978" y="651.861068" style="stroke: #000000; stroke-width: 0.8"/>
      </g>
     </g>
     <g id="text_4">
      <!-- 2011 -->
      <g transform="translate(349.764456 705.598617) rotate(-45) scale(0.2 -0.2)">
       <use xlink:href="#DejaVuSans-32"/>
       <use xlink:href="#DejaVuSans-30" x="63.623047"/>
       <use xlink:href="#DejaVuSans-31" x="127.246094"/>
       <use xlink:href="#DejaVuSans-31" x="190.869141"/>
      </g>
     </g>
    </g>
    <g id="xtick_5">
     <g id="line2d_5">
      <g>
       <use xlink:href="#mf28d1de275" x="447.540433" y="651.861068" style="stroke: #000000; stroke-width: 0.8"/>
      </g>
     </g>
     <g id="text_5">
      <!-- 2012 -->
      <g transform="translate(433.446911 705.598617) rotate(-45) scale(0.2 -0.2)">
       <use xlink:href="#DejaVuSans-32"/>
       <use xlink:href="#DejaVuSans-30" x="63.623047"/>
       <use xlink:href="#DejaVuSans-31" x="127.246094"/>
       <use xlink:href="#DejaVuSans-32" x="190.869141"/>
      </g>
     </g>
    </g>
    <g id="xtick_6">
     <g id="line2d_6">
      <g>
       <use xlink:href="#mf28d1de275" x="532.832166" y="651.861068" style="stroke: #000000; stroke-width: 0.8"/>
      </g>
     </g>
     <g id="text_6">
      <!-- 2013 -->
      <g transform="translate(518.738644 705.598617) rotate(-45) scale(0.2 -0.2)">
       <defs>
        <path id="DejaVuSans-33" d="M 2597 2516 
Q 3050 2419 3304 2112 
Q 3559 1806 3559 1356 
Q 3559 666 3084 287 
Q 2609 -91 1734 -91 
Q 1441 -91 1130 -33 
Q 819 25 488 141 
L 488 750 
Q 750 597 1062 519 
Q 1375 441 1716 441 
Q 2309 441 2620 675 
Q 2931 909 2931 1356 
Q 2931 1769 2642 2001 
Q 2353 2234 1838 2234 
L 1294 2234 
L 1294 2753 
L 1863 2753 
Q 2328 2753 2575 2939 
Q 2822 3125 2822 3475 
Q 2822 3834 2567 4026 
Q 2313 4219 1838 4219 
Q 1578 4219 1281 4162 
Q 984 4106 628 3988 
L 628 4550 
Q 988 4650 1302 4700 
Q 1616 4750 1894 4750 
Q 2613 4750 3031 4423 
Q 3450 4097 3450 3541 
Q 3450 3153 3228 2886 
Q 3006 2619 2597 2516 
z
" transform="scale(0.015625)"/>
       </defs>
       <use xlink:href="#DejaVuSans-32"/>
       <use xlink:href="#DejaVuSans-30" x="63.623047"/>
       <use xlink:href="#DejaVuSans-31" x="127.246094"/>
       <use xlink:href="#DejaVuSans-33" x="190.869141"/>
      </g>
     </g>
    </g>
    <g id="xtick_7">
     <g id="line2d_7">
      <g>
       <use xlink:href="#mf28d1de275" x="616.514621" y="651.861068" style="stroke: #000000; stroke-width: 0.8"/>
      </g>
     </g>
     <g id="text_7">
      <!-- 2014 -->
      <g transform="translate(602.421099 705.598617) rotate(-45) scale(0.2 -0.2)">
       <defs>
        <path id="DejaVuSans-34" d="M 2419 4116 
L 825 1625 
L 2419 1625 
L 2419 4116 
z
M 2253 4666 
L 3047 4666 
L 3047 1625 
L 3713 1625 
L 3713 1100 
L 3047 1100 
L 3047 0 
L 2419 0 
L 2419 1100 
L 313 1100 
L 313 1709 
L 2253 4666 
z
" transform="scale(0.015625)"/>
       </defs>
       <use xlink:href="#DejaVuSans-32"/>
       <use xlink:href="#DejaVuSans-30" x="63.623047"/>
       <use xlink:href="#DejaVuSans-31" x="127.246094"/>
       <use xlink:href="#DejaVuSans-34" x="190.869141"/>
      </g>
     </g>
    </g>
    <g id="xtick_8">
     <g id="line2d_8">
      <g>
       <use xlink:href="#mf28d1de275" x="700.197076" y="651.861068" style="stroke: #000000; stroke-width: 0.8"/>
      </g>
     </g>
     <g id="text_8">
      <!-- 2015 -->
      <g transform="translate(686.103554 705.598617) rotate(-45) scale(0.2 -0.2)">
       <defs>
        <path id="DejaVuSans-35" d="M 691 4666 
L 3169 4666 
L 3169 4134 
L 1269 4134 
L 1269 2991 
Q 1406 3038 1543 3061 
Q 1681 3084 1819 3084 
Q 2600 3084 3056 2656 
Q 3513 2228 3513 1497 
Q 3513 744 3044 326 
Q 2575 -91 1722 -91 
Q 1428 -91 1123 -41 
Q 819 9 494 109 
L 494 744 
Q 775 591 1075 516 
Q 1375 441 1709 441 
Q 2250 441 2565 725 
Q 2881 1009 2881 1497 
Q 2881 1984 2565 2268 
Q 2250 2553 1709 2553 
Q 1456 2553 1204 2497 
Q 953 2441 691 2322 
L 691 4666 
z
" transform="scale(0.015625)"/>
       </defs>
       <use xlink:href="#DejaVuSans-32"/>
       <use xlink:href="#DejaVuSans-30" x="63.623047"/>
       <use xlink:href="#DejaVuSans-31" x="127.246094"/>
       <use xlink:href="#DejaVuSans-35" x="190.869141"/>
      </g>
     </g>
    </g>
    <g id="xtick_9">
     <g id="line2d_9">
      <g>
       <use xlink:href="#mf28d1de275" x="783.879531" y="651.861068" style="stroke: #000000; stroke-width: 0.8"/>
      </g>
     </g>
     <g id="text_9">
      <!-- 2016 -->
      <g transform="translate(769.786009 705.598617) rotate(-45) scale(0.2 -0.2)">
       <defs>
        <path id="DejaVuSans-36" d="M 2113 2584 
Q 1688 2584 1439 2293 
Q 1191 2003 1191 1497 
Q 1191 994 1439 701 
Q 1688 409 2113 409 
Q 2538 409 2786 701 
Q 3034 994 3034 1497 
Q 3034 2003 2786 2293 
Q 2538 2584 2113 2584 
z
M 3366 4563 
L 3366 3988 
Q 3128 4100 2886 4159 
Q 2644 4219 2406 4219 
Q 1781 4219 1451 3797 
Q 1122 3375 1075 2522 
Q 1259 2794 1537 2939 
Q 1816 3084 2150 3084 
Q 2853 3084 3261 2657 
Q 3669 2231 3669 1497 
Q 3669 778 3244 343 
Q 2819 -91 2113 -91 
Q 1303 -91 875 529 
Q 447 1150 447 2328 
Q 447 3434 972 4092 
Q 1497 4750 2381 4750 
Q 2619 4750 2861 4703 
Q 3103 4656 3366 4563 
z
" transform="scale(0.015625)"/>
       </defs>
       <use xlink:href="#DejaVuSans-32"/>
       <use xlink:href="#DejaVuSans-30" x="63.623047"/>
       <use xlink:href="#DejaVuSans-31" x="127.246094"/>
       <use xlink:href="#DejaVuSans-36" x="190.869141"/>
      </g>
     </g>
    </g>
    <g id="xtick_10">
     <g id="line2d_10">
      <g>
       <use xlink:href="#mf28d1de275" x="867.561986" y="651.861068" style="stroke: #000000; stroke-width: 0.8"/>
      </g>
     </g>
     <g id="text_10">
      <!-- 2017 -->
      <g transform="translate(853.468464 705.598617) rotate(-45) scale(0.2 -0.2)">
       <defs>
        <path id="DejaVuSans-37" d="M 525 4666 
L 3525 4666 
L 3525 4397 
L 1831 0 
L 1172 0 
L 2766 4134 
L 525 4134 
L 525 4666 
z
" transform="scale(0.015625)"/>
       </defs>
       <use xlink:href="#DejaVuSans-32"/>
       <use xlink:href="#DejaVuSans-30" x="63.623047"/>
       <use xlink:href="#DejaVuSans-31" x="127.246094"/>
       <use xlink:href="#DejaVuSans-37" x="190.869141"/>
      </g>
     </g>
    </g>
    <g id="xtick_11">
     <g id="line2d_11">
      <g>
       <use xlink:href="#mf28d1de275" x="952.853718" y="651.861068" style="stroke: #000000; stroke-width: 0.8"/>
      </g>
     </g>
     <g id="text_11">
      <!-- 2018 -->
      <g transform="translate(938.760196 705.598617) rotate(-45) scale(0.2 -0.2)">
       <use xlink:href="#DejaVuSans-32"/>
       <use xlink:href="#DejaVuSans-30" x="63.623047"/>
       <use xlink:href="#DejaVuSans-31" x="127.246094"/>
       <use xlink:href="#DejaVuSans-38" x="190.869141"/>
      </g>
     </g>
    </g>
    <g id="xtick_12">
     <g id="line2d_12">
      <g>
       <use xlink:href="#mf28d1de275" x="1036.536173" y="651.861068" style="stroke: #000000; stroke-width: 0.8"/>
      </g>
     </g>
     <g id="text_12">
      <!-- 2019 -->
      <g transform="translate(1022.442651 705.598617) rotate(-45) scale(0.2 -0.2)">
       <use xlink:href="#DejaVuSans-32"/>
       <use xlink:href="#DejaVuSans-30" x="63.623047"/>
       <use xlink:href="#DejaVuSans-31" x="127.246094"/>
       <use xlink:href="#DejaVuSans-39" x="190.869141"/>
      </g>
     </g>
    </g>
    <g id="xtick_13">
     <g id="line2d_13">
      <g>
       <use xlink:href="#mf28d1de275" x="1120.218628" y="651.861068" style="stroke: #000000; stroke-width: 0.8"/>
      </g>
     </g>
     <g id="text_13">
      <!-- 2020 -->
      <g transform="translate(1106.125106 705.598617) rotate(-45) scale(0.2 -0.2)">
       <use xlink:href="#DejaVuSans-32"/>
       <use xlink:href="#DejaVuSans-30" x="63.623047"/>
       <use xlink:href="#DejaVuSans-32" x="127.246094"/>
       <use xlink:href="#DejaVuSans-30" x="190.869141"/>
      </g>
     </g>
    </g>
    <g id="xtick_14">
     <g id="line2d_14">
      <g>
       <use xlink:href="#mf28d1de275" x="1203.901083" y="651.861068" style="stroke: #000000; stroke-width: 0.8"/>
      </g>
     </g>
     <g id="text_14">
      <!-- 2021 -->
      <g transform="translate(1189.807561 705.598617) rotate(-45) scale(0.2 -0.2)">
       <use xlink:href="#DejaVuSans-32"/>
       <use xlink:href="#DejaVuSans-30" x="63.623047"/>
       <use xlink:href="#DejaVuSans-32" x="127.246094"/>
       <use xlink:href="#DejaVuSans-31" x="190.869141"/>
      </g>
     </g>
    </g>
    <g id="xtick_15">
     <g id="line2d_15">
      <g>
       <use xlink:href="#mf28d1de275" x="1287.583538" y="651.861068" style="stroke: #000000; stroke-width: 0.8"/>
      </g>
     </g>
     <g id="text_15">
      <!-- 2022 -->
      <g transform="translate(1273.490016 705.598617) rotate(-45) scale(0.2 -0.2)">
       <use xlink:href="#DejaVuSans-32"/>
       <use xlink:href="#DejaVuSans-30" x="63.623047"/>
       <use xlink:href="#DejaVuSans-32" x="127.246094"/>
       <use xlink:href="#DejaVuSans-32" x="190.869141"/>
      </g>
     </g>
    </g>
    <g id="xtick_16">
     <g id="line2d_16">
      <g>
       <use xlink:href="#mf28d1de275" x="1371.265993" y="651.861068" style="stroke: #000000; stroke-width: 0.8"/>
      </g>
     </g>
     <g id="text_16">
      <!-- 2023 -->
      <g transform="translate(1357.172471 705.598617) rotate(-45) scale(0.2 -0.2)">
       <use xlink:href="#DejaVuSans-32"/>
       <use xlink:href="#DejaVuSans-30" x="63.623047"/>
       <use xlink:href="#DejaVuSans-32" x="127.246094"/>
       <use xlink:href="#DejaVuSans-33" x="190.869141"/>
      </g>
     </g>
    </g>
   </g>
   <g id="matplotlib.axis_2">
    <g id="ytick_1">
     <g id="line2d_17">
      <defs>
       <path id="mbd49683f41" d="M 0 0 
L -3.5 0 
" style="stroke: #000000; stroke-width: 0.8"/>
      </defs>
      <g>
       <use xlink:href="#mbd49683f41" x="91.89" y="623.180111" style="stroke: #000000; stroke-width: 0.8"/>
      </g>
     </g>
     <g id="text_17">
      <!-- 0.0 -->
      <g transform="translate(53.08375 630.778548) scale(0.2 -0.2)">
       <defs>
        <path id="DejaVuSans-2e" d="M 684 794 
L 1344 794 
L 1344 0 
L 684 0 
L 684 794 
z
" transform="scale(0.015625)"/>
       </defs>
       <use xlink:href="#DejaVuSans-30"/>
       <use xlink:href="#DejaVuSans-2e" x="63.623047"/>
       <use xlink:href="#DejaVuSans-30" x="95.410156"/>
      </g>
     </g>
    </g>
    <g id="ytick_2">
     <g id="line2d_18">
      <g>
       <use xlink:href="#mbd49683f41" x="91.89" y="543.645325" style="stroke: #000000; stroke-width: 0.8"/>
      </g>
     </g>
     <g id="text_18">
      <!-- 2.5 -->
      <g transform="translate(53.08375 551.243762) scale(0.2 -0.2)">
       <use xlink:href="#DejaVuSans-32"/>
       <use xlink:href="#DejaVuSans-2e" x="63.623047"/>
       <use xlink:href="#DejaVuSans-35" x="95.410156"/>
      </g>
     </g>
    </g>
    <g id="ytick_3">
     <g id="line2d_19">
      <g>
       <use xlink:href="#mbd49683f41" x="91.89" y="464.110539" style="stroke: #000000; stroke-width: 0.8"/>
      </g>
     </g>
     <g id="text_19">
      <!-- 5.0 -->
      <g transform="translate(53.08375 471.708977) scale(0.2 -0.2)">
       <use xlink:href="#DejaVuSans-35"/>
       <use xlink:href="#DejaVuSans-2e" x="63.623047"/>
       <use xlink:href="#DejaVuSans-30" x="95.410156"/>
      </g>
     </g>
    </g>
    <g id="ytick_4">
     <g id="line2d_20">
      <g>
       <use xlink:href="#mbd49683f41" x="91.89" y="384.575753" style="stroke: #000000; stroke-width: 0.8"/>
      </g>
     </g>
     <g id="text_20">
      <!-- 7.5 -->
      <g transform="translate(53.08375 392.174191) scale(0.2 -0.2)">
       <use xlink:href="#DejaVuSans-37"/>
       <use xlink:href="#DejaVuSans-2e" x="63.623047"/>
       <use xlink:href="#DejaVuSans-35" x="95.410156"/>
      </g>
     </g>
    </g>
    <g id="ytick_5">
     <g id="line2d_21">
      <g>
       <use xlink:href="#mbd49683f41" x="91.89" y="305.040968" style="stroke: #000000; stroke-width: 0.8"/>
      </g>
     </g>
     <g id="text_21">
      <!-- 10.0 -->
      <g transform="translate(40.35875 312.639405) scale(0.2 -0.2)">
       <use xlink:href="#DejaVuSans-31"/>
       <use xlink:href="#DejaVuSans-30" x="63.623047"/>
       <use xlink:href="#DejaVuSans-2e" x="127.246094"/>
       <use xlink:href="#DejaVuSans-30" x="159.033203"/>
      </g>
     </g>
    </g>
    <g id="ytick_6">
     <g id="line2d_22">
      <g>
       <use xlink:href="#mbd49683f41" x="91.89" y="225.506182" style="stroke: #000000; stroke-width: 0.8"/>
      </g>
     </g>
     <g id="text_22">
      <!-- 12.5 -->
      <g transform="translate(40.35875 233.104619) scale(0.2 -0.2)">
       <use xlink:href="#DejaVuSans-31"/>
       <use xlink:href="#DejaVuSans-32" x="63.623047"/>
       <use xlink:href="#DejaVuSans-2e" x="127.246094"/>
       <use xlink:href="#DejaVuSans-35" x="159.033203"/>
      </g>
     </g>
    </g>
    <g id="ytick_7">
     <g id="line2d_23">
      <g>
       <use xlink:href="#mbd49683f41" x="91.89" y="145.971396" style="stroke: #000000; stroke-width: 0.8"/>
      </g>
     </g>
     <g id="text_23">
      <!-- 15.0 -->
      <g transform="translate(40.35875 153.569834) scale(0.2 -0.2)">
       <use xlink:href="#DejaVuSans-31"/>
       <use xlink:href="#DejaVuSans-35" x="63.623047"/>
       <use xlink:href="#DejaVuSans-2e" x="127.246094"/>
       <use xlink:href="#DejaVuSans-30" x="159.033203"/>
      </g>
     </g>
    </g>
    <g id="ytick_8">
     <g id="line2d_24">
      <g>
       <use xlink:href="#mbd49683f41" x="91.89" y="66.43661" style="stroke: #000000; stroke-width: 0.8"/>
      </g>
     </g>
     <g id="text_24">
      <!-- 17.5 -->
      <g transform="translate(40.35875 74.035048) scale(0.2 -0.2)">
       <use xlink:href="#DejaVuSans-31"/>
       <use xlink:href="#DejaVuSans-37" x="63.623047"/>
       <use xlink:href="#DejaVuSans-2e" x="127.246094"/>
       <use xlink:href="#DejaVuSans-35" x="159.033203"/>
      </g>
     </g>
    </g>
    <g id="text_25">
     <!-- % -->
     <g transform="translate(10.857188 332.211159) scale(0.2 -0.2)">
      <defs>
       <path id="DejaVuSans-25" d="M 4653 2053 
Q 4381 2053 4226 1822 
Q 4072 1591 4072 1178 
Q 4072 772 4226 539 
Q 4381 306 4653 306 
Q 4919 306 5073 539 
Q 5228 772 5228 1178 
Q 5228 1588 5073 1820 
Q 4919 2053 4653 2053 
z
M 4653 2450 
Q 5147 2450 5437 2106 
Q 5728 1763 5728 1178 
Q 5728 594 5436 251 
Q 5144 -91 4653 -91 
Q 4153 -91 3862 251 
Q 3572 594 3572 1178 
Q 3572 1766 3864 2108 
Q 4156 2450 4653 2450 
z
M 1428 4353 
Q 1159 4353 1004 4120 
Q 850 3888 850 3481 
Q 850 3069 1003 2837 
Q 1156 2606 1428 2606 
Q 1700 2606 1854 2837 
Q 2009 3069 2009 3481 
Q 2009 3884 1853 4118 
Q 1697 4353 1428 4353 
z
M 4250 4750 
L 4750 4750 
L 1831 -91 
L 1331 -91 
L 4250 4750 
z
M 1428 4750 
Q 1922 4750 2215 4408 
Q 2509 4066 2509 3481 
Q 2509 2891 2217 2550 
Q 1925 2209 1428 2209 
Q 931 2209 642 2551 
Q 353 2894 353 3481 
Q 353 4063 643 4406 
Q 934 4750 1428 4750 
z
" transform="scale(0.015625)"/>
      </defs>
      <use xlink:href="#DejaVuSans-25"/>
     </g>
    </g>
   </g>
   <g id="line2d_25">
    <path d="M 101.545668 345.09031 
L 103.154946 335.251707 
L 104.764224 349.681455 
L 106.373502 375.813079 
L 107.98278 386.057202 
L 109.592058 407.378912 
L 111.201336 409.20197 
L 114.419892 440.202174 
L 116.02917 456.381691 
L 117.638448 466.703471 
L 119.247726 487.411711 
L 120.857004 503.202346 
L 122.466282 507.401936 
L 124.07556 500.01048 
L 125.684838 473.549812 
L 127.294116 487.712227 
L 130.512671 505.892378 
L 132.121949 502.41146 
L 133.731227 495.545767 
L 135.340505 486.894414 
L 136.949783 476.686519 
L 138.559061 458.404392 
L 140.168339 416.428906 
L 141.777617 397.79265 
L 143.386895 387.517015 
L 144.996173 393.080165 
L 146.605451 382.379187 
L 148.214729 366.931655 
L 149.824007 372.159782 
L 151.433285 377.767024 
L 153.042563 387.537563 
L 154.651841 399.872284 
L 156.261119 404.855732 
L 157.870397 419.600591 
L 159.479675 459.72599 
L 161.088953 484.872778 
L 162.698231 506.791026 
L 164.307509 526.525505 
L 165.916787 544.076216 
L 167.526065 559.443158 
L 169.135343 572.626331 
L 170.744621 576.974918 
L 172.353899 572.488918 
L 173.963177 576.530101 
L 175.572455 560.577676 
L 177.181733 559.75319 
L 178.791011 537.295045 
L 180.400289 503.747877 
L 182.009567 494.756051 
L 183.618845 480.122331 
L 185.228123 450.468666 
L 186.837401 424.935598 
L 188.446679 403.523129 
L 190.055957 392.882075 
L 191.665235 393.012437 
L 193.274513 370.818986 
L 194.883791 383.761331 
L 196.493069 376.204827 
L 198.102347 389.900906 
L 199.711625 414.304931 
L 201.320903 406.382173 
L 202.930181 407.545865 
L 204.539458 427.174062 
L 206.148736 432.596187 
L 207.758014 440.393827 
L 209.367292 454.74078 
L 210.97657 457.871628 
L 212.585848 465.519831 
L 214.195126 467.459553 
L 217.413682 438.6222 
L 219.02296 426.148762 
L 220.632238 444.032669 
L 222.241516 449.937816 
L 223.850794 455.415294 
L 225.460072 473.995133 
L 227.06935 489.095749 
L 228.678628 492.622456 
L 230.287906 502.340673 
L 231.897184 518.2504 
L 233.506462 521.638653 
L 235.11574 543.721497 
L 236.725018 562.991555 
L 238.334296 577.662732 
L 239.943574 569.888781 
L 241.552852 569.745034 
L 243.16213 565.680402 
L 244.771408 557.694883 
L 246.380686 545.788478 
L 247.989964 530.282732 
L 249.599242 511.177647 
L 251.20852 488.473221 
L 252.817798 462.169455 
L 254.427076 443.185719 
L 256.036354 431.522012 
L 257.645632 376.538439 
L 260.864188 369.562774 
L 262.473466 358.653305 
L 264.082744 356.01378 
L 265.692022 360.945313 
L 267.3013 356.986177 
L 268.910578 340.869183 
L 270.519856 336.166515 
L 272.129134 342.878173 
L 275.34769 357.786356 
L 276.956968 414.839317 
L 278.566245 413.382764 
L 280.175523 407.359015 
L 281.784801 419.175697 
L 283.394079 421.466881 
L 285.003357 414.931453 
L 286.612635 411.163164 
L 288.221913 425.764264 
L 289.831191 435.162571 
L 291.440469 429.047856 
L 293.049747 424.656956 
L 294.659025 421.989872 
L 296.268303 410.246832 
L 297.877581 408.977366 
L 299.486859 417.108464 
L 301.096137 394.643358 
L 302.705415 390.814341 
L 304.314693 384.425092 
L 305.923971 402.974877 
L 307.533249 407.473563 
L 309.142527 428.253435 
L 310.751805 457.100573 
L 312.361083 478.229597 
L 313.970361 490.812021 
L 315.579639 507.213768 
L 317.188917 521.066188 
L 318.798195 530.588969 
L 320.407473 561.199634 
L 322.016751 575.204655 
L 323.626029 593.800355 
L 325.235307 597.954785 
L 326.844585 614.323013 
L 328.453863 612.572756 
L 330.063141 611.228162 
L 331.672419 605.409752 
L 333.281697 595.946012 
L 334.890975 583.054253 
L 336.500253 566.734472 
L 338.109531 541.357622 
L 339.718809 518.841715 
L 341.328087 499.186752 
L 342.937365 439.041464 
L 344.546643 435.857237 
L 346.155921 421.963866 
L 347.765199 423.566171 
L 349.374477 417.030333 
L 350.983755 411.670739 
L 352.593032 412.99757 
L 354.20231 415.157752 
L 355.811588 418.151284 
L 357.420866 427.607215 
L 359.030144 431.607532 
L 360.639422 440.059338 
L 362.2487 472.180032 
L 363.857978 469.03314 
L 365.467256 470.220901 
L 367.076534 453.179634 
L 368.685812 441.543161 
L 370.29509 431.362936 
L 371.904368 417.821305 
L 373.513646 406.771341 
L 375.122924 383.247848 
L 376.732202 397.473311 
L 378.34148 407.853225 
L 379.950758 419.720089 
L 381.560036 443.108686 
L 383.169314 439.504101 
L 384.778592 441.336321 
L 386.38787 430.929419 
L 387.997148 451.274812 
L 389.606426 468.436611 
L 392.824982 511.647576 
L 394.43426 548.931934 
L 396.043538 551.279315 
L 397.652816 560.284224 
L 399.262094 560.707056 
L 400.871372 566.646903 
L 402.48065 578.103764 
L 404.089928 590.71562 
L 405.699206 618.517256 
L 407.308484 618.517256 
L 408.917762 622.713686 
L 410.52704 623.024636 
L 412.136318 623.180111 
L 418.57343 623.180111 
L 420.182708 616.766015 
L 421.791986 592.525089 
L 423.401264 576.936539 
L 425.010542 570.000366 
L 426.619819 560.349019 
L 428.229097 547.9825 
L 429.838375 527.308756 
L 431.447653 512.494357 
L 433.056931 479.674661 
L 434.666209 471.074272 
L 437.884765 442.377859 
L 439.494043 434.943702 
L 441.103321 445.79041 
L 442.712599 448.438776 
L 444.321877 447.036071 
L 445.931155 442.695187 
L 447.540433 430.483668 
L 449.149711 449.509297 
L 450.758989 454.288514 
L 452.368267 468.685961 
L 453.977545 451.700758 
L 455.586823 453.042932 
L 457.196101 466.826909 
L 458.805379 476.449635 
L 460.414657 481.342762 
L 462.023935 481.029518 
L 463.633213 471.362632 
L 465.242491 474.604841 
L 466.851769 486.446873 
L 468.461047 483.699047 
L 470.070325 479.859449 
L 471.679603 471.182614 
L 473.288881 480.918178 
L 474.898159 487.520558 
L 476.507437 472.038539 
L 478.116715 474.859238 
L 479.725993 481.996318 
L 481.335271 493.926549 
L 482.944549 510.649933 
L 484.553827 520.158387 
L 486.163105 531.693643 
L 487.772383 534.929646 
L 489.381661 547.685305 
L 490.990939 573.706083 
L 492.600217 588.51862 
L 494.209495 593.971515 
L 495.818773 607.690215 
L 497.428051 605.528459 
L 499.037329 605.884425 
L 500.646606 605.429883 
L 502.255884 604.164832 
L 503.865162 602.089272 
L 505.47444 577.340102 
L 507.083718 561.462927 
L 508.692996 554.457746 
L 510.302274 545.339286 
L 511.911552 541.365994 
L 513.52083 534.504537 
L 515.130108 525.698173 
L 516.739386 513.239698 
L 518.348664 514.247743 
L 519.957942 497.62502 
L 521.56722 488.81824 
L 523.176498 471.735823 
L 524.785776 468.240873 
L 526.395054 446.787783 
L 528.004332 452.252742 
L 529.61361 447.302013 
L 531.222888 444.761008 
L 532.832166 444.103566 
L 534.441444 438.386904 
L 536.050722 429.318227 
L 537.66 407.086316 
L 539.269278 404.475669 
L 540.878556 396.039574 
L 542.487834 406.701833 
L 544.097112 430.446159 
L 545.70639 467.272553 
L 547.315668 457.757595 
L 548.924946 464.93168 
L 550.534224 453.06164 
L 552.143502 433.639674 
L 553.75278 450.44433 
L 555.362058 457.880063 
L 556.971336 479.354453 
L 558.580614 488.619786 
L 560.189892 501.045761 
L 561.79917 470.148121 
L 563.408448 455.206404 
L 565.017726 456.220611 
L 566.627004 467.305222 
L 568.236282 473.748858 
L 569.84556 491.20082 
L 571.454838 516.72841 
L 573.064116 513.87837 
L 574.673394 528.246243 
L 576.282671 525.273549 
L 577.891949 532.849022 
L 579.501227 535.602962 
L 581.110505 571.187407 
L 582.719783 586.339102 
L 584.329061 579.950613 
L 585.938339 572.454688 
L 587.547617 563.851328 
L 589.156895 546.677735 
L 590.766173 533.653889 
L 592.375451 524.779791 
L 593.984729 506.915206 
L 595.594007 502.284871 
L 597.203285 504.365296 
L 598.812563 484.881285 
L 600.421841 455.906091 
L 602.031119 453.207541 
L 603.640397 456.07177 
L 606.858953 471.291855 
L 608.468231 486.063221 
L 610.077509 495.376422 
L 611.686787 499.231458 
L 613.296065 497.449431 
L 614.905343 489.60901 
L 616.514621 478.761904 
L 618.123899 493.679661 
L 619.733177 522.289026 
L 621.342455 503.840077 
L 622.951733 494.61517 
L 624.561011 495.330782 
L 627.779567 500.707131 
L 629.388845 495.618507 
L 630.998123 473.346673 
L 632.607401 480.44375 
L 634.216679 495.106331 
L 635.825957 498.248774 
L 637.435235 489.952492 
L 639.044513 472.740836 
L 640.653791 492.696531 
L 642.263069 494.011258 
L 643.872347 471.953882 
L 645.481625 453.549547 
L 647.090903 438.809466 
L 648.700181 435.704205 
L 650.309458 453.575585 
L 651.918736 459.190617 
L 653.528014 452.549303 
L 655.137292 456.209065 
L 656.74657 469.592142 
L 658.355848 490.17518 
L 659.965126 496.857551 
L 661.574404 508.941591 
L 663.183682 531.158435 
L 664.79296 548.897319 
L 666.402238 563.925824 
L 668.011516 577.353038 
L 669.620794 589.17896 
L 671.230072 599.403591 
L 672.83935 554.498264 
L 674.448628 521.655517 
L 676.057906 500.875349 
L 677.667184 473.424883 
L 679.276462 465.828693 
L 680.88574 443.725398 
L 682.495018 432.907133 
L 684.104296 419.306012 
L 685.713574 393.762502 
L 687.322852 385.390327 
L 688.93213 378.137347 
L 690.541408 364.917669 
L 692.150686 399.259959 
L 693.759964 413.971679 
L 695.369242 409.05283 
L 696.97852 427.332531 
L 698.587798 376.063843 
L 700.197076 389.871644 
L 701.806354 380.319131 
L 703.415632 362.139644 
L 705.02491 383.571874 
L 706.634188 384.349266 
L 708.243466 380.523959 
L 709.852744 382.751082 
L 711.462022 379.753923 
L 713.0713 384.071301 
L 714.680578 395.703215 
L 716.289856 402.824635 
L 717.899134 444.292268 
L 719.508412 442.364039 
L 721.11769 455.704896 
L 722.726968 447.712121 
L 724.336245 441.083228 
L 725.945523 449.565281 
L 727.554801 459.688471 
L 729.164079 467.883566 
L 730.773357 485.427275 
L 732.382635 499.78078 
L 733.991913 510.944082 
L 735.601191 509.043794 
L 737.210469 521.445572 
L 738.819747 527.672924 
L 740.429025 531.705565 
L 742.038303 570.146213 
L 743.647581 581.218196 
L 745.256859 581.218196 
L 746.866137 551.686732 
L 748.475415 525.985237 
L 750.084693 504.113711 
L 751.693971 486.072153 
L 753.303249 471.860565 
L 754.912527 459.081121 
L 756.521805 447.733823 
L 758.131083 439.689551 
L 759.740361 434.948305 
L 761.349639 432.982858 
L 762.958917 417.68521 
L 764.568195 408.456064 
L 766.177473 417.239944 
L 767.786751 391.69724 
L 769.396029 331.827951 
L 771.005307 345.536219 
L 772.614585 335.115715 
L 774.223863 353.889718 
L 775.833141 363.156112 
L 777.442419 361.044016 
L 779.051697 347.553431 
L 780.660975 339.129663 
L 782.270253 341.284946 
L 783.879531 337.436054 
L 785.488809 345.404614 
L 787.098087 387.223528 
L 788.707365 462.892794 
L 790.316643 455.73815 
L 791.925921 470.043351 
L 793.535199 452.485116 
L 795.144477 445.870274 
L 796.753755 450.198827 
L 798.363032 452.851555 
L 799.97231 464.813887 
L 801.581588 450.546225 
L 803.190866 427.589884 
L 804.800144 426.593136 
L 806.409422 412.780824 
L 808.0187 404.009929 
L 809.627978 408.051518 
L 812.846534 440.822343 
L 814.455812 453.610146 
L 816.06509 462.631303 
L 817.674368 480.505034 
L 819.283646 480.327831 
L 820.892924 508.235057 
L 822.502202 543.867921 
L 824.11148 558.741287 
L 825.720758 584.575588 
L 827.330036 603.513845 
L 828.939314 616.55511 
L 830.548592 613.13792 
L 832.15787 605.098993 
L 836.985704 566.470735 
L 840.20426 539.641447 
L 841.813538 512.932277 
L 843.422816 491.719803 
L 845.032094 476.004024 
L 846.641372 457.882611 
L 848.25065 437.355562 
L 849.859928 428.254188 
L 851.469206 416.340097 
L 853.078484 420.574718 
L 854.687762 416.505133 
L 856.29704 422.208105 
L 857.906318 386.059426 
L 859.515596 366.659181 
L 861.124874 376.978762 
L 862.734152 398.334659 
L 864.34343 392.7058 
L 865.952708 397.11602 
L 867.561986 404.480986 
L 869.171264 404.629007 
L 870.780542 415.547112 
L 872.389819 418.273873 
L 873.999097 420.517357 
L 875.608375 417.333559 
L 877.217653 460.346687 
L 878.826931 491.319235 
L 880.436209 499.575555 
L 882.045487 486.290814 
L 883.654765 495.4608 
L 885.264043 497.964009 
L 886.873321 502.137451 
L 888.482599 508.878321 
L 890.091877 502.630012 
L 891.701155 495.552608 
L 893.310433 491.974625 
L 894.919711 484.942799 
L 896.528989 482.83415 
L 898.138267 485.286097 
L 899.747545 489.344251 
L 901.356823 493.833446 
L 902.966101 492.778967 
L 904.575379 486.180813 
L 906.184657 472.786305 
L 907.793935 452.660368 
L 909.403213 437.61097 
L 912.621769 394.271561 
L 914.231047 367.812077 
L 915.840325 327.722558 
L 917.449603 274.003002 
L 919.058881 233.487444 
L 920.668159 206.175882 
L 922.277437 192.068316 
L 923.886715 191.164747 
L 925.495993 187.546782 
L 927.105271 192.367844 
L 928.714549 205.627932 
L 930.323827 198.282084 
L 933.542383 254.141845 
L 935.151661 285.709104 
L 936.760939 327.631423 
L 938.370217 348.661072 
L 939.979495 378.259174 
L 941.588773 387.364188 
L 943.198051 386.888319 
L 944.807329 392.74996 
L 946.416606 393.795688 
L 948.025884 398.406258 
L 949.635162 413.137376 
L 951.24444 404.88398 
L 952.853718 417.127284 
L 954.462996 431.884557 
L 956.072274 442.024694 
L 957.681552 453.058908 
L 959.29083 439.642645 
L 960.900108 430.837448 
L 962.509386 433.37427 
L 964.118664 441.365557 
L 965.727942 454.811311 
L 967.33722 451.364021 
L 968.946498 473.191975 
L 970.555776 484.999319 
L 972.165054 471.970185 
L 973.774332 440.778521 
L 975.38361 432.727255 
L 976.992888 429.56749 
L 978.602166 440.963999 
L 980.211444 468.201636 
L 981.820722 481.036372 
L 983.43 485.355759 
L 985.039278 481.159796 
L 986.648556 482.415239 
L 988.257834 469.443059 
L 989.867112 455.175923 
L 991.47639 444.983955 
L 993.085668 447.778823 
L 994.694946 422.257598 
L 996.304224 399.2017 
L 997.913502 364.829786 
L 1001.132058 270.884213 
L 1004.350614 166.909007 
L 1007.56917 49.560958 
L 1009.178448 51.352443 
L 1010.787726 59.899679 
L 1012.397004 75.202667 
L 1014.006282 86.506347 
L 1015.61556 113.507629 
L 1017.224838 138.373763 
L 1018.834116 172.883833 
L 1020.443394 183.529309 
L 1022.052671 215.882281 
L 1025.271227 323.721147 
L 1026.880505 382.651442 
L 1028.489783 380.9265 
L 1030.099061 373.927687 
L 1031.708339 367.77196 
L 1033.317617 341.352628 
L 1034.926895 332.451088 
L 1036.536173 311.425772 
L 1038.145451 295.921942 
L 1039.754729 319.44813 
L 1041.364007 323.819434 
L 1042.973285 316.417878 
L 1044.582563 318.252607 
L 1046.191841 324.723276 
L 1047.801119 326.104824 
L 1049.410397 321.838582 
L 1051.019675 334.051319 
L 1052.628953 369.642146 
L 1054.238231 371.132757 
L 1055.847509 388.100838 
L 1057.456787 363.044193 
L 1059.066065 335.573723 
L 1060.675343 321.645449 
L 1062.284621 314.204153 
L 1063.893899 313.249837 
L 1065.503177 318.929299 
L 1067.112455 340.9676 
L 1068.721733 371.086211 
L 1070.331011 381.041405 
L 1071.940289 395.79582 
L 1073.549567 415.349456 
L 1075.158845 437.598944 
L 1076.768123 490.622134 
L 1078.377401 534.808126 
L 1079.986679 570.15692 
L 1081.595957 596.668515 
L 1083.205235 614.342912 
L 1084.814513 623.180111 
L 1086.423791 623.180111 
L 1088.033069 613.715131 
L 1089.642347 594.785172 
L 1091.251625 566.390233 
L 1092.860903 550.891984 
L 1094.470181 539.875866 
L 1096.079458 533.341882 
L 1097.688736 485.20088 
L 1099.298014 451.4997 
L 1100.907292 423.991665 
L 1102.51657 385.109297 
L 1104.125848 375.964623 
L 1105.735126 328.631405 
L 1107.344404 313.672876 
L 1108.953682 325.56943 
L 1110.56296 340.711728 
L 1112.172238 336.738102 
L 1113.781516 322.063107 
L 1115.390794 296.911956 
L 1117.000072 316.297058 
L 1118.60935 318.859727 
L 1120.218628 342.533175 
L 1121.827906 374.027602 
L 1123.437184 372.230983 
L 1125.046462 400.384096 
L 1126.65574 400.299794 
L 1128.265018 377.497682 
L 1129.874296 390.750322 
L 1131.483574 410.222198 
L 1133.092852 435.91331 
L 1134.70213 467.598446 
L 1136.311408 496.354345 
L 1137.920686 505.260916 
L 1139.529964 499.911556 
L 1141.139242 490.598848 
L 1142.74852 483.241311 
L 1144.357798 500.098285 
L 1145.967076 520.132908 
L 1147.576354 538.363969 
L 1149.185632 524.857883 
L 1150.79491 512.493171 
L 1152.404188 502.535188 
L 1154.013466 493.999774 
L 1155.622744 486.886928 
L 1157.232022 503.428593 
L 1158.8413 508.344833 
L 1160.450578 522.200343 
L 1162.059856 539.076604 
L 1163.669134 541.399736 
L 1166.88769 550.238933 
L 1168.496968 549.268128 
L 1170.106245 539.917501 
L 1171.715523 539.017816 
L 1173.324801 547.55323 
L 1174.934079 538.374514 
L 1176.543357 511.481667 
L 1178.152635 490.20705 
L 1179.761913 474.550662 
L 1181.371191 474.761258 
L 1184.589747 427.041616 
L 1186.199025 412.588174 
L 1187.808303 402.680899 
L 1189.417581 415.39834 
L 1191.026859 406.925589 
L 1192.636137 400.147404 
L 1194.245415 396.12366 
L 1195.854693 413.648426 
L 1197.463971 429.389344 
L 1199.073249 443.346412 
L 1200.682527 426.024385 
L 1202.291805 433.200032 
L 1203.901083 445.518607 
L 1205.510361 424.935336 
L 1207.119639 423.136454 
L 1208.728917 422.043414 
L 1210.338195 407.508335 
L 1211.947473 386.244587 
L 1213.556751 405.171421 
L 1215.166029 410.192243 
L 1216.775307 404.393749 
L 1218.384585 387.775939 
L 1219.993863 396.030782 
L 1221.603141 391.244646 
L 1223.212419 373.682434 
L 1224.821697 385.249962 
L 1226.430975 401.194614 
L 1228.040253 407.718884 
L 1229.649531 419.398965 
L 1231.258809 435.093568 
L 1232.868087 430.308374 
L 1234.477365 440.345908 
L 1236.086643 455.945809 
L 1237.695921 477.073008 
L 1239.305199 487.28203 
L 1240.914477 508.298042 
L 1244.133032 568.142609 
L 1245.74231 578.170596 
L 1247.351588 581.491786 
L 1248.960866 603.396657 
L 1250.570144 615.428374 
L 1252.179422 604.632001 
L 1253.7887 571.007539 
L 1255.397978 541.277627 
L 1257.007256 515.477335 
L 1258.616534 493.606662 
L 1260.225812 475.665607 
L 1261.83509 449.130603 
L 1263.444368 425.781427 
L 1265.053646 405.618078 
L 1266.662924 392.855376 
L 1268.272202 387.493322 
L 1269.88148 369.334983 
L 1271.490758 368.884843 
L 1273.100036 386.320226 
L 1274.709314 416.050137 
L 1276.318592 428.629655 
L 1277.92787 422.8404 
L 1279.537148 422.337672 
L 1281.146426 439.645039 
L 1282.755704 462.982723 
L 1284.364982 461.263486 
L 1285.97426 436.942585 
L 1287.583538 376.08164 
L 1289.192816 361.083486 
L 1290.802094 348.845366 
L 1292.411372 339.189954 
L 1294.02065 322.602941 
L 1295.629928 300.473649 
L 1297.239206 274.020459 
L 1298.848484 276.228949 
L 1300.457762 267.714402 
L 1302.06704 254.132753 
L 1303.676318 260.96035 
L 1305.285596 281.527114 
L 1306.894874 313.400284 
L 1308.504152 333.02798 
L 1310.11343 347.78074 
L 1311.722708 359.588854 
L 1313.331986 343.650943 
L 1314.941264 356.747437 
L 1316.550542 410.015274 
L 1318.159819 422.117423 
L 1319.769097 432.4386 
L 1321.378375 435.322872 
L 1322.987653 436.381131 
L 1324.596931 435.613376 
L 1326.206209 449.39075 
L 1327.815487 439.059228 
L 1329.424765 426.465905 
L 1331.034043 409.680489 
L 1332.643321 408.060689 
L 1334.252599 392.881675 
L 1335.861877 335.646588 
L 1337.471155 261.051579 
L 1339.080433 264.742552 
L 1340.689711 275.626762 
L 1342.298989 230.15049 
L 1343.908267 222.061501 
L 1345.517545 221.565286 
L 1347.126823 228.661844 
L 1348.736101 243.351177 
L 1350.345379 265.633283 
L 1351.954657 295.508163 
L 1353.563935 332.975817 
L 1355.173213 391.126323 
L 1356.782491 469.959681 
L 1358.391769 473.829987 
L 1360.001047 472.82576 
L 1361.610325 475.726061 
L 1363.219603 454.836623 
L 1364.828881 439.951956 
L 1366.438159 431.072059 
L 1368.047437 426.268923 
L 1369.656715 390.622618 
L 1371.265993 361.287697 
L 1372.875271 334.371307 
L 1374.484549 304.755721 
L 1376.093827 272.440938 
L 1377.703105 256.567225 
L 1379.312383 232.222831 
L 1382.530939 277.207979 
L 1384.140217 302.533097 
L 1385.749495 316.267279 
L 1387.358773 320.338536 
L 1388.968051 344.602734 
L 1390.577329 347.774585 
L 1392.186606 339.984917 
L 1395.405162 359.613926 
L 1397.01444 360.324828 
L 1398.623718 365.637399 
L 1400.232996 380.83361 
L 1401.842274 385.097961 
L 1403.451552 377.196879 
L 1405.06083 371.020853 
L 1406.670108 366.569883 
L 1408.279386 368.908032 
L 1409.888664 382.166033 
L 1411.497942 400.105914 
L 1413.10722 403.22449 
L 1414.716498 410.101121 
L 1416.325776 409.723959 
L 1421.15361 424.438389 
L 1421.15361 424.438389 
" clip-path="url(#p8f6b62c1d3)" style="fill: none; stroke: #add8e6; stroke-linecap: square"/>
   </g>
   <g id="line2d_26">
    <path d="M 133.731227 445.040936 
L 135.340505 444.919537 
L 140.168339 457.356815 
L 141.777617 463.670769 
L 143.386895 465.654999 
L 144.996173 471.414475 
L 146.605451 472.465753 
L 148.214729 471.24221 
L 149.824007 471.532801 
L 151.433285 472.803695 
L 153.042563 469.359018 
L 154.651841 465.615819 
L 157.870397 457.233855 
L 159.479675 458.961869 
L 161.088953 455.233863 
L 162.698231 459.784082 
L 165.916787 460.857768 
L 167.526065 461.532188 
L 169.135343 457.612502 
L 170.744621 454.373115 
L 172.353899 451.81403 
L 173.963177 448.352954 
L 175.572455 447.816409 
L 177.181733 452.893309 
L 178.791011 452.075577 
L 180.400289 448.021115 
L 182.009567 450.914969 
L 183.618845 448.869612 
L 185.228123 447.72156 
L 186.837401 447.513961 
L 188.446679 450.076998 
L 190.055957 452.41929 
L 191.665235 460.810888 
L 196.493069 475.864607 
L 198.102347 479.758997 
L 199.711625 482.940825 
L 201.320903 485.410093 
L 202.930181 487.166798 
L 204.539458 488.210943 
L 206.148736 488.542526 
L 207.758014 488.161547 
L 209.367292 487.068008 
L 210.97657 485.261906 
L 214.195126 480.257067 
L 215.804404 476.731659 
L 217.413682 472.167019 
L 219.02296 466.563148 
L 220.632238 459.920044 
L 222.241516 456.292368 
L 223.850794 455.680118 
L 225.460072 442.390604 
L 227.06935 444.854782 
L 228.678628 443.177912 
L 230.287906 444.03689 
L 231.897184 448.65076 
L 233.506462 449.377667 
L 235.11574 448.315624 
L 236.725018 446.874831 
L 238.334296 446.077975 
L 239.943574 445.925055 
L 241.552852 446.416071 
L 243.16213 447.551023 
L 244.771408 452.549142 
L 246.380686 451.690497 
L 247.989964 450.36734 
L 249.599242 450.792611 
L 251.20852 450.303518 
L 252.817798 451.350577 
L 254.427076 449.150385 
L 256.036354 446.549493 
L 257.645632 446.670217 
L 259.25491 443.306754 
L 260.864188 439.47365 
L 262.473466 439.270618 
L 264.082744 439.793834 
L 265.692022 438.194608 
L 267.3013 442.087486 
L 268.910578 440.643647 
L 270.519856 442.149421 
L 272.129134 437.594983 
L 273.738412 438.312784 
L 275.34769 435.486017 
L 276.956968 436.114441 
L 278.566245 435.923251 
L 280.175523 436.152221 
L 281.784801 436.610159 
L 283.394079 437.246919 
L 285.003357 438.062501 
L 286.612635 439.056903 
L 288.221913 440.230127 
L 289.831191 441.582172 
L 291.440469 443.113038 
L 293.049747 444.822726 
L 294.659025 446.711235 
L 297.877581 451.024717 
L 299.486859 453.489225 
L 301.096137 456.17209 
L 304.314693 462.192889 
L 305.923971 461.711958 
L 307.533249 460.380827 
L 309.142527 469.885629 
L 310.751805 458.372986 
L 312.361083 460.121449 
L 313.970361 461.321365 
L 315.579639 464.367579 
L 317.188917 463.967414 
L 318.798195 466.108739 
L 320.407473 472.817102 
L 322.016751 477.302058 
L 323.626029 479.563607 
L 325.235307 479.601749 
L 326.844585 477.416483 
L 328.453863 475.705634 
L 330.063141 471.941586 
L 331.672419 474.353939 
L 333.281697 473.101027 
L 334.890975 471.685906 
L 336.500253 470.108577 
L 338.109531 470.770225 
L 339.718809 470.984112 
L 341.328087 470.750236 
L 342.937365 468.994374 
L 344.546643 473.3286 
L 346.155921 474.15418 
L 347.765199 477.89177 
L 349.374477 479.818045 
L 350.983755 479.522163 
L 352.593032 483.876326 
L 354.20231 480.943232 
L 355.811588 485.535435 
L 357.420866 485.876779 
L 359.030144 489.98349 
L 360.639422 489.995038 
L 362.2487 490.186227 
L 367.076534 490.236375 
L 370.29509 490.487115 
L 373.513646 490.938448 
L 376.732202 491.590372 
L 379.950758 492.442889 
L 381.560036 492.944369 
L 383.169314 494.287079 
L 384.778592 496.471019 
L 386.38787 499.496188 
L 387.997148 501.882412 
L 389.606426 502.294992 
L 391.215704 504.094205 
L 392.824982 507.280051 
L 394.43426 519.233387 
L 396.043538 517.465433 
L 397.652816 516.301916 
L 399.262094 512.964778 
L 400.871372 507.400752 
L 402.48065 507.995587 
L 404.089928 506.551613 
L 405.699206 505.777752 
L 407.308484 505.757585 
L 408.917762 506.491114 
L 410.52704 507.978339 
L 412.136318 508.890066 
L 413.745596 512.429192 
L 415.354874 508.5694 
L 416.964152 511.522315 
L 418.57343 513.220673 
L 420.182708 513.664475 
L 421.791986 512.68893 
L 423.401264 514.679681 
L 425.010542 519.636729 
L 426.619819 527.26569 
L 428.229097 525.845603 
L 429.838375 524.865175 
L 431.447653 520.807576 
L 433.056931 519.697535 
L 434.666209 519.402348 
L 436.275487 521.298329 
L 437.884765 524.512219 
L 439.494043 518.258584 
L 441.103321 515.569292 
L 442.712599 514.152687 
L 444.321877 510.496182 
L 452.368267 508.969417 
L 460.414657 507.678123 
L 462.023935 507.44812 
L 463.633213 506.92159 
L 465.242491 506.098533 
L 466.851769 505.865907 
L 468.461047 505.45566 
L 470.070325 504.867791 
L 471.679603 505.582476 
L 474.898159 504.853809 
L 476.507437 504.579625 
L 478.116715 504.453759 
L 479.725993 506.151237 
L 481.335271 509.108685 
L 482.944549 509.968625 
L 484.553827 513.844311 
L 486.163105 515.829016 
L 487.772383 514.904477 
L 489.381661 515.584801 
L 490.990939 514.072965 
L 492.600217 510.368968 
L 494.209495 504.47281 
L 495.818773 505.783473 
L 497.428051 505.516873 
L 499.037329 509.446008 
L 503.865162 504.759449 
L 505.47444 505.533375 
L 507.083718 503.696647 
L 508.692996 499.249263 
L 510.302274 497.977319 
L 511.911552 498.623598 
L 513.52083 501.298126 
L 515.130108 502.643849 
L 516.739386 503.284605 
L 518.348664 501.741723 
L 519.957942 496.309046 
L 521.56722 499.510918 
L 523.176498 501.689629 
L 524.785776 505.172516 
L 526.395054 503.950315 
L 528.004332 505.943237 
L 529.61361 496.890138 
L 531.222888 492.441311 
L 534.441444 492.641223 
L 537.66 492.397226 
L 540.878556 491.709318 
L 544.097112 490.577499 
L 545.70639 489.845124 
L 547.315668 489.307717 
L 548.924946 488.965279 
L 550.534224 487.930851 
L 552.143502 486.716924 
L 553.75278 485.323498 
L 555.362058 483.750572 
L 556.971336 485.321295 
L 558.580614 485.69129 
L 560.189892 484.860559 
L 561.79917 482.331802 
L 563.408448 481.558778 
L 565.017726 482.889914 
L 566.627004 479.888435 
L 568.236282 475.734447 
L 569.84556 473.844651 
L 571.454838 477.127713 
L 573.064116 479.545974 
L 574.673394 483.648118 
L 576.282671 489.434144 
L 577.891949 496.904053 
L 579.501227 495.701801 
L 581.110505 493.904283 
L 582.719783 491.908317 
L 584.329061 490.887992 
L 585.938339 492.648302 
L 587.547617 497.189247 
L 589.156895 496.172442 
L 590.766173 497.929136 
L 592.375451 502.45933 
L 593.984729 504.706395 
L 595.594007 505.648215 
L 597.203285 503.445427 
L 598.812563 499.29928 
L 600.421841 497.483991 
L 603.640397 505.797785 
L 605.249675 501.76557 
L 606.858953 500.618656 
L 608.468231 499.251383 
L 610.077509 499.173322 
L 611.686787 495.745819 
L 613.296065 500.875955 
L 614.905343 501.864306 
L 616.514621 498.710872 
L 618.123899 496.130902 
L 619.733177 494.124397 
L 621.342455 492.691357 
L 622.951733 491.831782 
L 624.561011 491.545672 
L 626.170289 491.833026 
L 629.388845 493.656223 
L 632.607401 495.732089 
L 634.216679 496.692011 
L 635.825957 498.111431 
L 637.435235 499.99035 
L 639.044513 502.328766 
L 640.653791 494.496095 
L 642.263069 489.062927 
L 643.872347 486.029262 
L 645.481625 484.10449 
L 647.090903 484.280881 
L 648.700181 479.6624 
L 650.309458 482.726124 
L 651.918736 487.285917 
L 653.528014 482.973925 
L 655.137292 481.800329 
L 656.74657 480.226129 
L 658.355848 477.780877 
L 659.965126 474.464573 
L 661.574404 470.277217 
L 663.183682 465.218809 
L 664.79296 467.923667 
L 666.402238 458.07815 
L 668.011516 459.149263 
L 669.620794 456.566002 
L 671.230072 450.328367 
L 672.83935 455.219725 
L 674.448628 456.354351 
L 677.667184 451.195503 
L 679.276462 446.552294 
L 680.88574 444.535554 
L 684.104296 450.011564 
L 685.713574 446.351828 
L 687.322852 446.252786 
L 688.93213 448.662711 
L 690.541408 444.55251 
L 692.150686 443.308962 
L 693.759964 446.097587 
L 695.369242 450.901767 
L 696.97852 454.503354 
L 698.587798 457.31025 
L 700.197076 459.322456 
L 701.806354 460.539973 
L 703.415632 461.516143 
L 705.02491 462.250967 
L 706.634188 462.744445 
L 708.243466 462.996577 
L 709.852744 463.007364 
L 711.462022 462.776804 
L 713.0713 462.776804 
L 714.680578 455.639066 
L 716.289856 449.21595 
L 717.899134 443.507454 
L 719.508412 438.257637 
L 721.11769 433.466497 
L 722.726968 429.134035 
L 724.336245 437.613019 
L 725.945523 443.829223 
L 727.554801 447.782644 
L 729.164079 453.674589 
L 730.773357 451.666769 
L 732.382635 454.637727 
L 733.991913 452.023561 
L 735.601191 442.844695 
L 737.210469 429.214866 
L 738.819747 429.060535 
L 740.429025 423.538428 
L 742.038303 426.589123 
L 743.647581 429.281362 
L 745.256859 431.615147 
L 746.866137 433.590475 
L 748.475415 433.32008 
L 750.084693 443.64087 
L 751.693971 442.537206 
L 753.303249 443.966365 
L 754.912527 448.633283 
L 756.521805 447.519693 
L 758.131083 445.534893 
L 759.740361 444.196749 
L 761.349639 442.681592 
L 762.958917 444.538982 
L 764.568195 446.875345 
L 766.177473 446.778554 
L 767.786751 447.625292 
L 769.396029 445.08409 
L 771.005307 439.127785 
L 772.614585 437.248267 
L 774.223863 440.572215 
L 775.833141 438.964317 
L 777.442419 435.954794 
L 779.051697 436.02277 
L 780.660975 436.436695 
L 782.270253 437.196567 
L 783.879531 438.302389 
L 785.488809 439.754158 
L 787.098087 440.998532 
L 788.707365 442.03551 
L 790.316643 442.865092 
L 791.925921 443.487279 
L 793.535199 443.902071 
L 795.144477 444.109466 
L 796.753755 444.109466 
L 798.363032 450.203813 
L 799.97231 454.693715 
L 801.581588 457.579172 
L 803.190866 459.877025 
L 804.800144 461.587274 
L 806.409422 462.70992 
L 808.0187 463.244961 
L 809.627978 459.76726 
L 811.237256 456.588394 
L 812.846534 453.830032 
L 814.455812 453.385789 
L 816.06509 450.778581 
L 817.674368 452.745562 
L 819.283646 460.380529 
L 820.892924 478.059195 
L 822.502202 476.254467 
L 824.11148 481.685518 
L 825.720758 470.133698 
L 827.330036 464.053362 
L 828.939314 463.444509 
L 830.548592 468.307139 
L 832.15787 466.193756 
L 836.985704 466.412729 
L 838.594982 466.91674 
L 840.20426 467.762521 
L 841.813538 468.126591 
L 843.422816 469.52172 
L 846.641372 474.541584 
L 848.25065 474.839138 
L 849.859928 476.023891 
L 851.469206 473.266121 
L 853.078484 477.212449 
L 854.687762 483.453773 
L 856.29704 485.401618 
L 857.906318 487.651168 
L 859.515596 488.887755 
L 861.124874 487.493462 
L 862.734152 483.523621 
L 864.34343 481.64294 
L 865.952708 481.851419 
L 867.561986 481.003665 
L 869.171264 479.099679 
L 870.780542 476.13946 
L 872.389819 472.123008 
L 873.999097 467.050323 
L 875.608375 460.921406 
L 877.217653 453.736256 
L 878.826931 445.494874 
L 885.264043 408.366343 
L 886.873321 401.14025 
L 888.482599 395.954713 
L 890.091877 392.809732 
L 891.701155 391.705308 
L 893.310433 391.961363 
L 894.919711 391.840185 
L 896.528989 391.341773 
L 898.138267 385.58706 
L 899.747545 387.376408 
L 901.356823 386.730193 
L 902.966101 387.487379 
L 904.575379 386.91789 
L 906.184657 385.483928 
L 907.793935 385.812652 
L 909.403213 393.110831 
L 911.012491 396.37357 
L 912.621769 395.60087 
L 914.231047 390.79273 
L 915.840325 392.657264 
L 917.449603 389.284296 
L 919.058881 387.469407 
L 920.668159 389.614411 
L 922.277437 391.257559 
L 923.886715 392.398849 
L 925.495993 392.993516 
L 927.105271 390.960902 
L 928.714549 386.301006 
L 930.323827 383.001655 
L 931.933105 382.167794 
L 933.542383 383.528229 
L 935.151661 382.481084 
L 936.760939 383.567673 
L 938.370217 383.514453 
L 939.979495 381.097149 
L 941.588773 376.984138 
L 943.198051 377.900691 
L 944.807329 378.59187 
L 948.025884 382.924272 
L 949.635162 382.02095 
L 951.24444 381.247372 
L 952.853718 380.603541 
L 954.462996 380.089455 
L 956.072274 379.705114 
L 957.681552 379.450519 
L 959.29083 379.325669 
L 960.900108 379.330565 
L 962.509386 379.465207 
L 964.118664 379.729594 
L 965.727942 380.123727 
L 967.33722 380.647605 
L 968.946498 381.301229 
L 970.555776 378.266012 
L 972.165054 371.541954 
L 973.774332 361.129056 
L 975.38361 347.027316 
L 976.992888 348.021056 
L 978.602166 348.756093 
L 980.211444 349.232427 
L 981.820722 353.670806 
L 983.43 353.816306 
L 985.039278 353.408016 
L 986.648556 354.611004 
L 988.257834 348.046895 
L 989.867112 347.624753 
L 991.47639 346.470439 
L 993.085668 346.4422 
L 994.694946 346.049576 
L 996.304224 345.292565 
L 997.913502 344.17117 
L 999.52278 342.162974 
L 1001.132058 337.105095 
L 1002.741336 337.101024 
L 1004.350614 329.015359 
L 1005.959892 323.235016 
L 1007.56917 319.759996 
L 1009.178448 317.800259 
L 1010.787726 318.033954 
L 1012.397004 320.461083 
L 1014.006282 320.976269 
L 1015.61556 318.693935 
L 1017.224838 313.485155 
L 1018.834116 315.090812 
L 1020.443394 313.208981 
L 1022.052671 310.824124 
L 1023.661949 309.660894 
L 1025.271227 305.296325 
L 1026.880505 297.33995 
L 1028.489783 292.895172 
L 1031.708339 284.702976 
L 1033.317617 283.566945 
L 1034.926895 285.37359 
L 1036.536173 288.083559 
L 1038.145451 291.69685 
L 1039.754729 296.213464 
L 1041.364007 301.633401 
L 1042.973285 307.956661 
L 1044.582563 315.183243 
L 1046.191841 323.313149 
L 1047.801119 332.346377 
L 1049.410397 342.282928 
L 1051.019675 353.122802 
L 1052.628953 364.865998 
L 1055.847509 391.192664 
L 1059.066065 415.481759 
L 1060.675343 416.911757 
L 1062.284621 418.720396 
L 1063.893899 420.907678 
L 1065.503177 415.319579 
L 1067.112455 410.344547 
L 1068.721733 408.194751 
L 1070.331011 402.097909 
L 1071.940289 409.274148 
L 1073.549567 404.303056 
L 1075.158845 401.359649 
L 1076.768123 404.018435 
L 1078.377401 405.803363 
L 1079.986679 406.714434 
L 1081.595957 406.751647 
L 1083.205235 404.555369 
L 1084.814513 409.537525 
L 1086.423791 407.208079 
L 1088.033069 415.373383 
L 1089.642347 420.122292 
L 1091.251625 421.454806 
L 1092.860903 421.971825 
L 1094.470181 420.717014 
L 1096.079458 417.690375 
L 1097.688736 421.040374 
L 1099.298014 426.126136 
L 1100.907292 433.076584 
L 1102.51657 435.373937 
L 1104.125848 438.778802 
L 1105.735126 438.160731 
L 1107.344404 441.175856 
L 1108.953682 449.557981 
L 1110.56296 455.531942 
L 1112.172238 463.153248 
L 1113.781516 468.239035 
L 1115.390794 469.63979 
L 1117.000072 468.562355 
L 1118.60935 465.70896 
L 1120.218628 463.410964 
L 1121.827906 461.441253 
L 1123.437184 459.799827 
L 1125.046462 458.486686 
L 1126.65574 457.501831 
L 1128.265018 456.84526 
L 1129.874296 456.516975 
L 1133.092852 456.516975 
L 1134.70213 454.846564 
L 1136.311408 451.505743 
L 1137.920686 446.494511 
L 1139.529964 446.173122 
L 1141.139242 450.541574 
L 1142.74852 453.334661 
L 1144.357798 449.391998 
L 1145.967076 446.039796 
L 1147.576354 443.278056 
L 1149.185632 454.107831 
L 1150.79491 456.459474 
L 1152.404188 457.22081 
L 1154.013466 461.187844 
L 1155.622744 457.671038 
L 1157.232022 466.51765 
L 1158.8413 467.692978 
L 1160.450578 467.751875 
L 1162.059856 466.122029 
L 1163.669134 467.140534 
L 1165.278412 470.807389 
L 1166.88769 477.070622 
L 1168.496968 479.429522 
L 1170.106245 482.845698 
L 1171.715523 480.986679 
L 1173.324801 472.935782 
L 1174.934079 469.418454 
L 1176.543357 471.515954 
L 1178.152635 469.356488 
L 1179.761913 469.770392 
L 1181.371191 469.449975 
L 1182.980469 467.133621 
L 1184.589747 463.533644 
L 1186.199025 458.650044 
L 1187.808303 456.277931 
L 1189.417581 456.534251 
L 1191.026859 451.856882 
L 1192.636137 448.624501 
L 1194.245415 450.484601 
L 1195.854693 450.197631 
L 1197.463971 446.110193 
L 1199.073249 445.938761 
L 1200.682527 447.630858 
L 1202.291805 450.484253 
L 1203.901083 452.782249 
L 1205.510361 454.743867 
L 1207.119639 456.369108 
L 1208.728917 457.65797 
L 1210.338195 458.610455 
L 1211.947473 459.226562 
L 1213.556751 459.506291 
L 1216.775307 459.384901 
L 1218.384585 460.982478 
L 1219.993863 460.407136 
L 1221.603141 457.658877 
L 1223.212419 453.303744 
L 1224.821697 447.341738 
L 1226.430975 446.038065 
L 1228.040253 449.392726 
L 1229.649531 449.131275 
L 1231.258809 447.972123 
L 1232.868087 443.550173 
L 1234.477365 445.973838 
L 1236.086643 450.258372 
L 1237.695921 451.000972 
L 1239.305199 452.608046 
L 1240.914477 450.948543 
L 1242.523755 455.409409 
L 1244.133032 453.914565 
L 1245.74231 452.203467 
L 1247.351588 451.397936 
L 1248.960866 451.497974 
L 1250.570144 452.50358 
L 1252.179422 451.682273 
L 1253.7887 446.837504 
L 1255.397978 434.234456 
L 1257.007256 436.26593 
L 1258.616534 435.463949 
L 1260.225812 431.828514 
L 1261.83509 435.815856 
L 1263.444368 434.121272 
L 1265.053646 421.93786 
L 1266.662924 420.48333 
L 1268.272202 419.956586 
L 1269.88148 421.662844 
L 1271.490758 420.512173 
L 1273.100036 421.518074 
L 1274.709314 420.323191 
L 1276.318592 424.214703 
L 1277.92787 423.137671 
L 1282.755704 416.041395 
L 1284.364982 417.254837 
L 1285.97426 416.276756 
L 1287.583538 414.531846 
L 1289.192816 412.028198 
L 1290.802094 408.765812 
L 1292.411372 404.744689 
L 1294.02065 399.964829 
L 1295.629928 394.426231 
L 1297.239206 388.128896 
L 1298.848484 381.072823 
L 1300.457762 373.258013 
L 1302.06704 364.684465 
L 1303.676318 355.18128 
L 1305.285596 344.748458 
L 1308.504152 356.678066 
L 1310.11343 347.968234 
L 1311.722708 346.220665 
L 1313.331986 347.449755 
L 1314.941264 348.937096 
L 1316.550542 350.682688 
L 1318.159819 351.713878 
L 1319.769097 352.030668 
L 1322.987653 360.313929 
L 1324.596931 364.049871 
L 1326.206209 364.049871 
L 1327.815487 366.877167 
L 1331.034043 353.720423 
L 1334.252599 341.573097 
L 1335.861877 342.607019 
L 1337.471155 341.024655 
L 1339.080433 348.616681 
L 1340.689711 350.129539 
L 1342.298989 350.139396 
L 1343.908267 348.646252 
L 1345.517545 348.810859 
L 1347.126823 351.126978 
L 1348.736101 355.594607 
L 1350.345379 353.946353 
L 1351.954657 355.555666 
L 1355.173213 356.309678 
L 1356.782491 355.580567 
L 1358.391769 356.549213 
L 1360.001047 351.734986 
L 1361.610325 350.68026 
L 1363.219603 348.652038 
L 1364.828881 352.658679 
L 1366.438159 353.178507 
L 1368.047437 348.860377 
L 1369.656715 345.4034 
L 1371.265993 342.807577 
L 1372.875271 341.072906 
L 1374.484549 340.19939 
L 1376.093827 340.187026 
L 1377.703105 341.035816 
L 1379.312383 342.74576 
L 1380.921661 345.316857 
L 1382.530939 348.749107 
L 1384.140217 353.04251 
L 1385.749495 358.197067 
L 1387.358773 368.218914 
L 1388.968051 383.108049 
L 1388.968051 383.108049 
" clip-path="url(#p8f6b62c1d3)" style="fill: none; stroke: #008000; stroke-width: 5; stroke-linecap: square"/>
   </g>
   <g id="line2d_27">
    <path d="M 1358.391769 651.861068 
L 1358.391769 20.88 
" clip-path="url(#p8f6b62c1d3)" style="fill: none; stroke-dasharray: 6.4,1.6,1,1.6; stroke-dashoffset: 0; stroke: #ff0000; stroke-opacity: 0.9"/>
   </g>
   <g id="line2d_28">
    <path d="M 1071.940289 651.861068 
L 1071.940289 20.88 
" clip-path="url(#p8f6b62c1d3)" style="fill: none; stroke-dasharray: 6.4,1.6,1,1.6; stroke-dashoffset: 0; stroke: #ff0000; stroke-opacity: 0.9"/>
   </g>
   <g id="line2d_29">
    <path d="M 738.819747 651.861068 
L 738.819747 20.88 
" clip-path="url(#p8f6b62c1d3)" style="fill: none; stroke-dasharray: 6.4,1.6,1,1.6; stroke-dashoffset: 0; stroke: #ff0000; stroke-opacity: 0.9"/>
   </g>
   <g id="line2d_30">
    <path d="M 423.401264 651.861068 
L 423.401264 20.88 
" clip-path="url(#p8f6b62c1d3)" style="fill: none; stroke-dasharray: 6.4,1.6,1,1.6; stroke-dashoffset: 0; stroke: #ff0000; stroke-opacity: 0.9"/>
   </g>
   <g id="patch_3">
    <path d="M 91.89 651.861068 
L 91.89 20.88 
" style="fill: none; stroke: #000000; stroke-width: 0.8; stroke-linejoin: miter; stroke-linecap: square"/>
   </g>
   <g id="patch_4">
    <path d="M 1429.2 651.861068 
L 1429.2 20.88 
" style="fill: none; stroke: #000000; stroke-width: 0.8; stroke-linejoin: miter; stroke-linecap: square"/>
   </g>
   <g id="patch_5">
    <path d="M 91.89 651.861068 
L 1429.2 651.861068 
" style="fill: none; stroke: #000000; stroke-width: 0.8; stroke-linejoin: miter; stroke-linecap: square"/>
   </g>
   <g id="patch_6">
    <path d="M 91.89 20.88 
L 1429.2 20.88 
" style="fill: none; stroke: #000000; stroke-width: 0.8; stroke-linejoin: miter; stroke-linecap: square"/>
   </g>
   <g id="text_26">
    <!-- 2022-11-01 -->
    <g style="fill: #ff0000; opacity: 0.9" transform="translate(1300.276144 18.800313) scale(0.1 -0.1)">
     <defs>
      <path id="DejaVuSans-2d" d="M 313 2009 
L 1997 2009 
L 1997 1497 
L 313 1497 
L 313 2009 
z
" transform="scale(0.015625)"/>
     </defs>
     <use xlink:href="#DejaVuSans-32"/>
     <use xlink:href="#DejaVuSans-30" x="63.623047"/>
     <use xlink:href="#DejaVuSans-32" x="127.246094"/>
     <use xlink:href="#DejaVuSans-32" x="190.869141"/>
     <use xlink:href="#DejaVuSans-2d" x="254.492188"/>
     <use xlink:href="#DejaVuSans-31" x="290.576172"/>
     <use xlink:href="#DejaVuSans-31" x="354.199219"/>
     <use xlink:href="#DejaVuSans-2d" x="417.822266"/>
     <use xlink:href="#DejaVuSans-30" x="453.90625"/>
     <use xlink:href="#DejaVuSans-31" x="517.529297"/>
    </g>
   </g>
   <g id="text_27">
    <!-- 2019-06-05 -->
    <g style="fill: #ff0000; opacity: 0.9" transform="translate(1013.824664 18.800313) scale(0.1 -0.1)">
     <use xlink:href="#DejaVuSans-32"/>
     <use xlink:href="#DejaVuSans-30" x="63.623047"/>
     <use xlink:href="#DejaVuSans-31" x="127.246094"/>
     <use xlink:href="#DejaVuSans-39" x="190.869141"/>
     <use xlink:href="#DejaVuSans-2d" x="254.492188"/>
     <use xlink:href="#DejaVuSans-30" x="290.576172"/>
     <use xlink:href="#DejaVuSans-36" x="354.199219"/>
     <use xlink:href="#DejaVuSans-2d" x="417.822266"/>
     <use xlink:href="#DejaVuSans-30" x="453.90625"/>
     <use xlink:href="#DejaVuSans-35" x="517.529297"/>
    </g>
   </g>
   <g id="text_28">
    <!-- 2015-06-18 -->
    <g style="fill: #ff0000; opacity: 0.9" transform="translate(680.704122 18.800313) scale(0.1 -0.1)">
     <use xlink:href="#DejaVuSans-32"/>
     <use xlink:href="#DejaVuSans-30" x="63.623047"/>
     <use xlink:href="#DejaVuSans-31" x="127.246094"/>
     <use xlink:href="#DejaVuSans-35" x="190.869141"/>
     <use xlink:href="#DejaVuSans-2d" x="254.492188"/>
     <use xlink:href="#DejaVuSans-30" x="290.576172"/>
     <use xlink:href="#DejaVuSans-36" x="354.199219"/>
     <use xlink:href="#DejaVuSans-2d" x="417.822266"/>
     <use xlink:href="#DejaVuSans-31" x="453.90625"/>
     <use xlink:href="#DejaVuSans-38" x="517.529297"/>
    </g>
   </g>
   <g id="text_29">
    <!-- 2011-09-15 -->
    <g style="fill: #ff0000; opacity: 0.9" transform="translate(365.285639 18.800313) scale(0.1 -0.1)">
     <use xlink:href="#DejaVuSans-32"/>
     <use xlink:href="#DejaVuSans-30" x="63.623047"/>
     <use xlink:href="#DejaVuSans-31" x="127.246094"/>
     <use xlink:href="#DejaVuSans-31" x="190.869141"/>
     <use xlink:href="#DejaVuSans-2d" x="254.492188"/>
     <use xlink:href="#DejaVuSans-30" x="290.576172"/>
     <use xlink:href="#DejaVuSans-39" x="354.199219"/>
     <use xlink:href="#DejaVuSans-2d" x="417.822266"/>
     <use xlink:href="#DejaVuSans-31" x="453.90625"/>
     <use xlink:href="#DejaVuSans-35" x="517.529297"/>
    </g>
   </g>
   <g id="legend_1">
    <g id="patch_7">
     <path d="M 100.99 88.524688 
L 304.295781 88.524688 
Q 306.895781 88.524688 306.895781 85.924688 
L 306.895781 29.98 
Q 306.895781 27.38 304.295781 27.38 
L 100.99 27.38 
Q 98.39 27.38 98.39 29.98 
L 98.39 85.924688 
Q 98.39 88.524688 100.99 88.524688 
z
" style="fill: #ffffff; opacity: 0.8; stroke: #cccccc; stroke-linejoin: miter"/>
    </g>
    <g id="line2d_31">
     <path d="M 103.59 37.907969 
L 116.59 37.907969 
L 129.59 37.907969 
" style="fill: none; stroke: #add8e6; stroke-linecap: square"/>
    </g>
    <g id="text_30">
     <!-- 12-Week Rolling Average -->
     <g transform="translate(139.99 42.457969) scale(0.13 -0.13)">
      <defs>
       <path id="DejaVuSans-57" d="M 213 4666 
L 850 4666 
L 1831 722 
L 2809 4666 
L 3519 4666 
L 4500 722 
L 5478 4666 
L 6119 4666 
L 4947 0 
L 4153 0 
L 3169 4050 
L 2175 0 
L 1381 0 
L 213 4666 
z
" transform="scale(0.015625)"/>
       <path id="DejaVuSans-65" d="M 3597 1894 
L 3597 1613 
L 953 1613 
Q 991 1019 1311 708 
Q 1631 397 2203 397 
Q 2534 397 2845 478 
Q 3156 559 3463 722 
L 3463 178 
Q 3153 47 2828 -22 
Q 2503 -91 2169 -91 
Q 1331 -91 842 396 
Q 353 884 353 1716 
Q 353 2575 817 3079 
Q 1281 3584 2069 3584 
Q 2775 3584 3186 3129 
Q 3597 2675 3597 1894 
z
M 3022 2063 
Q 3016 2534 2758 2815 
Q 2500 3097 2075 3097 
Q 1594 3097 1305 2825 
Q 1016 2553 972 2059 
L 3022 2063 
z
" transform="scale(0.015625)"/>
       <path id="DejaVuSans-6b" d="M 581 4863 
L 1159 4863 
L 1159 1991 
L 2875 3500 
L 3609 3500 
L 1753 1863 
L 3688 0 
L 2938 0 
L 1159 1709 
L 1159 0 
L 581 0 
L 581 4863 
z
" transform="scale(0.015625)"/>
       <path id="DejaVuSans-20" transform="scale(0.015625)"/>
       <path id="DejaVuSans-52" d="M 2841 2188 
Q 3044 2119 3236 1894 
Q 3428 1669 3622 1275 
L 4263 0 
L 3584 0 
L 2988 1197 
Q 2756 1666 2539 1819 
Q 2322 1972 1947 1972 
L 1259 1972 
L 1259 0 
L 628 0 
L 628 4666 
L 2053 4666 
Q 2853 4666 3247 4331 
Q 3641 3997 3641 3322 
Q 3641 2881 3436 2590 
Q 3231 2300 2841 2188 
z
M 1259 4147 
L 1259 2491 
L 2053 2491 
Q 2509 2491 2742 2702 
Q 2975 2913 2975 3322 
Q 2975 3731 2742 3939 
Q 2509 4147 2053 4147 
L 1259 4147 
z
" transform="scale(0.015625)"/>
       <path id="DejaVuSans-6f" d="M 1959 3097 
Q 1497 3097 1228 2736 
Q 959 2375 959 1747 
Q 959 1119 1226 758 
Q 1494 397 1959 397 
Q 2419 397 2687 759 
Q 2956 1122 2956 1747 
Q 2956 2369 2687 2733 
Q 2419 3097 1959 3097 
z
M 1959 3584 
Q 2709 3584 3137 3096 
Q 3566 2609 3566 1747 
Q 3566 888 3137 398 
Q 2709 -91 1959 -91 
Q 1206 -91 779 398 
Q 353 888 353 1747 
Q 353 2609 779 3096 
Q 1206 3584 1959 3584 
z
" transform="scale(0.015625)"/>
       <path id="DejaVuSans-6c" d="M 603 4863 
L 1178 4863 
L 1178 0 
L 603 0 
L 603 4863 
z
" transform="scale(0.015625)"/>
       <path id="DejaVuSans-69" d="M 603 3500 
L 1178 3500 
L 1178 0 
L 603 0 
L 603 3500 
z
M 603 4863 
L 1178 4863 
L 1178 4134 
L 603 4134 
L 603 4863 
z
" transform="scale(0.015625)"/>
       <path id="DejaVuSans-6e" d="M 3513 2113 
L 3513 0 
L 2938 0 
L 2938 2094 
Q 2938 2591 2744 2837 
Q 2550 3084 2163 3084 
Q 1697 3084 1428 2787 
Q 1159 2491 1159 1978 
L 1159 0 
L 581 0 
L 581 3500 
L 1159 3500 
L 1159 2956 
Q 1366 3272 1645 3428 
Q 1925 3584 2291 3584 
Q 2894 3584 3203 3211 
Q 3513 2838 3513 2113 
z
" transform="scale(0.015625)"/>
       <path id="DejaVuSans-67" d="M 2906 1791 
Q 2906 2416 2648 2759 
Q 2391 3103 1925 3103 
Q 1463 3103 1205 2759 
Q 947 2416 947 1791 
Q 947 1169 1205 825 
Q 1463 481 1925 481 
Q 2391 481 2648 825 
Q 2906 1169 2906 1791 
z
M 3481 434 
Q 3481 -459 3084 -895 
Q 2688 -1331 1869 -1331 
Q 1566 -1331 1297 -1286 
Q 1028 -1241 775 -1147 
L 775 -588 
Q 1028 -725 1275 -790 
Q 1522 -856 1778 -856 
Q 2344 -856 2625 -561 
Q 2906 -266 2906 331 
L 2906 616 
Q 2728 306 2450 153 
Q 2172 0 1784 0 
Q 1141 0 747 490 
Q 353 981 353 1791 
Q 353 2603 747 3093 
Q 1141 3584 1784 3584 
Q 2172 3584 2450 3431 
Q 2728 3278 2906 2969 
L 2906 3500 
L 3481 3500 
L 3481 434 
z
" transform="scale(0.015625)"/>
       <path id="DejaVuSans-41" d="M 2188 4044 
L 1331 1722 
L 3047 1722 
L 2188 4044 
z
M 1831 4666 
L 2547 4666 
L 4325 0 
L 3669 0 
L 3244 1197 
L 1141 1197 
L 716 0 
L 50 0 
L 1831 4666 
z
" transform="scale(0.015625)"/>
       <path id="DejaVuSans-76" d="M 191 3500 
L 800 3500 
L 1894 563 
L 2988 3500 
L 3597 3500 
L 2284 0 
L 1503 0 
L 191 3500 
z
" transform="scale(0.015625)"/>
       <path id="DejaVuSans-72" d="M 2631 2963 
Q 2534 3019 2420 3045 
Q 2306 3072 2169 3072 
Q 1681 3072 1420 2755 
Q 1159 2438 1159 1844 
L 1159 0 
L 581 0 
L 581 3500 
L 1159 3500 
L 1159 2956 
Q 1341 3275 1631 3429 
Q 1922 3584 2338 3584 
Q 2397 3584 2469 3576 
Q 2541 3569 2628 3553 
L 2631 2963 
z
" transform="scale(0.015625)"/>
       <path id="DejaVuSans-61" d="M 2194 1759 
Q 1497 1759 1228 1600 
Q 959 1441 959 1056 
Q 959 750 1161 570 
Q 1363 391 1709 391 
Q 2188 391 2477 730 
Q 2766 1069 2766 1631 
L 2766 1759 
L 2194 1759 
z
M 3341 1997 
L 3341 0 
L 2766 0 
L 2766 531 
Q 2569 213 2275 61 
Q 1981 -91 1556 -91 
Q 1019 -91 701 211 
Q 384 513 384 1019 
Q 384 1609 779 1909 
Q 1175 2209 1959 2209 
L 2766 2209 
L 2766 2266 
Q 2766 2663 2505 2880 
Q 2244 3097 1772 3097 
Q 1472 3097 1187 3025 
Q 903 2953 641 2809 
L 641 3341 
Q 956 3463 1253 3523 
Q 1550 3584 1831 3584 
Q 2591 3584 2966 3190 
Q 3341 2797 3341 1997 
z
" transform="scale(0.015625)"/>
      </defs>
      <use xlink:href="#DejaVuSans-31"/>
      <use xlink:href="#DejaVuSans-32" x="63.623047"/>
      <use xlink:href="#DejaVuSans-2d" x="127.246094"/>
      <use xlink:href="#DejaVuSans-57" x="159.330078"/>
      <use xlink:href="#DejaVuSans-65" x="252.332031"/>
      <use xlink:href="#DejaVuSans-65" x="313.855469"/>
      <use xlink:href="#DejaVuSans-6b" x="375.378906"/>
      <use xlink:href="#DejaVuSans-20" x="433.289062"/>
      <use xlink:href="#DejaVuSans-52" x="465.076172"/>
      <use xlink:href="#DejaVuSans-6f" x="530.058594"/>
      <use xlink:href="#DejaVuSans-6c" x="591.240234"/>
      <use xlink:href="#DejaVuSans-6c" x="619.023438"/>
      <use xlink:href="#DejaVuSans-69" x="646.806641"/>
      <use xlink:href="#DejaVuSans-6e" x="674.589844"/>
      <use xlink:href="#DejaVuSans-67" x="737.96875"/>
      <use xlink:href="#DejaVuSans-20" x="801.445312"/>
      <use xlink:href="#DejaVuSans-41" x="833.232422"/>
      <use xlink:href="#DejaVuSans-76" x="895.765625"/>
      <use xlink:href="#DejaVuSans-65" x="954.945312"/>
      <use xlink:href="#DejaVuSans-72" x="1016.46875"/>
      <use xlink:href="#DejaVuSans-61" x="1057.582031"/>
      <use xlink:href="#DejaVuSans-67" x="1118.861328"/>
      <use xlink:href="#DejaVuSans-65" x="1182.337891"/>
     </g>
    </g>
    <g id="line2d_32">
     <path d="M 103.59 56.989531 
L 116.59 56.989531 
L 129.59 56.989531 
" style="fill: none; stroke: #008000; stroke-width: 5; stroke-linecap: square"/>
    </g>
    <g id="text_31">
     <!-- 52-Week Rolling Average -->
     <g transform="translate(139.99 61.539531) scale(0.13 -0.13)">
      <use xlink:href="#DejaVuSans-35"/>
      <use xlink:href="#DejaVuSans-32" x="63.623047"/>
      <use xlink:href="#DejaVuSans-2d" x="127.246094"/>
      <use xlink:href="#DejaVuSans-57" x="159.330078"/>
      <use xlink:href="#DejaVuSans-65" x="252.332031"/>
      <use xlink:href="#DejaVuSans-65" x="313.855469"/>
      <use xlink:href="#DejaVuSans-6b" x="375.378906"/>
      <use xlink:href="#DejaVuSans-20" x="433.289062"/>
      <use xlink:href="#DejaVuSans-52" x="465.076172"/>
      <use xlink:href="#DejaVuSans-6f" x="530.058594"/>
      <use xlink:href="#DejaVuSans-6c" x="591.240234"/>
      <use xlink:href="#DejaVuSans-6c" x="619.023438"/>
      <use xlink:href="#DejaVuSans-69" x="646.806641"/>
      <use xlink:href="#DejaVuSans-6e" x="674.589844"/>
      <use xlink:href="#DejaVuSans-67" x="737.96875"/>
      <use xlink:href="#DejaVuSans-20" x="801.445312"/>
      <use xlink:href="#DejaVuSans-41" x="833.232422"/>
      <use xlink:href="#DejaVuSans-76" x="895.765625"/>
      <use xlink:href="#DejaVuSans-65" x="954.945312"/>
      <use xlink:href="#DejaVuSans-72" x="1016.46875"/>
      <use xlink:href="#DejaVuSans-61" x="1057.582031"/>
      <use xlink:href="#DejaVuSans-67" x="1118.861328"/>
      <use xlink:href="#DejaVuSans-65" x="1182.337891"/>
     </g>
    </g>
    <g id="line2d_33">
     <path d="M 103.59 76.071094 
L 116.59 76.071094 
L 129.59 76.071094 
" style="fill: none; stroke-dasharray: 6.4,1.6,1,1.6; stroke-dashoffset: 0; stroke: #ff0000; stroke-opacity: 0.9"/>
    </g>
    <g id="text_32">
     <!-- General Election -->
     <g transform="translate(139.99 80.621094) scale(0.13 -0.13)">
      <defs>
       <path id="DejaVuSans-47" d="M 3809 666 
L 3809 1919 
L 2778 1919 
L 2778 2438 
L 4434 2438 
L 4434 434 
Q 4069 175 3628 42 
Q 3188 -91 2688 -91 
Q 1594 -91 976 548 
Q 359 1188 359 2328 
Q 359 3472 976 4111 
Q 1594 4750 2688 4750 
Q 3144 4750 3555 4637 
Q 3966 4525 4313 4306 
L 4313 3634 
Q 3963 3931 3569 4081 
Q 3175 4231 2741 4231 
Q 1884 4231 1454 3753 
Q 1025 3275 1025 2328 
Q 1025 1384 1454 906 
Q 1884 428 2741 428 
Q 3075 428 3337 486 
Q 3600 544 3809 666 
z
" transform="scale(0.015625)"/>
       <path id="DejaVuSans-45" d="M 628 4666 
L 3578 4666 
L 3578 4134 
L 1259 4134 
L 1259 2753 
L 3481 2753 
L 3481 2222 
L 1259 2222 
L 1259 531 
L 3634 531 
L 3634 0 
L 628 0 
L 628 4666 
z
" transform="scale(0.015625)"/>
       <path id="DejaVuSans-63" d="M 3122 3366 
L 3122 2828 
Q 2878 2963 2633 3030 
Q 2388 3097 2138 3097 
Q 1578 3097 1268 2742 
Q 959 2388 959 1747 
Q 959 1106 1268 751 
Q 1578 397 2138 397 
Q 2388 397 2633 464 
Q 2878 531 3122 666 
L 3122 134 
Q 2881 22 2623 -34 
Q 2366 -91 2075 -91 
Q 1284 -91 818 406 
Q 353 903 353 1747 
Q 353 2603 823 3093 
Q 1294 3584 2113 3584 
Q 2378 3584 2631 3529 
Q 2884 3475 3122 3366 
z
" transform="scale(0.015625)"/>
       <path id="DejaVuSans-74" d="M 1172 4494 
L 1172 3500 
L 2356 3500 
L 2356 3053 
L 1172 3053 
L 1172 1153 
Q 1172 725 1289 603 
Q 1406 481 1766 481 
L 2356 481 
L 2356 0 
L 1766 0 
Q 1100 0 847 248 
Q 594 497 594 1153 
L 594 3053 
L 172 3053 
L 172 3500 
L 594 3500 
L 594 4494 
L 1172 4494 
z
" transform="scale(0.015625)"/>
      </defs>
      <use xlink:href="#DejaVuSans-47"/>
      <use xlink:href="#DejaVuSans-65" x="77.490234"/>
      <use xlink:href="#DejaVuSans-6e" x="139.013672"/>
      <use xlink:href="#DejaVuSans-65" x="202.392578"/>
      <use xlink:href="#DejaVuSans-72" x="263.916016"/>
      <use xlink:href="#DejaVuSans-61" x="305.029297"/>
      <use xlink:href="#DejaVuSans-6c" x="366.308594"/>
      <use xlink:href="#DejaVuSans-20" x="394.091797"/>
      <use xlink:href="#DejaVuSans-45" x="425.878906"/>
      <use xlink:href="#DejaVuSans-6c" x="489.0625"/>
      <use xlink:href="#DejaVuSans-65" x="516.845703"/>
      <use xlink:href="#DejaVuSans-63" x="578.369141"/>
      <use xlink:href="#DejaVuSans-74" x="633.349609"/>
      <use xlink:href="#DejaVuSans-69" x="672.558594"/>
      <use xlink:href="#DejaVuSans-6f" x="700.341797"/>
      <use xlink:href="#DejaVuSans-6e" x="761.523438"/>
     </g>
    </g>
   </g>
  </g>
 </g>
 <defs>
  <clipPath id="p8f6b62c1d3">
   <rect x="91.89" y="20.88" width="1337.31" height="630.981068"/>
  </clipPath>
 </defs>
</svg>
