<?xml version="1.0" encoding="utf-8" standalone="no"?>
<!DOCTYPE svg PUBLIC "-//W3C//DTD SVG 1.1//EN"
  "http://www.w3.org/Graphics/SVG/1.1/DTD/svg11.dtd">
<svg xmlns:xlink="http://www.w3.org/1999/xlink" width="576pt" height="360pt" viewBox="0 0 576 360" xmlns="http://www.w3.org/2000/svg" version="1.1">
 <metadata>
  <rdf:RDF xmlns:dc="http://purl.org/dc/elements/1.1/" xmlns:cc="http://creativecommons.org/ns#" xmlns:rdf="http://www.w3.org/1999/02/22-rdf-syntax-ns#">
   <cc:Work>
    <dc:type rdf:resource="http://purl.org/dc/dcmitype/StillImage"/>
    <dc:date>2023-12-08T12:57:06.374794</dc:date>
    <dc:format>image/svg+xml</dc:format>
    <dc:creator>
     <cc:Agent>
      <dc:title>Matplotlib v3.7.0, https://matplotlib.org/</dc:title>
     </cc:Agent>
    </dc:creator>
   </cc:Work>
  </rdf:RDF>
 </metadata>
 <defs>
  <style type="text/css">*{stroke-linejoin: round; stroke-linecap: butt}</style>
 </defs>
 <g id="figure_1">
  <g id="patch_1">
   <path d="M 0 360 
L 576 360 
L 576 0 
L 0 0 
L 0 360 
z
" style="fill: none"/>
  </g>
  <g id="axes_1">
   <g id="patch_2">
    <path d="M 54.05 318.2 
L 565.2 318.2 
L 565.2 10.8 
L 54.05 10.8 
z
" style="fill: #ffffff"/>
   </g>
   <g id="matplotlib.axis_1">
    <g id="xtick_1">
     <g id="line2d_1">
      <path d="M 77.284091 318.2 
L 77.284091 10.8 
" clip-path="url(#p30d7dc852e)" style="fill: none; stroke-dasharray: 2.96,1.28; stroke-dashoffset: 0; stroke: #b0b0b0; stroke-opacity: 0.7; stroke-width: 0.8"/>
     </g>
     <g id="line2d_2">
      <defs>
       <path id="maaa8f5b521" d="M 0 0 
L 0 3.5 
" style="stroke: #000000; stroke-width: 0.8"/>
      </defs>
      <g>
       <use xlink:href="#maaa8f5b521" x="77.284091" y="318.2" style="stroke: #000000; stroke-width: 0.8"/>
      </g>
     </g>
     <g id="text_1">
      <!-- 1 -->
      <g transform="translate(74.102841 332.798438) scale(0.1 -0.1)">
       <defs>
        <path id="DejaVuSans-31" d="M 794 531 
L 1825 531 
L 1825 4091 
L 703 3866 
L 703 4441 
L 1819 4666 
L 2450 4666 
L 2450 531 
L 3481 531 
L 3481 0 
L 794 0 
L 794 531 
z
" transform="scale(0.015625)"/>
       </defs>
       <use xlink:href="#DejaVuSans-31"/>
      </g>
     </g>
    </g>
    <g id="xtick_2">
     <g id="line2d_3">
      <path d="M 101.741029 318.2 
L 101.741029 10.8 
" clip-path="url(#p30d7dc852e)" style="fill: none; stroke-dasharray: 2.96,1.28; stroke-dashoffset: 0; stroke: #b0b0b0; stroke-opacity: 0.7; stroke-width: 0.8"/>
     </g>
     <g id="line2d_4">
      <g>
       <use xlink:href="#maaa8f5b521" x="101.741029" y="318.2" style="stroke: #000000; stroke-width: 0.8"/>
      </g>
     </g>
     <g id="text_2">
      <!-- 2 -->
      <g transform="translate(98.559779 332.798438) scale(0.1 -0.1)">
       <defs>
        <path id="DejaVuSans-32" d="M 1228 531 
L 3431 531 
L 3431 0 
L 469 0 
L 469 531 
Q 828 903 1448 1529 
Q 2069 2156 2228 2338 
Q 2531 2678 2651 2914 
Q 2772 3150 2772 3378 
Q 2772 3750 2511 3984 
Q 2250 4219 1831 4219 
Q 1534 4219 1204 4116 
Q 875 4013 500 3803 
L 500 4441 
Q 881 4594 1212 4672 
Q 1544 4750 1819 4750 
Q 2544 4750 2975 4387 
Q 3406 4025 3406 3419 
Q 3406 3131 3298 2873 
Q 3191 2616 2906 2266 
Q 2828 2175 2409 1742 
Q 1991 1309 1228 531 
z
" transform="scale(0.015625)"/>
       </defs>
       <use xlink:href="#DejaVuSans-32"/>
      </g>
     </g>
    </g>
    <g id="xtick_3">
     <g id="line2d_5">
      <path d="M 126.197967 318.2 
L 126.197967 10.8 
" clip-path="url(#p30d7dc852e)" style="fill: none; stroke-dasharray: 2.96,1.28; stroke-dashoffset: 0; stroke: #b0b0b0; stroke-opacity: 0.7; stroke-width: 0.8"/>
     </g>
     <g id="line2d_6">
      <g>
       <use xlink:href="#maaa8f5b521" x="126.197967" y="318.2" style="stroke: #000000; stroke-width: 0.8"/>
      </g>
     </g>
     <g id="text_3">
      <!-- 3 -->
      <g transform="translate(123.016717 332.798438) scale(0.1 -0.1)">
       <defs>
        <path id="DejaVuSans-33" d="M 2597 2516 
Q 3050 2419 3304 2112 
Q 3559 1806 3559 1356 
Q 3559 666 3084 287 
Q 2609 -91 1734 -91 
Q 1441 -91 1130 -33 
Q 819 25 488 141 
L 488 750 
Q 750 597 1062 519 
Q 1375 441 1716 441 
Q 2309 441 2620 675 
Q 2931 909 2931 1356 
Q 2931 1769 2642 2001 
Q 2353 2234 1838 2234 
L 1294 2234 
L 1294 2753 
L 1863 2753 
Q 2328 2753 2575 2939 
Q 2822 3125 2822 3475 
Q 2822 3834 2567 4026 
Q 2313 4219 1838 4219 
Q 1578 4219 1281 4162 
Q 984 4106 628 3988 
L 628 4550 
Q 988 4650 1302 4700 
Q 1616 4750 1894 4750 
Q 2613 4750 3031 4423 
Q 3450 4097 3450 3541 
Q 3450 3153 3228 2886 
Q 3006 2619 2597 2516 
z
" transform="scale(0.015625)"/>
       </defs>
       <use xlink:href="#DejaVuSans-33"/>
      </g>
     </g>
    </g>
    <g id="xtick_4">
     <g id="line2d_7">
      <path d="M 150.654904 318.2 
L 150.654904 10.8 
" clip-path="url(#p30d7dc852e)" style="fill: none; stroke-dasharray: 2.96,1.28; stroke-dashoffset: 0; stroke: #b0b0b0; stroke-opacity: 0.7; stroke-width: 0.8"/>
     </g>
     <g id="line2d_8">
      <g>
       <use xlink:href="#maaa8f5b521" x="150.654904" y="318.2" style="stroke: #000000; stroke-width: 0.8"/>
      </g>
     </g>
     <g id="text_4">
      <!-- 4 -->
      <g transform="translate(147.473654 332.798438) scale(0.1 -0.1)">
       <defs>
        <path id="DejaVuSans-34" d="M 2419 4116 
L 825 1625 
L 2419 1625 
L 2419 4116 
z
M 2253 4666 
L 3047 4666 
L 3047 1625 
L 3713 1625 
L 3713 1100 
L 3047 1100 
L 3047 0 
L 2419 0 
L 2419 1100 
L 313 1100 
L 313 1709 
L 2253 4666 
z
" transform="scale(0.015625)"/>
       </defs>
       <use xlink:href="#DejaVuSans-34"/>
      </g>
     </g>
    </g>
    <g id="xtick_5">
     <g id="line2d_9">
      <path d="M 175.111842 318.2 
L 175.111842 10.8 
" clip-path="url(#p30d7dc852e)" style="fill: none; stroke-dasharray: 2.96,1.28; stroke-dashoffset: 0; stroke: #b0b0b0; stroke-opacity: 0.7; stroke-width: 0.8"/>
     </g>
     <g id="line2d_10">
      <g>
       <use xlink:href="#maaa8f5b521" x="175.111842" y="318.2" style="stroke: #000000; stroke-width: 0.8"/>
      </g>
     </g>
     <g id="text_5">
      <!-- 5 -->
      <g transform="translate(171.930592 332.798438) scale(0.1 -0.1)">
       <defs>
        <path id="DejaVuSans-35" d="M 691 4666 
L 3169 4666 
L 3169 4134 
L 1269 4134 
L 1269 2991 
Q 1406 3038 1543 3061 
Q 1681 3084 1819 3084 
Q 2600 3084 3056 2656 
Q 3513 2228 3513 1497 
Q 3513 744 3044 326 
Q 2575 -91 1722 -91 
Q 1428 -91 1123 -41 
Q 819 9 494 109 
L 494 744 
Q 775 591 1075 516 
Q 1375 441 1709 441 
Q 2250 441 2565 725 
Q 2881 1009 2881 1497 
Q 2881 1984 2565 2268 
Q 2250 2553 1709 2553 
Q 1456 2553 1204 2497 
Q 953 2441 691 2322 
L 691 4666 
z
" transform="scale(0.015625)"/>
       </defs>
       <use xlink:href="#DejaVuSans-35"/>
      </g>
     </g>
    </g>
    <g id="xtick_6">
     <g id="line2d_11">
      <path d="M 199.56878 318.2 
L 199.56878 10.8 
" clip-path="url(#p30d7dc852e)" style="fill: none; stroke-dasharray: 2.96,1.28; stroke-dashoffset: 0; stroke: #b0b0b0; stroke-opacity: 0.7; stroke-width: 0.8"/>
     </g>
     <g id="line2d_12">
      <g>
       <use xlink:href="#maaa8f5b521" x="199.56878" y="318.2" style="stroke: #000000; stroke-width: 0.8"/>
      </g>
     </g>
     <g id="text_6">
      <!-- 6 -->
      <g transform="translate(196.38753 332.798438) scale(0.1 -0.1)">
       <defs>
        <path id="DejaVuSans-36" d="M 2113 2584 
Q 1688 2584 1439 2293 
Q 1191 2003 1191 1497 
Q 1191 994 1439 701 
Q 1688 409 2113 409 
Q 2538 409 2786 701 
Q 3034 994 3034 1497 
Q 3034 2003 2786 2293 
Q 2538 2584 2113 2584 
z
M 3366 4563 
L 3366 3988 
Q 3128 4100 2886 4159 
Q 2644 4219 2406 4219 
Q 1781 4219 1451 3797 
Q 1122 3375 1075 2522 
Q 1259 2794 1537 2939 
Q 1816 3084 2150 3084 
Q 2853 3084 3261 2657 
Q 3669 2231 3669 1497 
Q 3669 778 3244 343 
Q 2819 -91 2113 -91 
Q 1303 -91 875 529 
Q 447 1150 447 2328 
Q 447 3434 972 4092 
Q 1497 4750 2381 4750 
Q 2619 4750 2861 4703 
Q 3103 4656 3366 4563 
z
" transform="scale(0.015625)"/>
       </defs>
       <use xlink:href="#DejaVuSans-36"/>
      </g>
     </g>
    </g>
    <g id="xtick_7">
     <g id="line2d_13">
      <path d="M 224.025718 318.2 
L 224.025718 10.8 
" clip-path="url(#p30d7dc852e)" style="fill: none; stroke-dasharray: 2.96,1.28; stroke-dashoffset: 0; stroke: #b0b0b0; stroke-opacity: 0.7; stroke-width: 0.8"/>
     </g>
     <g id="line2d_14">
      <g>
       <use xlink:href="#maaa8f5b521" x="224.025718" y="318.2" style="stroke: #000000; stroke-width: 0.8"/>
      </g>
     </g>
     <g id="text_7">
      <!-- 7 -->
      <g transform="translate(220.844468 332.798438) scale(0.1 -0.1)">
       <defs>
        <path id="DejaVuSans-37" d="M 525 4666 
L 3525 4666 
L 3525 4397 
L 1831 0 
L 1172 0 
L 2766 4134 
L 525 4134 
L 525 4666 
z
" transform="scale(0.015625)"/>
       </defs>
       <use xlink:href="#DejaVuSans-37"/>
      </g>
     </g>
    </g>
    <g id="xtick_8">
     <g id="line2d_15">
      <path d="M 248.482656 318.2 
L 248.482656 10.8 
" clip-path="url(#p30d7dc852e)" style="fill: none; stroke-dasharray: 2.96,1.28; stroke-dashoffset: 0; stroke: #b0b0b0; stroke-opacity: 0.7; stroke-width: 0.8"/>
     </g>
     <g id="line2d_16">
      <g>
       <use xlink:href="#maaa8f5b521" x="248.482656" y="318.2" style="stroke: #000000; stroke-width: 0.8"/>
      </g>
     </g>
     <g id="text_8">
      <!-- 8 -->
      <g transform="translate(245.301406 332.798438) scale(0.1 -0.1)">
       <defs>
        <path id="DejaVuSans-38" d="M 2034 2216 
Q 1584 2216 1326 1975 
Q 1069 1734 1069 1313 
Q 1069 891 1326 650 
Q 1584 409 2034 409 
Q 2484 409 2743 651 
Q 3003 894 3003 1313 
Q 3003 1734 2745 1975 
Q 2488 2216 2034 2216 
z
M 1403 2484 
Q 997 2584 770 2862 
Q 544 3141 544 3541 
Q 544 4100 942 4425 
Q 1341 4750 2034 4750 
Q 2731 4750 3128 4425 
Q 3525 4100 3525 3541 
Q 3525 3141 3298 2862 
Q 3072 2584 2669 2484 
Q 3125 2378 3379 2068 
Q 3634 1759 3634 1313 
Q 3634 634 3220 271 
Q 2806 -91 2034 -91 
Q 1263 -91 848 271 
Q 434 634 434 1313 
Q 434 1759 690 2068 
Q 947 2378 1403 2484 
z
M 1172 3481 
Q 1172 3119 1398 2916 
Q 1625 2713 2034 2713 
Q 2441 2713 2670 2916 
Q 2900 3119 2900 3481 
Q 2900 3844 2670 4047 
Q 2441 4250 2034 4250 
Q 1625 4250 1398 4047 
Q 1172 3844 1172 3481 
z
" transform="scale(0.015625)"/>
       </defs>
       <use xlink:href="#DejaVuSans-38"/>
      </g>
     </g>
    </g>
    <g id="xtick_9">
     <g id="line2d_17">
      <path d="M 272.939593 318.2 
L 272.939593 10.8 
" clip-path="url(#p30d7dc852e)" style="fill: none; stroke-dasharray: 2.96,1.28; stroke-dashoffset: 0; stroke: #b0b0b0; stroke-opacity: 0.7; stroke-width: 0.8"/>
     </g>
     <g id="line2d_18">
      <g>
       <use xlink:href="#maaa8f5b521" x="272.939593" y="318.2" style="stroke: #000000; stroke-width: 0.8"/>
      </g>
     </g>
     <g id="text_9">
      <!-- 9 -->
      <g transform="translate(269.758343 332.798438) scale(0.1 -0.1)">
       <defs>
        <path id="DejaVuSans-39" d="M 703 97 
L 703 672 
Q 941 559 1184 500 
Q 1428 441 1663 441 
Q 2288 441 2617 861 
Q 2947 1281 2994 2138 
Q 2813 1869 2534 1725 
Q 2256 1581 1919 1581 
Q 1219 1581 811 2004 
Q 403 2428 403 3163 
Q 403 3881 828 4315 
Q 1253 4750 1959 4750 
Q 2769 4750 3195 4129 
Q 3622 3509 3622 2328 
Q 3622 1225 3098 567 
Q 2575 -91 1691 -91 
Q 1453 -91 1209 -44 
Q 966 3 703 97 
z
M 1959 2075 
Q 2384 2075 2632 2365 
Q 2881 2656 2881 3163 
Q 2881 3666 2632 3958 
Q 2384 4250 1959 4250 
Q 1534 4250 1286 3958 
Q 1038 3666 1038 3163 
Q 1038 2656 1286 2365 
Q 1534 2075 1959 2075 
z
" transform="scale(0.015625)"/>
       </defs>
       <use xlink:href="#DejaVuSans-39"/>
      </g>
     </g>
    </g>
    <g id="xtick_10">
     <g id="line2d_19">
      <path d="M 297.396531 318.2 
L 297.396531 10.8 
" clip-path="url(#p30d7dc852e)" style="fill: none; stroke-dasharray: 2.96,1.28; stroke-dashoffset: 0; stroke: #b0b0b0; stroke-opacity: 0.7; stroke-width: 0.8"/>
     </g>
     <g id="line2d_20">
      <g>
       <use xlink:href="#maaa8f5b521" x="297.396531" y="318.2" style="stroke: #000000; stroke-width: 0.8"/>
      </g>
     </g>
     <g id="text_10">
      <!-- 10 -->
      <g transform="translate(291.034031 332.798438) scale(0.1 -0.1)">
       <defs>
        <path id="DejaVuSans-30" d="M 2034 4250 
Q 1547 4250 1301 3770 
Q 1056 3291 1056 2328 
Q 1056 1369 1301 889 
Q 1547 409 2034 409 
Q 2525 409 2770 889 
Q 3016 1369 3016 2328 
Q 3016 3291 2770 3770 
Q 2525 4250 2034 4250 
z
M 2034 4750 
Q 2819 4750 3233 4129 
Q 3647 3509 3647 2328 
Q 3647 1150 3233 529 
Q 2819 -91 2034 -91 
Q 1250 -91 836 529 
Q 422 1150 422 2328 
Q 422 3509 836 4129 
Q 1250 4750 2034 4750 
z
" transform="scale(0.015625)"/>
       </defs>
       <use xlink:href="#DejaVuSans-31"/>
       <use xlink:href="#DejaVuSans-30" x="63.623047"/>
      </g>
     </g>
    </g>
    <g id="xtick_11">
     <g id="line2d_21">
      <path d="M 321.853469 318.2 
L 321.853469 10.8 
" clip-path="url(#p30d7dc852e)" style="fill: none; stroke-dasharray: 2.96,1.28; stroke-dashoffset: 0; stroke: #b0b0b0; stroke-opacity: 0.7; stroke-width: 0.8"/>
     </g>
     <g id="line2d_22">
      <g>
       <use xlink:href="#maaa8f5b521" x="321.853469" y="318.2" style="stroke: #000000; stroke-width: 0.8"/>
      </g>
     </g>
     <g id="text_11">
      <!-- 11 -->
      <g transform="translate(315.490969 332.798438) scale(0.1 -0.1)">
       <use xlink:href="#DejaVuSans-31"/>
       <use xlink:href="#DejaVuSans-31" x="63.623047"/>
      </g>
     </g>
    </g>
    <g id="xtick_12">
     <g id="line2d_23">
      <path d="M 346.310407 318.2 
L 346.310407 10.8 
" clip-path="url(#p30d7dc852e)" style="fill: none; stroke-dasharray: 2.96,1.28; stroke-dashoffset: 0; stroke: #b0b0b0; stroke-opacity: 0.7; stroke-width: 0.8"/>
     </g>
     <g id="line2d_24">
      <g>
       <use xlink:href="#maaa8f5b521" x="346.310407" y="318.2" style="stroke: #000000; stroke-width: 0.8"/>
      </g>
     </g>
     <g id="text_12">
      <!-- 12 -->
      <g transform="translate(339.947907 332.798438) scale(0.1 -0.1)">
       <use xlink:href="#DejaVuSans-31"/>
       <use xlink:href="#DejaVuSans-32" x="63.623047"/>
      </g>
     </g>
    </g>
    <g id="xtick_13">
     <g id="line2d_25">
      <path d="M 370.767344 318.2 
L 370.767344 10.8 
" clip-path="url(#p30d7dc852e)" style="fill: none; stroke-dasharray: 2.96,1.28; stroke-dashoffset: 0; stroke: #b0b0b0; stroke-opacity: 0.7; stroke-width: 0.8"/>
     </g>
     <g id="line2d_26">
      <g>
       <use xlink:href="#maaa8f5b521" x="370.767344" y="318.2" style="stroke: #000000; stroke-width: 0.8"/>
      </g>
     </g>
     <g id="text_13">
      <!-- 13 -->
      <g transform="translate(364.404844 332.798438) scale(0.1 -0.1)">
       <use xlink:href="#DejaVuSans-31"/>
       <use xlink:href="#DejaVuSans-33" x="63.623047"/>
      </g>
     </g>
    </g>
    <g id="xtick_14">
     <g id="line2d_27">
      <path d="M 395.224282 318.2 
L 395.224282 10.8 
" clip-path="url(#p30d7dc852e)" style="fill: none; stroke-dasharray: 2.96,1.28; stroke-dashoffset: 0; stroke: #b0b0b0; stroke-opacity: 0.7; stroke-width: 0.8"/>
     </g>
     <g id="line2d_28">
      <g>
       <use xlink:href="#maaa8f5b521" x="395.224282" y="318.2" style="stroke: #000000; stroke-width: 0.8"/>
      </g>
     </g>
     <g id="text_14">
      <!-- 14 -->
      <g transform="translate(388.861782 332.798438) scale(0.1 -0.1)">
       <use xlink:href="#DejaVuSans-31"/>
       <use xlink:href="#DejaVuSans-34" x="63.623047"/>
      </g>
     </g>
    </g>
    <g id="xtick_15">
     <g id="line2d_29">
      <path d="M 419.68122 318.2 
L 419.68122 10.8 
" clip-path="url(#p30d7dc852e)" style="fill: none; stroke-dasharray: 2.96,1.28; stroke-dashoffset: 0; stroke: #b0b0b0; stroke-opacity: 0.7; stroke-width: 0.8"/>
     </g>
     <g id="line2d_30">
      <g>
       <use xlink:href="#maaa8f5b521" x="419.68122" y="318.2" style="stroke: #000000; stroke-width: 0.8"/>
      </g>
     </g>
     <g id="text_15">
      <!-- 15 -->
      <g transform="translate(413.31872 332.798438) scale(0.1 -0.1)">
       <use xlink:href="#DejaVuSans-31"/>
       <use xlink:href="#DejaVuSans-35" x="63.623047"/>
      </g>
     </g>
    </g>
    <g id="xtick_16">
     <g id="line2d_31">
      <path d="M 444.138158 318.2 
L 444.138158 10.8 
" clip-path="url(#p30d7dc852e)" style="fill: none; stroke-dasharray: 2.96,1.28; stroke-dashoffset: 0; stroke: #b0b0b0; stroke-opacity: 0.7; stroke-width: 0.8"/>
     </g>
     <g id="line2d_32">
      <g>
       <use xlink:href="#maaa8f5b521" x="444.138158" y="318.2" style="stroke: #000000; stroke-width: 0.8"/>
      </g>
     </g>
     <g id="text_16">
      <!-- 16 -->
      <g transform="translate(437.775658 332.798438) scale(0.1 -0.1)">
       <use xlink:href="#DejaVuSans-31"/>
       <use xlink:href="#DejaVuSans-36" x="63.623047"/>
      </g>
     </g>
    </g>
    <g id="xtick_17">
     <g id="line2d_33">
      <path d="M 468.595096 318.2 
L 468.595096 10.8 
" clip-path="url(#p30d7dc852e)" style="fill: none; stroke-dasharray: 2.96,1.28; stroke-dashoffset: 0; stroke: #b0b0b0; stroke-opacity: 0.7; stroke-width: 0.8"/>
     </g>
     <g id="line2d_34">
      <g>
       <use xlink:href="#maaa8f5b521" x="468.595096" y="318.2" style="stroke: #000000; stroke-width: 0.8"/>
      </g>
     </g>
     <g id="text_17">
      <!-- 17 -->
      <g transform="translate(462.232596 332.798438) scale(0.1 -0.1)">
       <use xlink:href="#DejaVuSans-31"/>
       <use xlink:href="#DejaVuSans-37" x="63.623047"/>
      </g>
     </g>
    </g>
    <g id="xtick_18">
     <g id="line2d_35">
      <path d="M 493.052033 318.2 
L 493.052033 10.8 
" clip-path="url(#p30d7dc852e)" style="fill: none; stroke-dasharray: 2.96,1.28; stroke-dashoffset: 0; stroke: #b0b0b0; stroke-opacity: 0.7; stroke-width: 0.8"/>
     </g>
     <g id="line2d_36">
      <g>
       <use xlink:href="#maaa8f5b521" x="493.052033" y="318.2" style="stroke: #000000; stroke-width: 0.8"/>
      </g>
     </g>
     <g id="text_18">
      <!-- 18 -->
      <g transform="translate(486.689533 332.798438) scale(0.1 -0.1)">
       <use xlink:href="#DejaVuSans-31"/>
       <use xlink:href="#DejaVuSans-38" x="63.623047"/>
      </g>
     </g>
    </g>
    <g id="xtick_19">
     <g id="line2d_37">
      <path d="M 517.508971 318.2 
L 517.508971 10.8 
" clip-path="url(#p30d7dc852e)" style="fill: none; stroke-dasharray: 2.96,1.28; stroke-dashoffset: 0; stroke: #b0b0b0; stroke-opacity: 0.7; stroke-width: 0.8"/>
     </g>
     <g id="line2d_38">
      <g>
       <use xlink:href="#maaa8f5b521" x="517.508971" y="318.2" style="stroke: #000000; stroke-width: 0.8"/>
      </g>
     </g>
     <g id="text_19">
      <!-- 19 -->
      <g transform="translate(511.146471 332.798438) scale(0.1 -0.1)">
       <use xlink:href="#DejaVuSans-31"/>
       <use xlink:href="#DejaVuSans-39" x="63.623047"/>
      </g>
     </g>
    </g>
    <g id="xtick_20">
     <g id="line2d_39">
      <path d="M 541.965909 318.2 
L 541.965909 10.8 
" clip-path="url(#p30d7dc852e)" style="fill: none; stroke-dasharray: 2.96,1.28; stroke-dashoffset: 0; stroke: #b0b0b0; stroke-opacity: 0.7; stroke-width: 0.8"/>
     </g>
     <g id="line2d_40">
      <g>
       <use xlink:href="#maaa8f5b521" x="541.965909" y="318.2" style="stroke: #000000; stroke-width: 0.8"/>
      </g>
     </g>
     <g id="text_20">
      <!-- 20 -->
      <g transform="translate(535.603409 332.798438) scale(0.1 -0.1)">
       <use xlink:href="#DejaVuSans-32"/>
       <use xlink:href="#DejaVuSans-30" x="63.623047"/>
      </g>
     </g>
    </g>
    <g id="text_21">
     <!-- Odds percentile -->
     <g transform="translate(270.14375 346.476562) scale(0.1 -0.1)">
      <defs>
       <path id="DejaVuSans-4f" d="M 2522 4238 
Q 1834 4238 1429 3725 
Q 1025 3213 1025 2328 
Q 1025 1447 1429 934 
Q 1834 422 2522 422 
Q 3209 422 3611 934 
Q 4013 1447 4013 2328 
Q 4013 3213 3611 3725 
Q 3209 4238 2522 4238 
z
M 2522 4750 
Q 3503 4750 4090 4092 
Q 4678 3434 4678 2328 
Q 4678 1225 4090 567 
Q 3503 -91 2522 -91 
Q 1538 -91 948 565 
Q 359 1222 359 2328 
Q 359 3434 948 4092 
Q 1538 4750 2522 4750 
z
" transform="scale(0.015625)"/>
       <path id="DejaVuSans-64" d="M 2906 2969 
L 2906 4863 
L 3481 4863 
L 3481 0 
L 2906 0 
L 2906 525 
Q 2725 213 2448 61 
Q 2172 -91 1784 -91 
Q 1150 -91 751 415 
Q 353 922 353 1747 
Q 353 2572 751 3078 
Q 1150 3584 1784 3584 
Q 2172 3584 2448 3432 
Q 2725 3281 2906 2969 
z
M 947 1747 
Q 947 1113 1208 752 
Q 1469 391 1925 391 
Q 2381 391 2643 752 
Q 2906 1113 2906 1747 
Q 2906 2381 2643 2742 
Q 2381 3103 1925 3103 
Q 1469 3103 1208 2742 
Q 947 2381 947 1747 
z
" transform="scale(0.015625)"/>
       <path id="DejaVuSans-73" d="M 2834 3397 
L 2834 2853 
Q 2591 2978 2328 3040 
Q 2066 3103 1784 3103 
Q 1356 3103 1142 2972 
Q 928 2841 928 2578 
Q 928 2378 1081 2264 
Q 1234 2150 1697 2047 
L 1894 2003 
Q 2506 1872 2764 1633 
Q 3022 1394 3022 966 
Q 3022 478 2636 193 
Q 2250 -91 1575 -91 
Q 1294 -91 989 -36 
Q 684 19 347 128 
L 347 722 
Q 666 556 975 473 
Q 1284 391 1588 391 
Q 1994 391 2212 530 
Q 2431 669 2431 922 
Q 2431 1156 2273 1281 
Q 2116 1406 1581 1522 
L 1381 1569 
Q 847 1681 609 1914 
Q 372 2147 372 2553 
Q 372 3047 722 3315 
Q 1072 3584 1716 3584 
Q 2034 3584 2315 3537 
Q 2597 3491 2834 3397 
z
" transform="scale(0.015625)"/>
       <path id="DejaVuSans-20" transform="scale(0.015625)"/>
       <path id="DejaVuSans-70" d="M 1159 525 
L 1159 -1331 
L 581 -1331 
L 581 3500 
L 1159 3500 
L 1159 2969 
Q 1341 3281 1617 3432 
Q 1894 3584 2278 3584 
Q 2916 3584 3314 3078 
Q 3713 2572 3713 1747 
Q 3713 922 3314 415 
Q 2916 -91 2278 -91 
Q 1894 -91 1617 61 
Q 1341 213 1159 525 
z
M 3116 1747 
Q 3116 2381 2855 2742 
Q 2594 3103 2138 3103 
Q 1681 3103 1420 2742 
Q 1159 2381 1159 1747 
Q 1159 1113 1420 752 
Q 1681 391 2138 391 
Q 2594 391 2855 752 
Q 3116 1113 3116 1747 
z
" transform="scale(0.015625)"/>
       <path id="DejaVuSans-65" d="M 3597 1894 
L 3597 1613 
L 953 1613 
Q 991 1019 1311 708 
Q 1631 397 2203 397 
Q 2534 397 2845 478 
Q 3156 559 3463 722 
L 3463 178 
Q 3153 47 2828 -22 
Q 2503 -91 2169 -91 
Q 1331 -91 842 396 
Q 353 884 353 1716 
Q 353 2575 817 3079 
Q 1281 3584 2069 3584 
Q 2775 3584 3186 3129 
Q 3597 2675 3597 1894 
z
M 3022 2063 
Q 3016 2534 2758 2815 
Q 2500 3097 2075 3097 
Q 1594 3097 1305 2825 
Q 1016 2553 972 2059 
L 3022 2063 
z
" transform="scale(0.015625)"/>
       <path id="DejaVuSans-72" d="M 2631 2963 
Q 2534 3019 2420 3045 
Q 2306 3072 2169 3072 
Q 1681 3072 1420 2755 
Q 1159 2438 1159 1844 
L 1159 0 
L 581 0 
L 581 3500 
L 1159 3500 
L 1159 2956 
Q 1341 3275 1631 3429 
Q 1922 3584 2338 3584 
Q 2397 3584 2469 3576 
Q 2541 3569 2628 3553 
L 2631 2963 
z
" transform="scale(0.015625)"/>
       <path id="DejaVuSans-63" d="M 3122 3366 
L 3122 2828 
Q 2878 2963 2633 3030 
Q 2388 3097 2138 3097 
Q 1578 3097 1268 2742 
Q 959 2388 959 1747 
Q 959 1106 1268 751 
Q 1578 397 2138 397 
Q 2388 397 2633 464 
Q 2878 531 3122 666 
L 3122 134 
Q 2881 22 2623 -34 
Q 2366 -91 2075 -91 
Q 1284 -91 818 406 
Q 353 903 353 1747 
Q 353 2603 823 3093 
Q 1294 3584 2113 3584 
Q 2378 3584 2631 3529 
Q 2884 3475 3122 3366 
z
" transform="scale(0.015625)"/>
       <path id="DejaVuSans-6e" d="M 3513 2113 
L 3513 0 
L 2938 0 
L 2938 2094 
Q 2938 2591 2744 2837 
Q 2550 3084 2163 3084 
Q 1697 3084 1428 2787 
Q 1159 2491 1159 1978 
L 1159 0 
L 581 0 
L 581 3500 
L 1159 3500 
L 1159 2956 
Q 1366 3272 1645 3428 
Q 1925 3584 2291 3584 
Q 2894 3584 3203 3211 
Q 3513 2838 3513 2113 
z
" transform="scale(0.015625)"/>
       <path id="DejaVuSans-74" d="M 1172 4494 
L 1172 3500 
L 2356 3500 
L 2356 3053 
L 1172 3053 
L 1172 1153 
Q 1172 725 1289 603 
Q 1406 481 1766 481 
L 2356 481 
L 2356 0 
L 1766 0 
Q 1100 0 847 248 
Q 594 497 594 1153 
L 594 3053 
L 172 3053 
L 172 3500 
L 594 3500 
L 594 4494 
L 1172 4494 
z
" transform="scale(0.015625)"/>
       <path id="DejaVuSans-69" d="M 603 3500 
L 1178 3500 
L 1178 0 
L 603 0 
L 603 3500 
z
M 603 4863 
L 1178 4863 
L 1178 4134 
L 603 4134 
L 603 4863 
z
" transform="scale(0.015625)"/>
       <path id="DejaVuSans-6c" d="M 603 4863 
L 1178 4863 
L 1178 0 
L 603 0 
L 603 4863 
z
" transform="scale(0.015625)"/>
      </defs>
      <use xlink:href="#DejaVuSans-4f"/>
      <use xlink:href="#DejaVuSans-64" x="78.710938"/>
      <use xlink:href="#DejaVuSans-64" x="142.1875"/>
      <use xlink:href="#DejaVuSans-73" x="205.664062"/>
      <use xlink:href="#DejaVuSans-20" x="257.763672"/>
      <use xlink:href="#DejaVuSans-70" x="289.550781"/>
      <use xlink:href="#DejaVuSans-65" x="353.027344"/>
      <use xlink:href="#DejaVuSans-72" x="414.550781"/>
      <use xlink:href="#DejaVuSans-63" x="453.414062"/>
      <use xlink:href="#DejaVuSans-65" x="508.394531"/>
      <use xlink:href="#DejaVuSans-6e" x="569.917969"/>
      <use xlink:href="#DejaVuSans-74" x="633.296875"/>
      <use xlink:href="#DejaVuSans-69" x="672.505859"/>
      <use xlink:href="#DejaVuSans-6c" x="700.289062"/>
      <use xlink:href="#DejaVuSans-65" x="728.072266"/>
     </g>
    </g>
   </g>
   <g id="matplotlib.axis_2">
    <g id="ytick_1">
     <g id="line2d_41">
      <defs>
       <path id="ma3f812ad1d" d="M 0 0 
L -3.5 0 
" style="stroke: #000000; stroke-width: 0.8"/>
      </defs>
      <g>
       <use xlink:href="#ma3f812ad1d" x="54.05" y="268.3101" style="stroke: #000000; stroke-width: 0.8"/>
      </g>
     </g>
     <g id="text_22">
      <!-- 0.20 -->
      <g transform="translate(24.784375 272.109319) scale(0.1 -0.1)">
       <defs>
        <path id="DejaVuSans-2e" d="M 684 794 
L 1344 794 
L 1344 0 
L 684 0 
L 684 794 
z
" transform="scale(0.015625)"/>
       </defs>
       <use xlink:href="#DejaVuSans-30"/>
       <use xlink:href="#DejaVuSans-2e" x="63.623047"/>
       <use xlink:href="#DejaVuSans-32" x="95.410156"/>
       <use xlink:href="#DejaVuSans-30" x="159.033203"/>
      </g>
     </g>
    </g>
    <g id="ytick_2">
     <g id="line2d_42">
      <g>
       <use xlink:href="#ma3f812ad1d" x="54.05" y="202.420553" style="stroke: #000000; stroke-width: 0.8"/>
      </g>
     </g>
     <g id="text_23">
      <!-- 0.25 -->
      <g transform="translate(24.784375 206.219772) scale(0.1 -0.1)">
       <use xlink:href="#DejaVuSans-30"/>
       <use xlink:href="#DejaVuSans-2e" x="63.623047"/>
       <use xlink:href="#DejaVuSans-32" x="95.410156"/>
       <use xlink:href="#DejaVuSans-35" x="159.033203"/>
      </g>
     </g>
    </g>
    <g id="ytick_3">
     <g id="line2d_43">
      <g>
       <use xlink:href="#ma3f812ad1d" x="54.05" y="136.531005" style="stroke: #000000; stroke-width: 0.8"/>
      </g>
     </g>
     <g id="text_24">
      <!-- 0.30 -->
      <g transform="translate(24.784375 140.330224) scale(0.1 -0.1)">
       <use xlink:href="#DejaVuSans-30"/>
       <use xlink:href="#DejaVuSans-2e" x="63.623047"/>
       <use xlink:href="#DejaVuSans-33" x="95.410156"/>
       <use xlink:href="#DejaVuSans-30" x="159.033203"/>
      </g>
     </g>
    </g>
    <g id="ytick_4">
     <g id="line2d_44">
      <g>
       <use xlink:href="#ma3f812ad1d" x="54.05" y="70.641457" style="stroke: #000000; stroke-width: 0.8"/>
      </g>
     </g>
     <g id="text_25">
      <!-- 0.35 -->
      <g transform="translate(24.784375 74.440676) scale(0.1 -0.1)">
       <use xlink:href="#DejaVuSans-30"/>
       <use xlink:href="#DejaVuSans-2e" x="63.623047"/>
       <use xlink:href="#DejaVuSans-33" x="95.410156"/>
       <use xlink:href="#DejaVuSans-35" x="159.033203"/>
      </g>
     </g>
    </g>
    <g id="text_26">
     <!-- Cosine Similarity -->
     <g transform="translate(18.704687 206.51875) rotate(-90) scale(0.1 -0.1)">
      <defs>
       <path id="DejaVuSans-43" d="M 4122 4306 
L 4122 3641 
Q 3803 3938 3442 4084 
Q 3081 4231 2675 4231 
Q 1875 4231 1450 3742 
Q 1025 3253 1025 2328 
Q 1025 1406 1450 917 
Q 1875 428 2675 428 
Q 3081 428 3442 575 
Q 3803 722 4122 1019 
L 4122 359 
Q 3791 134 3420 21 
Q 3050 -91 2638 -91 
Q 1578 -91 968 557 
Q 359 1206 359 2328 
Q 359 3453 968 4101 
Q 1578 4750 2638 4750 
Q 3056 4750 3426 4639 
Q 3797 4528 4122 4306 
z
" transform="scale(0.015625)"/>
       <path id="DejaVuSans-6f" d="M 1959 3097 
Q 1497 3097 1228 2736 
Q 959 2375 959 1747 
Q 959 1119 1226 758 
Q 1494 397 1959 397 
Q 2419 397 2687 759 
Q 2956 1122 2956 1747 
Q 2956 2369 2687 2733 
Q 2419 3097 1959 3097 
z
M 1959 3584 
Q 2709 3584 3137 3096 
Q 3566 2609 3566 1747 
Q 3566 888 3137 398 
Q 2709 -91 1959 -91 
Q 1206 -91 779 398 
Q 353 888 353 1747 
Q 353 2609 779 3096 
Q 1206 3584 1959 3584 
z
" transform="scale(0.015625)"/>
       <path id="DejaVuSans-53" d="M 3425 4513 
L 3425 3897 
Q 3066 4069 2747 4153 
Q 2428 4238 2131 4238 
Q 1616 4238 1336 4038 
Q 1056 3838 1056 3469 
Q 1056 3159 1242 3001 
Q 1428 2844 1947 2747 
L 2328 2669 
Q 3034 2534 3370 2195 
Q 3706 1856 3706 1288 
Q 3706 609 3251 259 
Q 2797 -91 1919 -91 
Q 1588 -91 1214 -16 
Q 841 59 441 206 
L 441 856 
Q 825 641 1194 531 
Q 1563 422 1919 422 
Q 2459 422 2753 634 
Q 3047 847 3047 1241 
Q 3047 1584 2836 1778 
Q 2625 1972 2144 2069 
L 1759 2144 
Q 1053 2284 737 2584 
Q 422 2884 422 3419 
Q 422 4038 858 4394 
Q 1294 4750 2059 4750 
Q 2388 4750 2728 4690 
Q 3069 4631 3425 4513 
z
" transform="scale(0.015625)"/>
       <path id="DejaVuSans-6d" d="M 3328 2828 
Q 3544 3216 3844 3400 
Q 4144 3584 4550 3584 
Q 5097 3584 5394 3201 
Q 5691 2819 5691 2113 
L 5691 0 
L 5113 0 
L 5113 2094 
Q 5113 2597 4934 2840 
Q 4756 3084 4391 3084 
Q 3944 3084 3684 2787 
Q 3425 2491 3425 1978 
L 3425 0 
L 2847 0 
L 2847 2094 
Q 2847 2600 2669 2842 
Q 2491 3084 2119 3084 
Q 1678 3084 1418 2786 
Q 1159 2488 1159 1978 
L 1159 0 
L 581 0 
L 581 3500 
L 1159 3500 
L 1159 2956 
Q 1356 3278 1631 3431 
Q 1906 3584 2284 3584 
Q 2666 3584 2933 3390 
Q 3200 3197 3328 2828 
z
" transform="scale(0.015625)"/>
       <path id="DejaVuSans-61" d="M 2194 1759 
Q 1497 1759 1228 1600 
Q 959 1441 959 1056 
Q 959 750 1161 570 
Q 1363 391 1709 391 
Q 2188 391 2477 730 
Q 2766 1069 2766 1631 
L 2766 1759 
L 2194 1759 
z
M 3341 1997 
L 3341 0 
L 2766 0 
L 2766 531 
Q 2569 213 2275 61 
Q 1981 -91 1556 -91 
Q 1019 -91 701 211 
Q 384 513 384 1019 
Q 384 1609 779 1909 
Q 1175 2209 1959 2209 
L 2766 2209 
L 2766 2266 
Q 2766 2663 2505 2880 
Q 2244 3097 1772 3097 
Q 1472 3097 1187 3025 
Q 903 2953 641 2809 
L 641 3341 
Q 956 3463 1253 3523 
Q 1550 3584 1831 3584 
Q 2591 3584 2966 3190 
Q 3341 2797 3341 1997 
z
" transform="scale(0.015625)"/>
       <path id="DejaVuSans-79" d="M 2059 -325 
Q 1816 -950 1584 -1140 
Q 1353 -1331 966 -1331 
L 506 -1331 
L 506 -850 
L 844 -850 
Q 1081 -850 1212 -737 
Q 1344 -625 1503 -206 
L 1606 56 
L 191 3500 
L 800 3500 
L 1894 763 
L 2988 3500 
L 3597 3500 
L 2059 -325 
z
" transform="scale(0.015625)"/>
      </defs>
      <use xlink:href="#DejaVuSans-43"/>
      <use xlink:href="#DejaVuSans-6f" x="69.824219"/>
      <use xlink:href="#DejaVuSans-73" x="131.005859"/>
      <use xlink:href="#DejaVuSans-69" x="183.105469"/>
      <use xlink:href="#DejaVuSans-6e" x="210.888672"/>
      <use xlink:href="#DejaVuSans-65" x="274.267578"/>
      <use xlink:href="#DejaVuSans-20" x="335.791016"/>
      <use xlink:href="#DejaVuSans-53" x="367.578125"/>
      <use xlink:href="#DejaVuSans-69" x="431.054688"/>
      <use xlink:href="#DejaVuSans-6d" x="458.837891"/>
      <use xlink:href="#DejaVuSans-69" x="556.25"/>
      <use xlink:href="#DejaVuSans-6c" x="584.033203"/>
      <use xlink:href="#DejaVuSans-61" x="611.816406"/>
      <use xlink:href="#DejaVuSans-72" x="673.095703"/>
      <use xlink:href="#DejaVuSans-69" x="714.208984"/>
      <use xlink:href="#DejaVuSans-74" x="741.992188"/>
      <use xlink:href="#DejaVuSans-79" x="781.201172"/>
     </g>
    </g>
   </g>
   <g id="line2d_45">
    <path d="M 77.284091 274.509297 
L 101.741029 275.600524 
L 126.197967 275.593042 
L 150.654904 287.191134 
L 175.111842 276.825711 
L 199.56878 281.822248 
L 224.025718 274.517977 
L 248.482656 298.016604 
L 272.939593 304.227273 
L 297.396531 298.163093 
L 321.853469 282.059733 
L 346.310407 302.921968 
L 370.767344 281.378166 
L 395.224282 288.162636 
L 419.68122 271.015178 
L 444.138158 280.870265 
L 468.595096 215.896494 
L 493.052033 217.665164 
L 517.508971 153.962334 
L 541.965909 24.772727 
" clip-path="url(#p30d7dc852e)" style="fill: none; stroke: #39ad48; stroke-width: 1.5; stroke-linecap: square"/>
    <defs>
     <path id="m99c9e2cf7b" d="M 0 3 
C 0.795609 3 1.55874 2.683901 2.12132 2.12132 
C 2.683901 1.55874 3 0.795609 3 0 
C 3 -0.795609 2.683901 -1.55874 2.12132 -2.12132 
C 1.55874 -2.683901 0.795609 -3 0 -3 
C -0.795609 -3 -1.55874 -2.683901 -2.12132 -2.12132 
C -2.683901 -1.55874 -3 -0.795609 -3 0 
C -3 0.795609 -2.683901 1.55874 -2.12132 2.12132 
C -1.55874 2.683901 -0.795609 3 0 3 
z
" style="stroke: #39ad48"/>
    </defs>
    <g clip-path="url(#p30d7dc852e)">
     <use xlink:href="#m99c9e2cf7b" x="77.284091" y="274.509297" style="fill: #39ad48; stroke: #39ad48"/>
     <use xlink:href="#m99c9e2cf7b" x="101.741029" y="275.600524" style="fill: #39ad48; stroke: #39ad48"/>
     <use xlink:href="#m99c9e2cf7b" x="126.197967" y="275.593042" style="fill: #39ad48; stroke: #39ad48"/>
     <use xlink:href="#m99c9e2cf7b" x="150.654904" y="287.191134" style="fill: #39ad48; stroke: #39ad48"/>
     <use xlink:href="#m99c9e2cf7b" x="175.111842" y="276.825711" style="fill: #39ad48; stroke: #39ad48"/>
     <use xlink:href="#m99c9e2cf7b" x="199.56878" y="281.822248" style="fill: #39ad48; stroke: #39ad48"/>
     <use xlink:href="#m99c9e2cf7b" x="224.025718" y="274.517977" style="fill: #39ad48; stroke: #39ad48"/>
     <use xlink:href="#m99c9e2cf7b" x="248.482656" y="298.016604" style="fill: #39ad48; stroke: #39ad48"/>
     <use xlink:href="#m99c9e2cf7b" x="272.939593" y="304.227273" style="fill: #39ad48; stroke: #39ad48"/>
     <use xlink:href="#m99c9e2cf7b" x="297.396531" y="298.163093" style="fill: #39ad48; stroke: #39ad48"/>
     <use xlink:href="#m99c9e2cf7b" x="321.853469" y="282.059733" style="fill: #39ad48; stroke: #39ad48"/>
     <use xlink:href="#m99c9e2cf7b" x="346.310407" y="302.921968" style="fill: #39ad48; stroke: #39ad48"/>
     <use xlink:href="#m99c9e2cf7b" x="370.767344" y="281.378166" style="fill: #39ad48; stroke: #39ad48"/>
     <use xlink:href="#m99c9e2cf7b" x="395.224282" y="288.162636" style="fill: #39ad48; stroke: #39ad48"/>
     <use xlink:href="#m99c9e2cf7b" x="419.68122" y="271.015178" style="fill: #39ad48; stroke: #39ad48"/>
     <use xlink:href="#m99c9e2cf7b" x="444.138158" y="280.870265" style="fill: #39ad48; stroke: #39ad48"/>
     <use xlink:href="#m99c9e2cf7b" x="468.595096" y="215.896494" style="fill: #39ad48; stroke: #39ad48"/>
     <use xlink:href="#m99c9e2cf7b" x="493.052033" y="217.665164" style="fill: #39ad48; stroke: #39ad48"/>
     <use xlink:href="#m99c9e2cf7b" x="517.508971" y="153.962334" style="fill: #39ad48; stroke: #39ad48"/>
     <use xlink:href="#m99c9e2cf7b" x="541.965909" y="24.772727" style="fill: #39ad48; stroke: #39ad48"/>
    </g>
   </g>
   <g id="line2d_46">
    <path d="M 77.284091 278.267608 
L 101.741029 276.890728 
L 126.197967 282.843273 
L 150.654904 285.428886 
L 175.111842 277.819658 
L 199.56878 273.143649 
L 224.025718 256.95921 
L 248.482656 277.200181 
L 272.939593 271.51059 
L 297.396531 298.408492 
L 321.853469 294.162683 
L 346.310407 285.318606 
L 370.767344 300.714125 
L 395.224282 296.096555 
L 419.68122 290.32451 
L 444.138158 286.184954 
L 468.595096 290.720816 
L 493.052033 262.058348 
L 517.508971 252.244027 
L 541.965909 191.740394 
" clip-path="url(#p30d7dc852e)" style="fill: none; stroke: #feb308; stroke-width: 1.5; stroke-linecap: square"/>
    <defs>
     <path id="ma87c8a6448" d="M -3 3 
L 3 3 
L 3 -3 
L -3 -3 
z
" style="stroke: #feb308; stroke-linejoin: miter"/>
    </defs>
    <g clip-path="url(#p30d7dc852e)">
     <use xlink:href="#ma87c8a6448" x="77.284091" y="278.267608" style="fill: #feb308; stroke: #feb308; stroke-linejoin: miter"/>
     <use xlink:href="#ma87c8a6448" x="101.741029" y="276.890728" style="fill: #feb308; stroke: #feb308; stroke-linejoin: miter"/>
     <use xlink:href="#ma87c8a6448" x="126.197967" y="282.843273" style="fill: #feb308; stroke: #feb308; stroke-linejoin: miter"/>
     <use xlink:href="#ma87c8a6448" x="150.654904" y="285.428886" style="fill: #feb308; stroke: #feb308; stroke-linejoin: miter"/>
     <use xlink:href="#ma87c8a6448" x="175.111842" y="277.819658" style="fill: #feb308; stroke: #feb308; stroke-linejoin: miter"/>
     <use xlink:href="#ma87c8a6448" x="199.56878" y="273.143649" style="fill: #feb308; stroke: #feb308; stroke-linejoin: miter"/>
     <use xlink:href="#ma87c8a6448" x="224.025718" y="256.95921" style="fill: #feb308; stroke: #feb308; stroke-linejoin: miter"/>
     <use xlink:href="#ma87c8a6448" x="248.482656" y="277.200181" style="fill: #feb308; stroke: #feb308; stroke-linejoin: miter"/>
     <use xlink:href="#ma87c8a6448" x="272.939593" y="271.51059" style="fill: #feb308; stroke: #feb308; stroke-linejoin: miter"/>
     <use xlink:href="#ma87c8a6448" x="297.396531" y="298.408492" style="fill: #feb308; stroke: #feb308; stroke-linejoin: miter"/>
     <use xlink:href="#ma87c8a6448" x="321.853469" y="294.162683" style="fill: #feb308; stroke: #feb308; stroke-linejoin: miter"/>
     <use xlink:href="#ma87c8a6448" x="346.310407" y="285.318606" style="fill: #feb308; stroke: #feb308; stroke-linejoin: miter"/>
     <use xlink:href="#ma87c8a6448" x="370.767344" y="300.714125" style="fill: #feb308; stroke: #feb308; stroke-linejoin: miter"/>
     <use xlink:href="#ma87c8a6448" x="395.224282" y="296.096555" style="fill: #feb308; stroke: #feb308; stroke-linejoin: miter"/>
     <use xlink:href="#ma87c8a6448" x="419.68122" y="290.32451" style="fill: #feb308; stroke: #feb308; stroke-linejoin: miter"/>
     <use xlink:href="#ma87c8a6448" x="444.138158" y="286.184954" style="fill: #feb308; stroke: #feb308; stroke-linejoin: miter"/>
     <use xlink:href="#ma87c8a6448" x="468.595096" y="290.720816" style="fill: #feb308; stroke: #feb308; stroke-linejoin: miter"/>
     <use xlink:href="#ma87c8a6448" x="493.052033" y="262.058348" style="fill: #feb308; stroke: #feb308; stroke-linejoin: miter"/>
     <use xlink:href="#ma87c8a6448" x="517.508971" y="252.244027" style="fill: #feb308; stroke: #feb308; stroke-linejoin: miter"/>
     <use xlink:href="#ma87c8a6448" x="541.965909" y="191.740394" style="fill: #feb308; stroke: #feb308; stroke-linejoin: miter"/>
    </g>
   </g>
   <g id="line2d_47">
    <path d="M 493.052033 318.2 
L 493.052033 10.8 
" clip-path="url(#p30d7dc852e)" style="fill: none; stroke-dasharray: 5.55,2.4; stroke-dashoffset: 0; stroke: #000000; stroke-width: 1.5"/>
   </g>
   <g id="patch_3">
    <path d="M 54.05 318.2 
L 54.05 10.8 
" style="fill: none; stroke: #000000; stroke-width: 0.8; stroke-linejoin: miter; stroke-linecap: square"/>
   </g>
   <g id="patch_4">
    <path d="M 565.2 318.2 
L 565.2 10.8 
" style="fill: none; stroke: #000000; stroke-width: 0.8; stroke-linejoin: miter; stroke-linecap: square"/>
   </g>
   <g id="patch_5">
    <path d="M 54.05 318.2 
L 565.2 318.2 
" style="fill: none; stroke: #000000; stroke-width: 0.8; stroke-linejoin: miter; stroke-linecap: square"/>
   </g>
   <g id="patch_6">
    <path d="M 54.05 10.8 
L 565.2 10.8 
" style="fill: none; stroke: #000000; stroke-width: 0.8; stroke-linejoin: miter; stroke-linecap: square"/>
   </g>
   <g id="legend_1">
    <g id="patch_7">
     <path d="M 61.05 74.032188 
L 204.998438 74.032188 
Q 206.998438 74.032188 206.998438 72.032188 
L 206.998438 17.8 
Q 206.998438 15.8 204.998438 15.8 
L 61.05 15.8 
Q 59.05 15.8 59.05 17.8 
L 59.05 72.032188 
Q 59.05 74.032188 61.05 74.032188 
z
" style="fill: #ffffff; opacity: 0.8; stroke: #cccccc; stroke-linejoin: miter"/>
    </g>
    <g id="line2d_48">
     <path d="M 63.05 23.898438 
L 73.05 23.898438 
L 83.05 23.898438 
" style="fill: none; stroke: #39ad48; stroke-width: 1.5; stroke-linecap: square"/>
     <g>
      <use xlink:href="#m99c9e2cf7b" x="73.05" y="23.898438" style="fill: #39ad48; stroke: #39ad48"/>
     </g>
    </g>
    <g id="text_27">
     <!-- Climate -->
     <g transform="translate(91.05 27.398438) scale(0.1 -0.1)">
      <use xlink:href="#DejaVuSans-43"/>
      <use xlink:href="#DejaVuSans-6c" x="69.824219"/>
      <use xlink:href="#DejaVuSans-69" x="97.607422"/>
      <use xlink:href="#DejaVuSans-6d" x="125.390625"/>
      <use xlink:href="#DejaVuSans-61" x="222.802734"/>
      <use xlink:href="#DejaVuSans-74" x="284.082031"/>
      <use xlink:href="#DejaVuSans-65" x="323.291016"/>
     </g>
    </g>
    <g id="line2d_49">
     <path d="M 63.05 38.576563 
L 73.05 38.576563 
L 83.05 38.576563 
" style="fill: none; stroke: #feb308; stroke-width: 1.5; stroke-linecap: square"/>
     <g>
      <use xlink:href="#ma87c8a6448" x="73.05" y="38.576563" style="fill: #feb308; stroke: #feb308; stroke-linejoin: miter"/>
     </g>
    </g>
    <g id="text_28">
     <!-- Non-Climate -->
     <g transform="translate(91.05 42.076563) scale(0.1 -0.1)">
      <defs>
       <path id="DejaVuSans-4e" d="M 628 4666 
L 1478 4666 
L 3547 763 
L 3547 4666 
L 4159 4666 
L 4159 0 
L 3309 0 
L 1241 3903 
L 1241 0 
L 628 0 
L 628 4666 
z
" transform="scale(0.015625)"/>
       <path id="DejaVuSans-2d" d="M 313 2009 
L 1997 2009 
L 1997 1497 
L 313 1497 
L 313 2009 
z
" transform="scale(0.015625)"/>
      </defs>
      <use xlink:href="#DejaVuSans-4e"/>
      <use xlink:href="#DejaVuSans-6f" x="74.804688"/>
      <use xlink:href="#DejaVuSans-6e" x="135.986328"/>
      <use xlink:href="#DejaVuSans-2d" x="199.365234"/>
      <use xlink:href="#DejaVuSans-43" x="235.449219"/>
      <use xlink:href="#DejaVuSans-6c" x="305.273438"/>
      <use xlink:href="#DejaVuSans-69" x="333.056641"/>
      <use xlink:href="#DejaVuSans-6d" x="360.839844"/>
      <use xlink:href="#DejaVuSans-61" x="458.251953"/>
      <use xlink:href="#DejaVuSans-74" x="519.53125"/>
      <use xlink:href="#DejaVuSans-65" x="558.740234"/>
     </g>
    </g>
    <g id="line2d_50">
     <path d="M 63.05 59.893438 
L 73.05 59.893438 
L 83.05 59.893438 
" style="fill: none; stroke-dasharray: 5.55,2.4; stroke-dashoffset: 0; stroke: #000000; stroke-width: 1.5"/>
    </g>
    <g id="text_29">
     <!-- Odds Climate: 11.6  -->
     <g transform="translate(91.05 56.754688) scale(0.1 -0.1)">
      <defs>
       <path id="DejaVuSans-3a" d="M 750 794 
L 1409 794 
L 1409 0 
L 750 0 
L 750 794 
z
M 750 3309 
L 1409 3309 
L 1409 2516 
L 750 2516 
L 750 3309 
z
" transform="scale(0.015625)"/>
      </defs>
      <use xlink:href="#DejaVuSans-4f"/>
      <use xlink:href="#DejaVuSans-64" x="78.710938"/>
      <use xlink:href="#DejaVuSans-64" x="142.1875"/>
      <use xlink:href="#DejaVuSans-73" x="205.664062"/>
      <use xlink:href="#DejaVuSans-20" x="257.763672"/>
      <use xlink:href="#DejaVuSans-43" x="289.550781"/>
      <use xlink:href="#DejaVuSans-6c" x="359.375"/>
      <use xlink:href="#DejaVuSans-69" x="387.158203"/>
      <use xlink:href="#DejaVuSans-6d" x="414.941406"/>
      <use xlink:href="#DejaVuSans-61" x="512.353516"/>
      <use xlink:href="#DejaVuSans-74" x="573.632812"/>
      <use xlink:href="#DejaVuSans-65" x="612.841797"/>
      <use xlink:href="#DejaVuSans-3a" x="674.365234"/>
      <use xlink:href="#DejaVuSans-20" x="708.056641"/>
      <use xlink:href="#DejaVuSans-31" x="739.84375"/>
      <use xlink:href="#DejaVuSans-31" x="803.466797"/>
      <use xlink:href="#DejaVuSans-2e" x="867.089844"/>
      <use xlink:href="#DejaVuSans-36" x="898.876953"/>
      <use xlink:href="#DejaVuSans-20" x="962.5"/>
     </g>
     <!-- Odds Non-climate: 7.2 -->
     <g transform="translate(91.05 67.9525) scale(0.1 -0.1)">
      <use xlink:href="#DejaVuSans-4f"/>
      <use xlink:href="#DejaVuSans-64" x="78.710938"/>
      <use xlink:href="#DejaVuSans-64" x="142.1875"/>
      <use xlink:href="#DejaVuSans-73" x="205.664062"/>
      <use xlink:href="#DejaVuSans-20" x="257.763672"/>
      <use xlink:href="#DejaVuSans-4e" x="289.550781"/>
      <use xlink:href="#DejaVuSans-6f" x="364.355469"/>
      <use xlink:href="#DejaVuSans-6e" x="425.537109"/>
      <use xlink:href="#DejaVuSans-2d" x="488.916016"/>
      <use xlink:href="#DejaVuSans-63" x="525"/>
      <use xlink:href="#DejaVuSans-6c" x="579.980469"/>
      <use xlink:href="#DejaVuSans-69" x="607.763672"/>
      <use xlink:href="#DejaVuSans-6d" x="635.546875"/>
      <use xlink:href="#DejaVuSans-61" x="732.958984"/>
      <use xlink:href="#DejaVuSans-74" x="794.238281"/>
      <use xlink:href="#DejaVuSans-65" x="833.447266"/>
      <use xlink:href="#DejaVuSans-3a" x="894.970703"/>
      <use xlink:href="#DejaVuSans-20" x="928.662109"/>
      <use xlink:href="#DejaVuSans-37" x="960.449219"/>
      <use xlink:href="#DejaVuSans-2e" x="1024.072266"/>
      <use xlink:href="#DejaVuSans-32" x="1055.859375"/>
     </g>
    </g>
   </g>
  </g>
 </g>
 <defs>
  <clipPath id="p30d7dc852e">
   <rect x="54.05" y="10.8" width="511.15" height="307.4"/>
  </clipPath>
 </defs>
</svg>
